
<svg id="Layer_5" data-name="Layer 5" xmlns="http://www.w3.org/2000/svg" viewBox="0 0 24 24" fill="white">
  <path d="M23.95,12.41c-.04-.1-.09-.2-.16-.28,.07-.15,.1-.32,.08-.49-.05-.43-.41-.75-.84-.77-.05-.02-.11-.06-.15-.08l-.12-.06c-.15-.17-.31-.36-.48-.54-.18-.19-.35-.38-.52-.57l-.22-.25c-.31-.34-.64-.51-.91-.64l-.12-.05c-.12-.09-.25-.17-.38-.25l-.08-.05c-.35-.25-.67-.58-.99-.89l-.09-.09c-.1-.1-.21-.21-.31-.31-.2-.19-.41-.34-.64-.5-.18-.12-.34-.23-.46-.36-.59-.65-1.17-1-1.82-1.38h-.01c-.07-.09-.15-.16-.23-.23-.23-.2-.46-.34-.69-.48-.11-.06-.22-.13-.32-.2-.06-.04-.11-.09-.15-.13-.17-.2-.43-.5-.81-.65-.42-.17-.89,0-1.1,.4-.21,.4-.09,.88,.28,1.14,.09,.06,.18,.14,.27,.23l.09,.08c.09,.1,.18,.2,.27,.29,.21,.19,.43,.31,.58,.38l.03,.02s.09,.05,.14,.08c.08,.05,.15,.11,.25,.19,.08,.07,.17,.14,.24,.19,.04,.04,.08,.09,.12,.13l.04,.04c.11,.13,.25,.29,.39,.43l.25,.25c.74,.74,1.5,1.5,2.37,2.13,.33,.23,.67,.39,1.02,.54,.12,.06,.25,.11,.35,.16,.15,.1,.29,.19,.43,.27l.06-.11h0l-.03,.13c.34,.25,.67,.58,.87,.87,.29,.42,.52,.68,.83,.89-.02,0-.03,0-.05,0-.07,0-.16,0-.27-.02h-.04c-.14-.02-.28-.04-.43-.04-.64-.01-1.28-.03-1.91-.06-1.35-.04-2.72-.06-4.05-.07h-1.26c-1.33-.03-2.71-.04-4.08,0-.99,.03-1.84,.11-2.61,.25-1.67,.3-3.34,.23-5.12,.15l-.52-.02c-.22-.03-.43,.04-.6,.19-.19,.16-.31,.4-.32,.65,0,.23,.07,.46,.23,.63s.37,.27,.61,.28l.53,.02c1.79,.08,3.64,.16,5.5-.18,.68-.12,1.45-.19,2.35-.22,1.4-.04,2.82-.03,4.19-.01h.94c1.36,.02,2.77,.03,4.16,.08,.48,.02,.96,.03,1.44,.04-.4,.29-.81,.58-1.21,.88-1.19,.87-2.36,1.72-3.55,2.53-.26,.18-.51,.36-.78,.57-.11,.08-.22,.17-.31,.24-.29,.15-.58,.29-.88,.45l-.32,.17c-.28,.15-.56,.3-.83,.45-.32,.15-.56,.3-.76,.47-.34,.3-.39,.82-.12,1.19,.17,.22,.42,.34,.7,.34,.17,0,.33-.05,.48-.14,.16-.1,.33-.2,.48-.3,.13-.06,.27-.11,.4-.16,.15-.06,.3-.12,.43-.18,.52-.23,.96-.53,1.31-.79l.28-.14c.37-.19,.68-.42,.96-.65,.15-.12,.31-.24,.48-.35,.69-.43,1.36-.9,2-1.35l.03-.02c.4-.28,.8-.56,1.2-.83,.32-.21,.62-.45,.92-.67,.36-.27,.73-.55,1.11-.79,.12-.07,.24-.14,.38-.21,.51-.28,1.09-.6,1.47-1.11,.17-.23,.22-.53,.12-.81Z" fill="white" />
</svg>