<?xml version="1.0" encoding="UTF-8"?>
<svg id="Layer_5" data-name="Layer 5" xmlns="http://www.w3.org/2000/svg" viewBox="0 0 24 24">
  <path d="M23.96,9.54v-.05c-.02-.38-.04-.78-.03-1.16l.02-.43c.04-.68,.08-1.38-.08-2.16l-.06-.3c-.1-.53-.22-1.13-.44-1.67-.19-.45-.64-1.05-1.71-1.32-.15-.04-.31-.04-.46,0-.25-.02-.49-.05-.76-.07-1.29-.13-2.62-.26-3.96-.17-.77,.06-1.46,.1-2.16,.11-.66,0-1.32,.03-1.99,.05-.65,.02-1.31,.04-1.96,.05-.29,0-.57,0-.86,0h-.19c-.72,0-1.54-.01-2.34,.06l-.55,.04c-.66,.05-1.34,.09-2.07,.31-.73,.21-1.31,.47-1.83,.8-.82,.52-1.05,1.14-1.26,1.9-.22,.8-.35,1.55-.5,2.37l-.03,.18c-.06,.32-.13,.63-.2,.95-.14,.63-.29,1.29-.34,1.98,0,.14-.03,.28-.04,.42v.09c-.04,.22-.06,.45-.08,.67,0,.18,0,.36,0,.53v.04c0,.11,.01,.21,0,.32,0,.14-.02,.28-.04,.42v.05c-.06,.51-.12,1.09,.03,1.69,.19,.74,.74,1.44,1.2,1.97,.57,.65,1.56,.81,2.26,.88,.47,.05,.92,0,1.33-.04-.18,.43-.36,.77-.55,1.07-.2,.32-.48,.6-.79,.91l-.25,.26c-.19,.2-.27,.46-.23,.73,.04,.27,.2,.5,.43,.63,.17,.1,.36,.15,.56,.15,.23,0,.44-.07,.59-.11,.34-.1,.67-.22,1.04-.35l.35-.13c.97-.34,1.82-.81,2.53-1.38,.19-.15,.37-.31,.56-.47l.3-.25c.1,0,.21-.01,.31-.02,.23-.01,.45-.03,.67-.06,.2-.02,.39-.05,.59-.06,.39-.02,.78-.05,1.17-.08h.06c.55-.05,1.12-.09,1.69-.11,.26-.01,.52,0,.78,0h.06c.31,.01,.64,.02,.96,.01,.22,0,.47,.01,.68,.03,.49,.04,1.05,.09,1.64-.07,.21-.06,.45-.05,.73-.04,.19,0,.42,.01,.65,0,.55-.04,1.07-.14,1.56-.31,.77-.27,1.24-.93,1.58-1.41l.06-.09c.3-.42,.44-.81,.58-1.2l.05-.13c.04-.12,.09-.24,.14-.36,.14-.34,.31-.77,.39-1.22,.11-.64,.13-1.27,.15-1.9,0-.32,.02-.65,.04-.96,.04-.56,.01-1.11-.02-1.6Zm-5.09,7.44h-.05c-.41-.02-.81-.02-1.25,.1-.28,.08-.63,.05-1.03,.02-.26-.02-.57-.04-.87-.04-.25,0-.51,0-.75,0h-.13c-.3-.01-.61-.02-.92-.01-.63,.02-1.27,.07-1.83,.11-.38,.03-.75,.06-1.14,.08-.24,.01-.47,.04-.71,.07l-.15,.02c-.25,.03-.48,.06-.7,.05-.33,0-.58,.04-.93,.32l-.41,.35c-.17,.15-.34,.29-.52,.43-.35,.28-.75,.54-1.2,.75,.23-.48,.42-.97,.6-1.44,.32-.76-.03-1.2-.26-1.39-.19-.15-.42-.23-.71-.23-.19,0-.38,.03-.56,.06l-.25,.04c-.45,.06-.96,.13-1.38,.1-.91-.09-1.09-.27-1.12-.3-.19-.22-.71-.81-.81-1.24-.08-.3-.04-.68,0-1.08,.02-.19,.04-.38,.05-.56,0-.18,0-.35,0-.54,0-.12-.01-.24,0-.36,0-.17,.03-.35,.05-.52v-.04c.03-.2,.05-.4,.07-.59,.04-.55,.16-1.11,.3-1.72,.08-.33,.15-.68,.21-1.02l.03-.18c.14-.76,.27-1.48,.47-2.22,.16-.59,.23-.72,.5-.89,.38-.24,.82-.43,1.39-.6,.55-.16,1.11-.2,1.71-.24l.56-.04c.72-.07,1.46-.06,2.18-.05,.36,0,.73,0,1.08,0,.66,0,1.32-.03,1.98-.05,.65-.02,1.31-.04,1.96-.05,.74-.01,1.46-.06,2.26-.12,1.2-.08,2.45,.04,3.66,.16,.38,.04,.77,.08,1.15,.11,.03,0,.06,0,.09,0,.13,.06,.22,.13,.25,.2,.15,.38,.25,.87,.34,1.35l.06,.31c.11,.56,.08,1.1,.05,1.71l-.02,.45c-.02,.45,0,.89,.03,1.4,.02,.48,.05,.93,.02,1.37-.03,.35-.04,.7-.04,1.04-.02,.58-.03,1.12-.12,1.65-.05,.27-.16,.56-.29,.87-.06,.14-.11,.28-.16,.41l-.05,.14c-.12,.32-.2,.55-.36,.78l-.07,.09c-.22,.3-.49,.68-.73,.77-.34,.12-.71,.19-1.1,.21-.15,.01-.29,0-.44,0Z"/>
  <path d="M8.78,8.76c.61,.57,1.42,.71,2.17,.38,.18-.08,.34-.17,.48-.25l.04-.03c.82,.71,1.65,1,2.63,.92,.18-.02,.35-.04,.52-.06h.05c.39-.06,.72-.11,1.05-.04,.55,.1,1.06,.06,1.5,.02,.18-.02,.38-.03,.57-.04,.23,0,.45-.1,.61-.27,.16-.17,.25-.39,.25-.62,0-.47-.4-.86-.89-.86-.24,0-.47,.02-.69,.04-.38,.03-.71,.06-1.03,0-.62-.11-1.15-.04-1.62,.02-.15,.02-.31,.04-.47,.06-.51,.04-.9-.12-1.37-.54-.88-.79-1.69-.32-2.03-.12l-.03,.02c-.08,.04-.16,.09-.25,.13-.08,.04-.26,.11-.53-.38-.1-.2-.32-.61-.84-.66-.51-.04-.83,.3-1.03,.55-.04-.11-.12-.22-.21-.31-.2-.19-.48-.28-.74-.24-.68,.11-1.87,.57-2.15,2.52-.03,.23,.03,.46,.17,.65,.14,.19,.34,.31,.57,.34,.04,0,.08,0,.13,0,.43,0,.8-.32,.87-.75,0-.01,0-.02,0-.04,.21,.21,.49,.34,.79,.37,.67,.05,1.16-.42,1.48-.83Z"/>
  <path d="M18.6,12.46c-.55-.06-1.11-.02-1.65,.12-.08,.02-.16,.05-.22,.1-.12,.07-.21,.09-.44,.05-.09,0-.22-.09-.41-.21-.27-.17-.6-.38-1.04-.47-.57-.11-1.1,0-1.52,.09-.33,.07-.65,.14-.86,.08-.03-.01-.12-.09-.16-.14-.16-.16-.41-.39-.79-.51-.29-.09-.61-.02-.84,.17l-.09,.07c-.13-.17-.31-.29-.52-.34-.77-.17-2.19-.14-3.04,1.95-.18,.45,.03,.96,.48,1.14,.11,.04,.22,.07,.33,.07,.36,0,.67-.21,.81-.54,.12-.3,.26-.53,.4-.69,.12,.21,.33,.45,.71,.61,.21,.09,.46,.09,.68,0,.32-.13,.58-.29,.85-.49,.17,.14,.4,.3,.71,.38,.62,.17,1.21,.04,1.68-.06,.31-.06,.62-.13,.83-.09,.12,.02,.26,.12,.43,.22,.29,.19,.66,.43,1.08,.46,.5,.11,1.02,.04,1.49-.21,.29-.07,.59-.09,.9-.05,.22,.04,.45-.02,.63-.16,.19-.15,.31-.37,.34-.61,.03-.23-.04-.46-.19-.64-.15-.18-.35-.3-.59-.32Z"/>
</svg>