
<svg id="Layer_5" data-name="Layer 5" xmlns="http://www.w3.org/2000/svg" viewBox="0 0 24 24" fill="#577590">
  <path d="M23.54,9.13c.06-.27-.03-.57-.24-.78-.5-1.61-1.11-2.91-1.8-3.88-1.13-1.57-3.07-2.67-4.49-3.47-.18-.11-.4-.14-.61-.1l-.22-.06c-.25-.07-.48-.13-.67-.22-.09-.04-.18-.09-.29-.16-.26-.16-.59-.36-1.02-.43-.66-.11-1.26,.11-1.68,.27-.1-.05-.2-.07-.31-.08-.24-.01-.48,.07-.65,.23l-.16,.14c-.12,0-.24,.01-.37,.02-.2,0-.41,.01-.62,.03-1.58,.14-3.61,1.08-4.8,1.92-1.23,.87-2.51,1.81-3.51,2.91-.56,.62-1.03,1.37-1.38,2.22-.06,.1-.1,.21-.12,.3-.83,2.21-.82,4.76,.05,7.17l.19,.54c.88,2.48,1.88,5.29,4.7,6.64,1.42,.68,3.15,1.38,5.27,1.38,.23,0,.46,.03,.71,.06,.02,0,.05,0,.06,0,.02,.02,.05,.05,.1,.07,.18,.08,.38,.1,.58,.05,.09,.04,.2,.08,.32,.08,.18,0,.36-.07,.53-.21,.4-.06,.84-.15,1.33-.29,.21-.06,.41-.11,.61-.16,3.01-.71,5.51-2.55,7.43-5.45,1.52-2.31,1.9-5.5,1.02-8.75Zm-7.71,7.59c-.04,.11-.08,.22-.12,.33-.53,1.55-1.63,2.95-2.71,4.3,0-.04,0-.08,0-.12-.01-.39-.03-.78-.05-1.17l-.02-.4c-.03-.59-.05-1.19-.07-1.79,0-.34,0-.69,0-1.07,.24,.01,.47,.02,.7,.03,.72,.04,1.44,0,2.27-.12Zm3.33-10.95c-.06-.03-.13-.05-.2-.07-.35-.08-.69-.16-1.04-.27-.16-.04-.32-.08-.49-.12l-.16-.04c-.46-.83-.99-1.6-1.5-2.31-.16-.22-.31-.4-.45-.55,.14,.04,.28,.08,.43,.12,.12,.03,.23,.06,.35,.1,.11,.03,.22,.05,.32,.04,1.4,.8,2.84,1.67,3.66,2.82,.22,.31,.45,.69,.67,1.13-.55-.32-1.07-.61-1.59-.86Zm-4.16-.85c-.56-.05-1.2-.1-1.86-.13,0-.39,.02-.78,.02-1.16v-.44s.08,.03,.12,.05c.66,.26,.72,.29,1.06,.76,.26,.36,.47,.66,.65,.93Zm1.09,1.9c.31,.68,.52,1.34,.64,2.02,.32,1.87,.28,3.93-.11,5.5-.04,.16-.09,.31-.14,.47v.03c-1.09,.21-1.98,.29-2.85,.25-.23,0-.46-.02-.7-.03v-.11c.06-.84,.11-1.72,.1-2.6-.01-1.93,.03-3.92,.07-5.8,.67,.03,1.33,.08,1.83,.13l.34,.03c.29,.02,.56,.07,.82,.12Zm1.27,10.8c.09-.28,.2-.56,.3-.84l.1-.27c.02-.07,.05-.13,.07-.2,.26-.08,.52-.16,.77-.24,.32-.11,.65-.21,.99-.3,.21-.06,.42-.1,.63-.15,.19-.04,.39-.08,.58-.13,.34-.08,.68-.21,1.08-.4-.21,.69-.48,1.3-.83,1.83-1.6,2.42-3.55,3.93-5.96,4.61,.9-1.17,1.78-2.45,2.27-3.91Zm3.03-3.83c-.17,.04-.35,.08-.52,.12-.24,.05-.49,.1-.73,.17-.24,.07-.49,.14-.72,.22,.35-1.75,.37-3.83,.04-5.75-.07-.41-.17-.82-.3-1.24,.11,.03,.22,.06,.31,.08,1.11,.55,2.23,1.24,3.34,2.03v.02s.02,.05,.03,.07c.31,1.14,.45,2.28,.41,3.41l-.09,.05c-.58,.34-1.18,.69-1.76,.83ZM11.42,3.29c0,.5-.02,1-.03,1.49-.49,.02-.9,.06-1.29,.13-.26,.04-.51,.09-.76,.14,.63-.76,1.37-1.46,2.09-2.11v.35Zm-.14,9.06c0,.82-.04,1.67-.09,2.5v.09c-1.59-.12-3-.29-4.29-.52-.11-.45-.2-.88-.26-1.29-.24-1.54,.25-3.72,1.35-6,.81-.18,1.6-.36,2.38-.48,.31-.05,.64-.08,.98-.1-.04,1.87-.08,3.85-.07,5.82ZM6.83,5.58h-.05c-.59,.14-1.2,.28-1.8,.39-.35,.06-.72,.13-1.11,.23,.85-.82,1.86-1.56,2.77-2.2,.67-.47,1.57-.93,2.43-1.24-.73,.72-1.56,1.65-2.23,2.82Zm-1.55,2.11c.2-.04,.4-.08,.6-.12-.64,1.59-1.29,3.81-.97,5.82,.03,.22,.07,.42,.11,.63-.28-.07-.53-.13-.77-.2-.32-.09-.62-.22-.97-.36-.23-.1-.46-.19-.7-.28-.12-.04-.24-.11-.37-.18l-.03-.02h0c-.1-.05-.2-.11-.31-.16-.16-1.02-.23-2.53,.29-4.05,.21-.1,.43-.21,.64-.31l.49-.23c.63-.3,1.22-.42,1.98-.56Zm2.31,8.78c-.03-.06-.05-.12-.07-.18,1.1,.17,2.28,.3,3.6,.4-.01,.45-.02,.84,0,1.23,.02,.6,.04,1.19,.07,1.79v.18c.03,.47,.05,.94,.07,1.41,0,.02,0,.05,0,.07-.52-.31-.95-.95-1.37-1.57-.21-.32-.45-.67-.71-.98l-.07-.09c-.63-.78-1.13-1.4-1.51-2.25Zm-4.96-1.38c.36,.15,.73,.31,1.16,.42,.53,.15,1.09,.28,1.73,.42,.16,.49,.31,.89,.47,1.25,.48,1.07,1.1,1.83,1.76,2.64l.07,.09c.21,.26,.4,.54,.61,.86,.21,.32,.46,.68,.74,1.02-.88-.18-1.79-.51-2.85-1.01-2.17-1.04-2.97-3.28-3.81-5.65l-.03-.1s.1,.04,.16,.06Z" fill="#577590" />
</svg>