<?xml version="1.0" encoding="UTF-8"?>
<svg id="Layer_5" data-name="Layer 5" xmlns="http://www.w3.org/2000/svg" viewBox="0 0 24 24">
  <path d="M.63,5.25c.13,.18,.3,.43,.58,.6,.28,.17,.58,.24,.83,.3,.06,.01,.12,.03,.17,.04,.27,.08,.55,.13,.82,.13,.51,0,1.02-.15,1.45-.43,.61-.39,.98-.91,1.21-1.68,.06-.21,.15-.49,.14-.85,0-.3-.09-.56-.25-.78-.03-.19-.13-.37-.27-.5-.32-.29-.65-.56-.98-.81-.16-.12-.35-.19-.56-.17l-.07-.03c-.12-.05-.25-.1-.4-.12-.61-.1-1.19,.06-1.69,.48C.48,2.39-.33,3.97,.56,5.16l.07,.09ZM2.75,2.76c.08-.07,.15-.1,.21-.1,0,0,.02,0,.01,0,.03,0,.06,.02,.1,.04,.11,.04,.27,.11,.44,.14l.07,.05c.03,.2,.13,.39,.29,.52,.06,.06,.13,.1,.2,.15-.01,.04-.02,.09-.04,.14-.11,.36-.23,.55-.48,.71-.25,.16-.52,.2-.82,.11-.1-.03-.21-.06-.33-.08-.07-.02-.18-.04-.23-.05-.03-.03-.07-.09-.1-.13l-.1-.14c-.14-.18,.22-.86,.78-1.34Z"/>
  <path d="M6.25,18.23c-.04-.37-.09-.76-.1-1.13v-.96c-.02-.79-.02-1.69-.08-2.57-.05-.75-.12-1.73-.21-2.74v-.13c-.03-.41-.07-1.03-.47-1.44-.49-.5-1.14-.37-1.45-.3l-.47,.08c-.29,.04-.6,.09-.83,.07-.09,0-.18-.01-.28-.02-.11,0-.42-.02-.49-.05-.23-.11-.5-.12-.75,0-.45,.03-.8,.4-.81,.85-.04,1.51-.12,3.02-.24,4.46-.07,.41-.08,.81-.03,1.21,.04,.42,.08,.83,.1,1.19,0,.5,0,.97,.02,1.47,.03,.3,.09,.58,.16,.87v.05c.05,.15,.08,.31,.11,.46,.03,.17,.05,.35,.07,.52,.05,.42,.1,.78,.17,1.15,.15,.75,.46,1.45,1.64,1.45h.05c.19,0,.38,0,.57,0h.05c.18,0,.36,.01,.54,.01,.45,0,.8-.03,1.13-.09,.15-.03,.3-.08,.42-.12,.08-.03,.19-.06,.24-.07,.37-.03,.68-.29,.78-.64,.19-.71,.25-1.42,.27-1.89,.02-.58-.04-1.13-.11-1.66v-.04Zm-4.25,.43c-.05-.2-.09-.4-.11-.55-.01-.43-.02-.88-.02-1.41-.03-.44-.06-.88-.11-1.33-.03-.25-.02-.5,.03-.8,.11-1.23,.19-2.49,.23-3.74,.08,0,.16,0,.25,.01h.21c.43,.06,.83,0,1.19-.07l.36-.06s.04,0,.06,0c0,.04,0,.07,0,.1v.17c.08,.79,.14,1.65,.22,2.71,.06,.83,.06,1.66,.07,2.46v.98c.02,.46,.07,.92,.12,1.34,.06,.49,.11,.95,.1,1.4-.01,.35-.05,.69-.1,1.01h-.01c-.06,.02-.12,.04-.17,.05-.37,.07-.78,.06-1.23,.05h-.08c-.18,0-.36-.01-.54-.01h-.1s0-.03,0-.05c-.07-.34-.11-.68-.15-1.02-.02-.18-.05-.37-.07-.56-.03-.22-.08-.43-.14-.7Z"/>
  <path d="M23.98,14.71c-.09-1.07-.28-2.46-.88-3.61l-.17-.34c-.2-.41-.42-.86-.75-1.25-.13-.16-.28-.3-.43-.43l-.05-.04c-.05-.05-.11-.1-.16-.15l-.14-.15c-.28-.3-.64-.68-1.07-.93-.34-.2-.69-.31-1-.41l-.13-.04c-1.1-.35-2.14-.45-3.16-.55-.95-.09-1.89-.04-2.82,.16-.11,.02-.25,.05-.4,.1-.01-.1-.03-.19-.04-.28l-.02-.14c-.05-.35-.12-.83-.46-1.16-.2-.19-.38-.25-.53-.29-1.06-.4-2.34-.53-3.51-.33-.45,.08-.78,.46-.77,.89,0,.13,.04,.26,.09,.38-.2,1.87-.39,3.88-.44,5.89,0,.33-.03,.66-.04,.99-.03,.64-.07,1.38-.04,2.11,.06,1.48,.2,2.96,.33,4.4l.08,.86s0,.09,0,.16c0,.34,.02,1.38,1,1.61,.49,.12,.99,.12,1.5,.11,.2,0,.39,0,.58,0,.13,0,.27,.02,.41,.03,.47,.03,1.06,.08,1.61-.02,.3-.05,.54-.25,.66-.53,.11-.28,.08-.59-.1-.84-.08-.11-.17-.21-.25-.29,0,0-.03-.03-.04-.04-.02-.15,.02-.43,.05-.61,.03-.21,.05-.42,.06-.6,.01-.42-.02-.85-.04-1.23-.02-.3-.04-.6-.04-.9,0-.49,.05-1.02,.11-1.53l.05-.51c.08-.88,.35-1.73,.72-2.29,.25-.39,.52-.52,1.06-.52,.08,0,.17-.01,.24-.04l.26-.08c.55-.17,.81-.23,1.09-.15l.89,.27c.19,.06,.19,.06,.25,.15,.06,.09,.1,.18,.15,.29l.02,.04c.09,.18,.18,.38,.3,.56,.14,.22,.23,.45,.25,.65l.06,.53c.04,.31,.07,.64,.08,.95,.01,.87-.02,1.75-.05,2.61v.05c-.02,.54-.04,1.09-.05,1.63,0,.2-.03,.4-.05,.59-.02,.16-.04,.32-.05,.48-.01,.16-.02,.33-.02,.61,0,.2-.02,.82,.62,1.16,.57,.31,1.34,.34,2.08,.35,.07,0,.13,0,.2-.01,.11,0,.21-.01,.35-.03,.12-.02,.24-.03,.34-.02,.03,0,.08,.02,.14,.04h.03c.07,.03,.13,.05,.21,.07,.07,.02,.14,.03,.21,.03,.38,0,.71-.24,.83-.6,.43-1.29,.53-2.65,.6-3.92,0-.2,.02-.39,.03-.59v-.19c.02-.43,.04-.88,.08-1.31l.03-.27c.05-.47,.1-.95,.05-1.5Zm-4.02,6.33c0-.12,.02-.23,.04-.35v-.05c.04-.26,.07-.51,.07-.78,0-.54,.03-1.07,.05-1.6,.03-.9,.06-1.82,.05-2.75,0-.41-.06-.84-.1-1.19l-.05-.43c-.06-.61-.32-1.12-.53-1.43-.06-.1-.11-.21-.17-.32l-.02-.04c-.08-.18-.17-.35-.27-.51-.34-.54-.74-.75-1.23-.89l-.89-.27c-.81-.25-1.5-.03-2.11,.16l-.13,.04c-1.06,.04-1.82,.46-2.38,1.31-.74,1.13-.95,2.53-1,3.08l-.05,.46c-.06,.57-.12,1.15-.12,1.74,0,.34,.02,.68,.04,1.03v.05c.03,.33,.05,.67,.04,1,0,.12-.02,.25-.04,.38v.04c-.04,.25-.08,.53-.07,.82-.15-.01-.3-.02-.45-.03-.22-.01-.44,0-.68,0-.23,0-.49,0-.73-.01,0-.1,0-.2-.01-.28l-.09-.94c-.13-1.39-.26-2.83-.32-4.22-.02-.63,0-1.26,.04-1.95,.02-.34,.03-.69,.04-1.03,.05-1.91,.23-3.79,.41-5.54,.02,0,.04,0,.06,0,.58,0,1.14,.09,1.63,.26,0,.04,.01,.08,.02,.11,.01,.09,.03,.17,.04,.24,.06,.28,.04,.57,.03,.88,0,.16-.01,.31-.01,.47,0,.37,.22,.69,.57,.82,.56,.21,1-.16,1.28-.39,.18-.11,.38-.17,.66-.22,.74-.16,1.51-.21,2.28-.13,.96,.09,1.86,.17,2.79,.47l.15,.05c.24,.08,.47,.15,.63,.24,.21,.13,.47,.4,.68,.62l.16,.17c.09,.09,.19,.18,.29,.27l.03,.03c.08,.07,.17,.15,.23,.23,.19,.22,.35,.57,.51,.9l.03,.07c.05,.11,.1,.21,.15,.31,.46,.88,.61,2.04,.69,2.96,.03,.39,0,.76-.05,1.19l-.03,.26c-.05,.49-.06,.98-.08,1.46,0,.24-.02,.47-.03,.7-.05,.89-.11,1.83-.31,2.73-.16,0-.33,.02-.53,.04-.11,.01-.17,.02-.31,.03-.21,0-.63,0-.95-.05,0-.06,0-.11,.01-.17Z"/>
</svg>