<?xml version="1.0" encoding="UTF-8"?>
<svg id="Layer_5" data-name="Layer 5" xmlns="http://www.w3.org/2000/svg" viewBox="0 0 24 24">
  <path d="M7.51,7.26c.09,.65,.18,1.39,.62,2.06,.85,1.31,2.56,2.84,4.6,2.84,.37,0,.73-.05,1.08-.15,1.33-.39,2.27-1.55,2.61-2.04,.52-.74,1.4-2.19,1.46-3.66,.04-.82-.17-1.64-.35-2.36l-.03-.1c-.16-.65-.38-1.18-.67-1.63-.27-.42-.62-.65-.87-.8-.05-.22-.19-.41-.38-.53-.07-.04-.14-.09-.21-.14l-.04-.03c-.34-.23-.77-.52-1.31-.61l-.37-.06c-.45-.08-.76-.07-1.16-.01h-.11c-.33,.06-.71,.1-1.12,.29-.4,.19-.83,.49-1.28,.91-.16,.14-.31,.29-.48,.43l-.07,.06c-.14,.12-.27,.24-.41,.37-.67,.62-.95,1.39-1.17,2l-.08,.22c-.14,.38-.29,.77-.34,1.24-.05,.44-.03,.93,.04,1.48l.03,.22Zm1.67-1.51c.03-.26,.13-.52,.24-.83l.08-.23c.21-.58,.38-1,.71-1.31,.15-.14,.3-.27,.45-.4,.17-.15,.34-.3,.5-.45,.31-.28,.6-.5,.83-.6,.16-.08,.35-.1,.6-.13l.12-.02c.14-.02,.24-.03,.33-.03,.09,0,.17,0,.28,.03,.07,.01,.14,.02,.21,.03l.16,.02c.04,.25,.18,.46,.39,.6,.22,.14,.44,.25,.66,.34,.33,.15,.5,.23,.6,.39,.18,.28,.33,.64,.44,1.1l.03,.1c.16,.63,.32,1.29,.3,1.85-.03,.74-.46,1.76-1.14,2.73-.38,.53-1.01,1.17-1.67,1.36-1.41,.41-2.92-.73-3.72-1.96-.22-.34-.28-.83-.35-1.34l-.03-.23c-.06-.41-.07-.75-.04-1.05Z"/>
  <path d="M22.91,22.73l-.03-.11c-.39-1.55-.79-3.15-1.69-4.6-.47-.75-1.1-1.33-1.54-1.7-1.95-1.64-4.5-2.68-7.01-2.85-.52-.03-1.2-.05-1.94,.1-.47,.1-.89,.26-1.31,.42-.18,.07-.37,.14-.55,.21l-.4,.14c-.83,.28-1.7,.57-2.52,1-.52,.28-.93,.67-1.29,1l-.14,.13c-.12,.12-.25,.22-.4,.35-.22,.19-.5,.42-.73,.67-.69,.75-1.11,1.64-1.49,2.5-.06,.14-.13,.28-.21,.44-.2,.42-.41,.86-.53,1.35-.2,.79,.07,1.31,.82,1.52,1.05,.31,2.05,.4,3.05,.29,1.05-.11,2.13-.04,3.2,.04,1.46,.1,2.78,.15,4.04,.15h.05c.64,0,1.29,.04,1.93,.09,.55,.04,1.11,.07,1.67,.08,1.21,.02,2.41,0,3.62,.03,.12,0,.25,0,.38,0,.53,0,.96-.04,1.36-.11l.32-.07c.08-.02,.15-.03,.22-.04,.16,.05,.33,.06,.49,.02,.47-.12,.75-.59,.63-1.06Zm-1.99-.56c-.47,.09-.98,.09-1.37,.08-1.21-.02-2.42,0-3.62-.03-.53-.01-1.07-.05-1.59-.08-.66-.04-1.35-.09-2.05-.09v0c-.44-.02-.87-.03-1.32-.04-.84-.02-1.71-.04-2.64-.11-1.13-.08-2.29-.16-3.51-.03-.59,.06-1.19,.03-1.82-.1,.08-.19,.17-.38,.27-.59l.02-.04c.07-.14,.13-.28,.2-.42,.33-.75,.67-1.47,1.17-2.02,.17-.18,.36-.35,.55-.51l.02-.02c.16-.13,.32-.27,.47-.41l.15-.14c.3-.29,.59-.56,.89-.72,.7-.37,1.45-.62,2.26-.89l.41-.14c.21-.07,.42-.15,.64-.24,.35-.14,.68-.27,1.01-.33,.42-.09,.86-.11,1.47-.07,2.14,.14,4.33,1.03,6,2.44,.55,.47,.93,.88,1.18,1.28,.58,.93,.92,1.97,1.25,3.22h-.04Z"/>
</svg>