
<svg id="Layer_5" data-name="Layer 5" xmlns="http://www.w3.org/2000/svg" viewBox="0 0 24 24" fill="white">
  <path d="M23.97,6.7c-.09-.7-.37-1.32-.8-1.78-.54-.58-1.47-.66-2.22-.66-.09,0-.18-.01-.26-.02h-.05c-.21-.03-.45-.05-.69-.05-.55,.03-1,.26-1.41,.45-.13,.06-.25,.12-.38,.17-1.27,.51-2.35,1.13-3.23,1.84-.41,.33-.77,.69-1.17,1.09h0c-.06-.08-.12-.16-.19-.25-.3-.4-.62-.82-1.02-1.2-1.39-1.29-2.72-2.18-3.95-2.67-1.53-.6-3.42-.78-4.92-.46-.77,.16-1.37,.57-1.91,.94l-.13,.08c-.78,.53-1.32,1.26-1.51,2.06-.38,1.55,.16,2.87,.68,3.98,.71,1.5,1.87,2.78,3.54,3.93,.33,.23,.66,.48,.98,.74l.45,.35c.22,.17,.46,.33,.67,.47l.03,.02c.23,.15,.46,.31,.67,.49,.17,.14,.34,.29,.5,.43l.08,.07c.37,.33,.69,.6,1.04,.86,.43,.32,.93,.71,1.38,1.17,.12,.13,.24,.26,.37,.4,.21,.23,.42,.47,.66,.69-.06,.2-.05,.42,.04,.61,.14,.32,.45,.52,.8,.52,.12,0,.24-.03,.35-.08,1.62-.72,3-1.61,4.21-2.72l.33-.3c.27-.24,.55-.49,.81-.77,.06-.06,.13-.12,.21-.18l.03-.02c.11-.09,.23-.17,.33-.27,.16-.14,.3-.3,.44-.47l.03-.03c.1-.11,.19-.22,.3-.31,.87-.79,1.57-1.61,2.09-2.44,.11-.17,.23-.32,.37-.49l.03-.03c.16-.19,.31-.38,.44-.57,.25-.37,.44-.77,.61-1.12l.28-.56c.57-1.13,1.27-2.55,1.1-3.93Zm-3.61-.74h.05c.17,.03,.35,.05,.53,.05,.74,0,.94,.11,.95,.11,.18,.19,.3,.48,.34,.81,.11,.86-.47,2.01-.93,2.93l-.28,.58c-.15,.31-.3,.63-.48,.9-.1,.14-.2,.27-.32,.41l-.02,.03c-.17,.21-.37,.45-.53,.71-.43,.69-1.02,1.38-1.77,2.06-.17,.15-.31,.31-.47,.5l-.02,.03c-.1,.11-.19,.21-.29,.31-.05,.05-.11,.09-.17,.14l-.03,.03c-.14,.11-.31,.24-.46,.39-.21,.22-.44,.43-.67,.63l-.39,.35c-.81,.74-1.7,1.37-2.71,1.91-.02-.02-.05-.04-.07-.06-.27-.2-.52-.47-.78-.76-.14-.15-.27-.31-.42-.46-.54-.56-1.11-1-1.59-1.36-.31-.23-.61-.49-.89-.74l-.04-.03c-.21-.18-.41-.36-.62-.53-.26-.21-.53-.4-.83-.6l-.03-.02c-.19-.13-.37-.25-.55-.39l-.43-.34c-.32-.25-.69-.54-1.08-.81-1.41-.96-2.37-2.02-2.95-3.23-.52-1.1-.79-1.92-.57-2.82,.09-.37,.38-.74,.79-1.02l.13-.09c.44-.3,.85-.58,1.28-.67,.37-.08,.79-.12,1.22-.12,.93,0,1.89,.17,2.7,.49,1.02,.4,2.17,1.18,3.4,2.32,.29,.27,.55,.61,.83,.98l.04,.05c.12,.16,.24,.32,.37,.48l.07,.08c.03,.19,.11,.37,.25,.5,.21,.2,.49,.3,.76,.24,.49-.08,.86-.44,1.24-.84l.15-.15c.33-.33,.64-.64,.98-.91,.75-.6,1.68-1.13,2.79-1.58,.16-.06,.33-.14,.49-.23,.27-.13,.55-.27,.75-.28,.1,0,.2,0,.31,.02Z" fill="white" />
</svg>