
<svg id="Layer_5" data-name="Layer 5" xmlns="http://www.w3.org/2000/svg" viewBox="0 0 24 24" fill="white">
  <path d="M23.69,6.03c-.37-.31-.92-.26-1.23,.11l-.84,1.01c-1.18,1.44-2.41,2.92-3.77,4.19-.62,.58-1.27,1.15-1.89,1.69l-.89,.79c-.68,.6-1.42,1.2-2.2,1.78-.23,.17-.45,.34-.67,.52l-.23,.18s-.06,.05-.12,.07c-.55-.48-1.1-1.01-1.57-1.53-.25-.32-.53-.63-.8-.9-.51-.54-1.03-1.1-1.59-1.71-.24-.26-.5-.51-.77-.77l-.04-.04c-.23-.22-.47-.44-.65-.65-.2-.25-.4-.5-.65-.8-.24-.24-.48-.46-.7-.64-.17-.15-.34-.31-.5-.48-.25-.24-.47-.46-.72-.67-.13-.11-.27-.22-.4-.32l-.04-.03c-.21-.16-.42-.33-.62-.52-.24-.23-.5-.4-.73-.55-.2-.13-.4-.25-.52-.39-.32-.36-.88-.39-1.24-.07-.36,.32-.39,.88-.07,1.24,.28,.31,.59,.51,.88,.7,.18,.11,.34,.22,.46,.33,.25,.24,.52,.45,.76,.64,.13,.1,.26,.21,.39,.31,.2,.17,.39,.35,.57,.53l.05,.05c.18,.17,.37,.36,.59,.56,.18,.15,.38,.33,.54,.48,.19,.24,.39,.47,.61,.75,.25,.28,.51,.53,.82,.83,.23,.22,.46,.44,.68,.67,.51,.57,1.05,1.14,1.64,1.76,.24,.24,.47,.49,.72,.81,.65,.71,1.35,1.38,2.08,2,.16,.13,.36,.2,.56,.2h.07c.83-.07,1.18-.31,1.47-.55l.14-.11c.22-.17,.43-.34,.65-.51,.82-.61,1.6-1.24,2.31-1.88l.83-.73c.65-.57,1.33-1.16,1.99-1.78,1.44-1.35,2.71-2.88,3.93-4.36l.83-1c.31-.37,.26-.92-.11-1.23Z" fill="white" />
</svg>