
<svg id="Layer_5" data-name="Layer 5" xmlns="http://www.w3.org/2000/svg" viewBox="0 0 24 24.03" fill="white">
  <path d="M18.96,1.2c-.03-.24-.17-.46-.36-.61-.19-.14-.42-.2-.62-.16-.02,0-.05,0-.07,.01-.09-.06-.19-.1-.3-.12-.84-.16-1.7-.27-2.57-.32-.17,0-.36,.04-.51,.13-.13,.08-.44,.12-.71,.15-.31,.04-.67,.08-1.01,.21-.57,.21-1,.55-1.38,.87-.14,.11-.28,.22-.47,.36-.5,.35-1.13,.79-1.48,1.48-.45,.88-.69,1.82-.68,2.73,0,.24-.01,.47-.03,.71v.04c-.02,.29-.04,.55-.04,.82-.07,0-.14-.01-.2-.02h-.09c-.18-.04-.39-.06-.62-.05-.28,.02-.51,.09-.72,.15l-.2,.06c-.21,.06-1.28,.39-1.66,1.09-.23,.41-.2,.86-.18,1.19,0,.07,0,.13,0,.18,0,.46,.04,.9,.09,1.33l.03,.33c.04,.39,.05,.8,.07,1.2l.02,.4c.01,.29,.17,.56,.42,.71,.25,.15,.55,.17,.82,.05,.36-.16,.77-.21,1.25-.26l.36-.04c.07,0,.19-.02,.32-.04-.12,.77-.12,1.69,0,2.79,.05,.48,.04,.99,.04,1.53v.94c-.01,.88-.02,1.79,.16,2.68,.02,.11,.03,.21,.04,.32v.05c.04,.48,.14,1.77,1.62,1.79,.22,0,.44,0,.67-.01,.46-.02,.89-.03,1.25,.05,.19,.05,.38,.07,.58,.07,.16,0,.3-.01,.46-.03h.04c.07,0,.13-.02,.21-.02,.37-.02,.69-.27,.79-.63,.1-.37,.01-.67-.06-.91-.03-.15-.03-.35-.03-.56v-2.84c0-1.3,.07-2.31,.24-3.29,.03-.16,.05-.32,.07-.47v-.04c.03-.21,.06-.41,.11-.62,.02-.07,.04-.16,.05-.25v-.04s.01-.02,.02-.03c.26-.02,.53-.04,.81-.05,.09,0,.19,0,.28,0h.08c.25,.02,.51,.03,.78,0,.09-.01,.18-.03,.28-.07,.45,.03,.87-.29,.93-.76,.04-.27,.04-.54,.05-.84,0-.21,.01-.42,.04-.63,.06-.44,.06-.85,.06-1.25v-.21s0-.26,0-.26c0-.23,.01-.46,0-.68-.05-.5-.21-.86-.84-1.08-.63-.22-1.3-.14-1.9-.08h-.07c-.14,.02-.28,.04-.41,.05-.06,0-.06,0-.18-.09,.02-.53,.12-.88,.44-1.45l.07-.13c.16-.28,.37-.67,.56-.83,.35-.3,.68-.34,1.29-.17,.2,.06,.4,.12,.61,.15,.47,.07,.92-.27,.99-.74l.09-.62c.09-.56,.18-1.14,.24-1.7,.02-.2,.02-.4,.02-.61,0-.11,0-.21,0-.31,0-.02,0-.04,.01-.06v-.03s0,0,0,0c.03-.15,.08-.37,.04-.62Zm-5.39,4.71l-.07,.12c-.4,.72-.66,1.37-.67,2.38,0,.6,.13,.88,.62,1.26,.31,.24,.69,.54,1.4,.5,.18,0,.38-.03,.58-.05h.04c.26-.03,.51-.07,.76-.05,0,.03,0,.07,0,.1v.31s0,.22,0,.22c0,.33,0,.68-.04,1-.04,.28-.05,.55-.05,.8-.07,0-.14,0-.2,0-.18-.01-.35-.02-.52-.01-.36,.01-.75,.03-1.13,.08-.17,.02-.43,.04-.67,.2-.48,.32-.59,.88-.67,1.25l-.03,.16c-.08,.31-.12,.61-.15,.89-.02,.13-.03,.26-.05,.39-.18,1.08-.26,2.18-.26,3.58v2.82c0,.11,0,.24,0,.37-.28-.05-.59-.08-.96-.08-.2,0-.4,0-.59,.01-.15,0-.3,0-.47,0,0-.06-.01-.12-.01-.17-.01-.17-.03-.38-.07-.57-.14-.72-.14-1.54-.13-2.33v-.94c.02-.56,.03-1.14-.04-1.73-.14-1.34-.09-2.32,.16-3,.11-.31,.04-.66-.18-.9-.58-.62-1.59-.49-2.26-.4l-.31,.04c-.18,.02-.39,.04-.6,.07-.01-.2-.03-.4-.04-.59l-.04-.38c-.04-.38-.08-.74-.07-1.11,0-.09,0-.19-.01-.3,0-.09,0-.17-.02-.23,.11-.08,.36-.21,.56-.26,.09-.02,.17-.05,.27-.08,.12-.04,.23-.07,.31-.08,.06,0,.16,0,.26,.02h.05c.14,.02,.27,.04,.41,.05,.05,0,.1,0,.16,.02h.04c.28,.04,.62,.09,.95,0,.35-.09,.6-.38,.65-.73,.03-.25,.03-.51,.02-.77v-.24c0-.25,.01-.49,.03-.73,.02-.28,.04-.57,.03-.87,0-.63,.17-1.29,.49-1.92,.16-.31,.56-.59,.98-.89,.19-.13,.36-.27,.53-.4,.31-.25,.58-.47,.88-.58,.15-.06,.38-.08,.64-.12,.35-.04,.75-.1,1.13-.26,.66,.05,1.32,.13,1.97,.25,0,.08,0,.17,0,.25v.04c0,.12,0,.24,0,.35-.04,.43-.11,.86-.17,1.3-.18-.03-.35-.05-.52-.05-.77,0-1.37,.21-1.92,.69-.43,.37-.72,.9-.96,1.32Z" fill="white" />
</svg>