<?xml version="1.0" encoding="UTF-8"?>
<svg id="Layer_5" data-name="Layer 5" xmlns="http://www.w3.org/2000/svg" viewBox="0 0 24 24">
  <path d="M23.99,6.01c0-.06-.87-2.55-1.55-3.77l-.16-.38-.05,.02c-.17-.24-.3-.38-.44-.42-.12-.04-.24-.05-.36-.04-.64-.68-1.66-.44-2.12-.33l-.12,.03c-.11,.03-.24,.03-.36,.04h-.05c-.26,.01-.56,.03-.88,.12-.39,.12-.73,.31-1.03,.49l-.05,.03c-.15,.09-.3,.17-.45,.24l-.32,.13c-.47,.19-.96,.39-1.53,.85-.51,.42-.98,.83-1.14,1.37-.22,.75,.19,1.15,.4,1.35,.11,.12,.2,.24,.3,.38,.31,.44,.78,1.11,1.85,1.11,.04,0,.08,0,.14,0h.14s.01,0,.02,0c.02,.16,0,.43,0,.62,0,.16-.02,.31-.02,.45,0,.36-.04,.71-.09,1.06l-.03,.27c-.03,.25-.04,.48-.05,.77-.02,.33-.03,.64-.1,.93-.08,.37-.24,.74-.41,1.15l-.12,.29c-.2,.48-.38,.96-.55,1.43l-.03,.07c-.16,.44-.33,.89-.52,1.35-.09,.22-.21,.5-.34,.78-.08-.25-.15-.49-.21-.73-.12-.48-.2-.98-.27-1.46v-.05c-.1-.57-.2-1.22-.37-1.84-.16-.59-.36-1.18-.53-1.71-.18-.53-.36-1.08-.51-1.64-.08-.32-.14-.66-.2-1-.13-.74-.26-1.51-.63-2.22-.16-.3-.28-.61-.4-.91-.22-.53-.44-1.08-.8-1.61l-.11-.18c-.15-.24-.32-.51-.53-.7-.64-.56-1.24-.22-1.43-.11l-.15,.08c-.49,.24-1.01,.49-1.52,.91-.08,.06-.19,.12-.32,.18-.14,.06-.29,.14-.45,.24-.32,.2-.63,.44-.9,.66l-.31,.24c-.28,.21-.58,.41-.87,.59l-.05,.03c-.42,.27-.84,.54-1.25,.88C1.08,6.92,.38,7.77,.06,8.58c-.1,.25-.08,.55,.07,.78s.39,.39,.67,.41c1.23,.12,2.38-.17,3.5-.44l.12-.03c.21-.05,.42-.1,.63-.15,.3-.07,.47-.08,.55-.08,.18,.34,.36,.74,.52,1.1,.1,.23,.15,.54,.21,.88,.04,.23,.08,.48,.14,.71,.08,.3,.18,.58,.31,.93,.08,.2,.15,.4,.21,.61,.04,.15,.07,.31,.1,.47v.05c.06,.29,.12,.66,.26,1.01l.08,.21c.1,.25,.18,.46,.24,.73,.26,1.07,.65,1.95,1.07,2.88,.15,.33,.34,.54,.49,.71l.02,.02h0c.06,.06,.11,.12,.16,.19,.03,.04,.06,.23,.08,.32,.05,.28,.12,.63,.34,.96,.53,.8,1.08,1.42,1.63,1.82,.34,.25,.74,.37,1.17,.37,.76,0,1.48-.38,2-.65l.21-.11c.42-.22,.82-.43,1.25-.72,.42-.28,.72-.58,1.02-.88,.1-.11,.21-.21,.33-.32l.46-.43c.51-.47,1.09-1,1.6-1.61,.54-.64,.98-1.33,1.42-2l.22-.33c.56-.86,1.04-1.83,1.41-2.8,.1-.26,.2-.53,.31-.8,.24-.61,.51-1.29,.71-1.97,.25-.85,.41-1.9,.44-2.8,0-.21,0-.42,0-.62v-.12c0-.12,0-.24,0-.35v-.1c.01-.13,.02-.3,0-.43ZM3.91,7.63c-.41,.1-.83,.2-1.24,.28,.17-.17,.37-.34,.57-.51,.33-.27,.7-.51,1.08-.76,.35-.22,.7-.45,1.04-.71l.36-.28c.23-.19,.48-.38,.72-.53,.09-.05,.17-.09,.28-.14,.2-.1,.43-.21,.67-.4,.31-.25,.63-.42,1.04-.62v.02c.07,.08,.11,.16,.16,.22,.26,.39,.44,.83,.63,1.3,.12,.31,.28,.69,.47,1.05,.24,.47,.35,1.08,.47,1.75,.07,.37,.13,.75,.23,1.11,.15,.59,.35,1.18,.54,1.75,.17,.52,.35,1.05,.5,1.6,.14,.54,.23,1.09,.33,1.68,.08,.51,.17,1.08,.31,1.64,.1,.43,.23,.82,.41,1.37l.05,.18c.15,.53,.28,.95,.6,1.25,.31,.29,.8,.31,1.14,.05,.81-.64,1.27-1.66,1.68-2.65,.19-.47,.37-.94,.54-1.4,.17-.47,.35-.96,.56-1.44l.12-.28c.19-.45,.38-.91,.5-1.44,.1-.45,.12-.86,.14-1.25v-.07c.01-.19,.02-.37,.04-.56l.03-.26c.05-.38,.1-.82,.1-1.28,0-.1,0-.22,.02-.35,.03-.43,.06-.92-.11-1.39-.38-1.06-1.43-1.08-1.86-1.08h-.06c-.13,.01-.17,.01-.43-.37-.09-.12-.18-.26-.3-.4,.13-.13,.31-.27,.45-.39l.04-.03c.29-.24,.61-.37,1-.53l.35-.14c.24-.1,.45-.22,.71-.37,.23-.13,.45-.26,.64-.32,.12-.04,.29-.04,.46-.05,.24-.01,.47-.03,.71-.08l.15-.04c.23-.06,.39-.09,.48-.09,.17,.21,.42,.33,.68,.33,.39,.88,1.2,2.75,1.37,3.23v.27c-.01,.13-.01,.26-.01,.4v.12c0,.18,0,.36,0,.54-.03,.77-.17,1.66-.37,2.38-.17,.58-.41,1.19-.64,1.79v.03c-.12,.28-.23,.55-.33,.83-.32,.85-.75,1.7-1.24,2.45l-.22,.34c-.42,.65-.82,1.27-1.29,1.83-.44,.53-.95,.99-1.44,1.44l-.48,.44c-.13,.12-.25,.24-.38,.38-.25,.25-.48,.47-.74,.65-.35,.23-.69,.41-1.1,.63l-.23,.12c-.35,.18-1.07,.56-1.3,.39-.38-.28-.79-.73-1.19-1.36-.03-.05-.06-.21-.09-.34-.05-.28-.12-.62-.34-.95-.11-.16-.22-.29-.34-.42-.11-.12-.16-.18-.2-.27-.4-.88-.74-1.64-.96-2.55-.09-.38-.2-.68-.32-.99l-.06-.16c-.07-.19-.11-.43-.16-.69-.04-.25-.08-.47-.14-.69-.07-.26-.17-.52-.27-.79l-.02-.05c-.08-.22-.16-.43-.22-.65-.04-.17-.07-.36-.1-.54v-.03c-.07-.4-.15-.86-.34-1.3-.18-.42-.39-.9-.63-1.33-.3-.53-.82-.8-1.55-.8-.26,0-.56,.04-.88,.11-.24,.05-.48,.11-.74,.17Zm1.74,1.32s0,0,0,0h0Z"/>
</svg>