<?xml version="1.0" encoding="UTF-8"?>
<svg id="Layer_5" data-name="Layer 5" xmlns="http://www.w3.org/2000/svg" viewBox="0 0 24 24">
  <path d="M23.7,6.44c-.22-.17-.49-.23-.74-.16-.02,0-.09,0-.37-.11l-.19-.07c-.2-.07-.39-.12-.57-.16,0-.05,0-.1,.01-.15l.02-.22c.03-.31,.06-.56,.12-.87,.06-.24,.15-.63-.03-1.02-.17-.37-.56-.57-.96-.49-.5,.1-1.04,.46-1.64,1.12-.16,.17-.27,.38-.38,.58-.02,.04-.05,.09-.08,.14-.36-.2-.75-.39-1.31-.49-1.99-.35-4,.09-5.37,1.18-.59,.47-1.02,1.14-1.32,1.68l-.04,.07,.05,.03c-.06-.02-.12-.05-.19-.07-1.05-.33-2.17-.72-3.25-1.33l-.36-.2c-.19-.1-.39-.21-.57-.33-.08-.05-.15-.11-.22-.17l-.03-.02c-.15-.13-.31-.26-.49-.37l-.16-.11c-.79-.54-1.35-.88-1.94-.64-.27,.11-.47,.35-.52,.64-.06,.34,.02,.61,.09,.84,.02,.08,.02,.15,.04,.26,.02,.17,.04,.33,.08,.49,.2,.84,.51,1.44,.96,2.13,.15,.24,.32,.47,.5,.7-.13-.02-.25-.04-.37-.07-.08-.02-.15-.04-.24-.07-.22-.07-.5-.15-.83-.15-.3,.03-.52,.13-.67,.31-.17,.2-.24,.47-.18,.74,.1,.46,.45,.79,.77,1.08,.72,.67,1.38,1.13,2.03,1.4,.1,.04,.2,.08,.31,.12-.04,.01-.09,.03-.13,.04-.37,.12-.62,.47-.61,.86,.03,.79,.7,1.22,1.39,1.49-.16,.02-.32,.04-.47,.07h-.05c-.15,.03-.29,.06-.44,.06h-.27c-.65,.05-.85,.01-.91-.02-.37-.22-.84-.14-1.12,.19-.28,.33-.27,.81,.02,1.14,.01,.02,.03,.03,.04,.05-.01,0-.02,0-.03,0-.62,.04-1.25-.1-1.93-.23l-.09-.02c-.45-.1-.91,.17-1.04,.6-.13,.43,.07,.87,.47,1.04,.03,.03,.07,.08,.14,.14,.47,.45,1.07,1.01,1.9,1.19,.01,0,.03,0,.04,0,.38,.23,.8,.46,1.28,.64,1.03,.39,1.86,.61,2.77,.75,.66,.1,1.33,.15,2.01,.15,1.71,0,3.41-.33,4.91-.95,.56-.23,1.21-.51,1.83-.83,.42-.22,.76-.49,1.08-.76l.29-.23c.85-.67,1.58-1.42,2.3-2.36,.57-.74,.96-1.54,1.38-2.39,.15-.31,.27-.62,.39-.93,.07-.17,.13-.35,.22-.52,.06-.08,.15-.2,.21-.35,.03-.08,.05-.15,.06-.23l.08-.77v-.14c.03-.47,.05-.94,.08-1.37,.53-.25,1.07-.51,1.58-.79,.68-.11,.95-.63,.97-1.04,.01-.29-.1-.56-.32-.73ZM6.04,17.5c.05-.21,.03-.43-.07-.62,.05,0,.11-.02,.16-.03h.04c.14-.03,.28-.05,.41-.06h.18c.65-.04,1.38-.08,2.1-.41,1.35-.62,1.43-1.06,1.48-1.3,.06-.3-.05-.61-.28-.82-.4-.36-.86-.28-.99-.25-.17,0-.42-.08-.66-.16-.16-.05-.32-.1-.47-.14l-.11-.03s.02,0,.03-.01l.2-.09c.2-.09,.46-.2,.67-.35,.23-.17,.37-.44,.37-.72,0-.29-.15-.55-.38-.71-.3-.2-.64-.25-.89-.29h-.04c-.06-.01-.11-.02-.16-.04l-.49-.15c-.27-.08-.54-.17-.8-.26,.25-.02,.5-.05,.75-.08,.41-.04,.73-.38,.77-.79s-.22-.8-.61-.92c-.08-.03-.14-.09-.27-.24-.07-.08-.14-.16-.21-.23-.35-.34-.69-.75-.94-1.14-.19-.29-.34-.55-.46-.81,.06,.05,.12,.09,.18,.13,.24,.16,.49,.31,.76,.45l.31,.17c1.23,.7,2.51,1.15,3.6,1.49,.05,.02,.1,.04,.14,.05,.23,.09,.71,.29,1.25,.03,.45-.21,.66-.61,.84-.92,.22-.39,.53-.88,.89-1.17,.98-.78,2.47-1.09,3.97-.83,.32,.06,.54,.18,.99,.42,.15,.09,.44,.26,.86,.23,.31-.03,.56-.16,.75-.33-.02,.18,.02,.35,.11,.51,.11,.2,.3,.34,.52,.41-.08,.04-.16,.07-.24,.11-.3,.13-.5,.41-.52,.73-.05,.56-.08,1.24-.11,2l-.06,.56c-.05,.07-.11,.16-.16,.28-.08,.19-.15,.38-.24,.6-.1,.25-.2,.52-.35,.84-.37,.74-.71,1.43-1.17,2.03-.63,.82-1.27,1.47-2,2.05-.09,.07-.17,.14-.26,.21l-.06,.05c-.25,.21-.5,.42-.77,.56-.58,.3-1.21,.56-1.69,.76-1.83,.75-3.96,1-6,.68-.79-.12-1.52-.32-2.42-.66-.11-.04-.21-.09-.33-.14,.13-.02,.26-.04,.37-.04,0,0,.02,0,.03,0,.18,0,.37,.01,.55,.04,.44,.04,.83-.23,.94-.65ZM10.96,7.51h.01s-.01,0-.01,0h0Z"/>
</svg>