<?xml version="1.0" encoding="UTF-8"?>
<svg id="Layer_5" data-name="Layer 5" xmlns="http://www.w3.org/2000/svg" viewBox="0 0 24 24">
  <path d="M22.03,1.78c-.06-.23-.2-.42-.4-.53-.2-.12-.44-.15-.66-.09-.23,.06-.42,.2-.53,.4-2.54,4.33-5.25,8.64-7.8,12.67-.23,.37-.47,.74-.71,1.11-1,1.54-2.03,3.14-2.8,4.87-1.44-2.1-4.22-6.42-5.23-8.03-.02-.07-.06-.14-.1-.2-.32-.5-.55-.83-1.1-.77-.33,.04-.61,.28-.72,.6-.06,.18-.08,.31,.08,.66l-.03,.02,.07,.1s.05,.07,.09,.14c.35,.63,1.09,1.77,2.88,4.54,3.15,4.86,3.52,5.21,3.68,5.36,.16,.15,.38,.24,.6,.24,.07,0,.14,0,.21-.03,.29-.07,.52-.29,.62-.57,.7-2.12,1.97-4.08,3.2-5.99l.04-.07c.23-.35,.45-.71,.68-1.06,2.56-4.05,5.27-8.37,7.83-12.72,.12-.2,.15-.44,.09-.67Z"/>
</svg>