
<svg id="Layer_5" data-name="Layer 5" xmlns="http://www.w3.org/2000/svg" viewBox="0 0 24 24" fill="white">
  <path d="M23.66,16.19c-.03-1.01-.1-2.02-.18-3.02-.08-1.07-.17-2.18-.18-3.26,0-.58-.03-1.17-.04-1.78-.02-.5-.03-1-.04-1.5,0-.47-.06-.94-.1-1.36-.03-.33-.07-.67-.08-1.01-.05-1.04-.41-1.8-.8-2.6l-.19-.39c-.13-.28-.39-.47-.7-.5-.09-.06-.18-.12-.25-.17l-.14-.09c-.56-.39-1.05-.46-1.5-.48-1.04-.04-2.28-.07-3.47,.03-2.03,.18-4.43,.37-6.83,.46-.39,.01-.79,.02-1.18,.02-1.15,0-2.33,.02-3.53,.3-.63,.15-1.35,.35-1.93,.79-.91,.7-1.51,1.85-1.8,3.42-.38,2.04-.39,4.13-.37,6.09,0,.61,0,1.23,0,1.85v.19c0,1.48-.01,3.15,.1,4.75,.1,1.46,.25,3.68,1.74,5.02,.5,.45,1.06,.74,1.73,.88,.49,.11,.95,.12,1.4,.12l.61,.02c.24,0,.49,.02,.73,.02,.16,0,.32,0,.48-.01,.28-.02,.56-.05,.83-.08h.04c.27-.04,.55-.07,.83-.08,.62-.02,1.23,0,1.8,0l.72,.02c.68,.02,1.51,.05,2.34,.03,1.59-.04,3.28-.21,5.16-.52,1.64-.27,2.99-1.15,3.79-2.48,.98-1.63,1.07-3.37,1.04-4.7ZM2.09,11.14c-.02-1.88,0-3.87,.34-5.76,.21-1.13,.59-1.92,1.15-2.35,.3-.23,.81-.37,1.27-.48,1-.24,2.03-.25,3.13-.25h.09c.38,0,.77,0,1.15-.02,2.43-.09,4.86-.28,6.91-.46,.5-.04,1.05-.06,1.68-.06,.56,0,1.11,.02,1.58,.03,.28,.01,.39,.04,.57,.16l.19,.13c.06,.04,.24,.16,.27,.18,.07,.14,.19,.26,.32,.34,.3,.64,.52,1.14,.55,1.75,.02,.37,.05,.74,.09,1.11v.04c.04,.38,.08,.78,.09,1.17,0,.46,.02,.91,.04,1.37v.17c.02,.58,.04,1.16,.05,1.73,.01,1.14,.1,2.28,.19,3.38v.08c.08,.93,.15,1.9,.18,2.84,.04,1.65-.19,2.77-.79,3.75-.53,.88-1.44,1.47-2.57,1.65-1.8,.29-3.42,.46-4.93,.5-.72,.02-1.44,0-2.24-.03l-.81-.02c-.6-.01-1.23-.03-1.84,0-.33,.01-.63,.05-1,.09-.24,.03-.49,.06-.73,.07-.3,.02-.61,0-.9,0l-.78-.02c-.38,0-.73-.01-1.05-.08-.36-.08-.66-.23-.92-.47-.96-.87-1.08-2.59-1.17-3.85-.11-1.54-.1-3.17-.09-4.62v-.19c0-.62,0-1.25,0-1.87Z" fill="white" />
  <path d="M17.77,7.93c.12,.01,.23,.02,.34,.02,.55,0,1.06-.18,1.46-.51,.52-.43,.83-1.09,.88-1.86,.01-.2,.05-.67-.13-1.08-.03-.07-.06-.14-.1-.19-.14-.22-.34-.38-.57-.47-.5-.35-1.04-.64-1.6-.88-.34-.14-.73-.06-.98,.21-.09,.09-.18,.18-.27,.26l-.03,.03c-.36,.33-.76,.71-.98,1.36-.24,.7-.17,1.44,.2,2.03,.38,.6,1.02,1,1.78,1.09Zm-.32-2.55c.02-.07,.05-.13,.09-.19,.05,.03,.1,.06,.15,.08,.37,.17,.73,.18,1.03,.16,0,.02,0,.04,0,.06-.02,.27-.11,.49-.25,.6-.11,.09-.27,.13-.48,.1-.23-.03-.41-.13-.51-.29-.09-.15-.1-.33-.03-.53Z" fill="white" />
  <path d="M7.08,18.05c.73,1.01,1.86,1.59,3.08,1.59,.51,0,1.02-.1,1.51-.3,.67-.27,1.28-.68,1.88-1.08,.17-.12,.34-.23,.51-.33,.66-.42,1.23-.86,1.73-1.35,1.57-1.52,2.34-3.25,2.19-4.86-.07-.76-.33-1.83-.85-2.55-.35-.49-.79-.73-1.15-.93h0c.07-.43-.19-.84-.61-.97-.28-.08-.57-.19-.87-.29-1.16-.4-2.47-.86-3.8-.62-.43,.08-.89,.19-1.32,.31-.79,.22-1.37,.62-1.79,.94l-.2,.15c-.44,.33-.93,.7-1.31,1.21-.73,.98-.99,2.27-.78,3.96,.19,1.51,.56,3.46,1.79,5.14Zm.4-8.05c.23-.3,.6-.59,.96-.86l.2-.16c.45-.34,.8-.53,1.2-.65,.41-.11,.8-.21,1.16-.27,.14-.03,.29-.04,.45-.04,.77,0,1.62,.3,2.46,.59l.09,.03c.03,.19,.12,.36,.25,.5,.29,.28,.59,.45,.88,.61,.25,.14,.46,.25,.58,.42,.29,.4,.47,1.16,.53,1.69,.14,1.45-.98,2.78-1.67,3.44-.42,.4-.89,.77-1.45,1.13-.18,.11-.36,.23-.54,.36-.52,.35-1.06,.71-1.57,.92-.92,.38-1.93,.1-2.51-.7-.98-1.34-1.29-2.94-1.46-4.32-.15-1.21,0-2.09,.45-2.69Z" fill="white" />
</svg>