<?xml version="1.0" encoding="UTF-8"?>
<svg id="Layer_5" data-name="Layer 5" xmlns="http://www.w3.org/2000/svg" viewBox="0 0 24 24">
  <path d="M23.97,19.37c-.1-.38-.39-.68-.76-1.03l-.11-.11c-.41-.43-.81-.79-1.24-1.1-.59-.43-1.18-.84-1.8-1.25l-.04-.04s-.04-.02-.06-.03l-.18-.12c-.23-.15-.46-.31-.68-.45-.49-.31-.96-.65-1.43-.99-.63-.45-1.13-.8-1.62-1.1,.03-.06,.06-.13,.09-.2,.04-.05,.07-.1,.1-.16l.12-.24c.31-.61,.66-1.29,.73-2.11,.03-.29,.04-.57,.05-.86,0-.39,0-.82-.03-1.3-.09-1.75-.9-3.48-2.24-4.76-.77-.74-1.62-1.3-2.43-1.79-.42-.26-.83-.5-1.37-.64-.26-.07-.52-.11-.78-.15h-.04c-.15-.03-.31-.06-.47-.09-.49-.11-1.05-.24-1.71-.16-.59,.07-1.11,.17-1.6,.32l-.32,.1c-1.06,.33-2.16,.68-3.14,1.46l-.19,.15c-.35,.27-.74,.58-1.05,1.02-.27,.38-.51,.8-.77,1.34C.44,6.26,.21,7.49,.05,8.55c-.13,.9-.02,1.91,.34,3.09,.25,.81,.55,1.48,.91,2.05,.42,.65,.97,1.16,1.51,1.66,.16,.15,.32,.29,.47,.44,1.35,1.31,2.96,2.06,4.65,2.16,.61,.03,1.19-.06,1.7-.14l.41-.06c.69-.1,1.31-.28,1.96-.59l.13-.06c.36-.16,.68-.32,1-.53,.04,.06,.08,.12,.13,.18,.17,.22,.37,.42,.56,.63l.1,.1c.26,.28,.54,.54,.79,.77l.04,.04c.21,.2,.44,.41,.64,.62,.28,.3,.56,.61,.86,.96,.34,.38,.69,.78,1.05,1.15,.32,.33,.67,.6,1.02,.86,.28,.21,.54,.41,.76,.63,.02,.02,.05,.05,.07,.08l.02,.03c.19,.23,.6,.71,1.23,.71,.09,0,.17,0,.26-.03,.47-.1,.81-.4,1.05-.61l.13-.11c.26-.21,.51-.42,.78-.77,.27-.35,.53-.71,.84-1.13,.24-.28,.63-.74,.48-1.31Zm-1.91,.29s-.04,.05-.05,.06h0c-.26,.37-.5,.69-.74,1.01-.15,.19-.27,.3-.51,.49-.06,.05-.12,.1-.19,.16-.02,.02-.05,.05-.08,.07-.05-.06-.11-.12-.16-.18-.31-.31-.65-.57-.97-.81-.29-.22-.56-.43-.79-.66-.09-.09-.18-.19-.27-.29l-.07-.08c.5-.54,.98-1.1,1.45-1.69,.37,.26,.75,.53,1.16,.82,.33,.24,.65,.53,.99,.88,.04,.05,.11,.11,.18,.18,.01,.01,.03,.03,.05,.05Zm-10.79-4.09c-.5,.23-.95,.37-1.47,.44l-.48,.07c-.45,.07-.86,.15-1.27,.11-1.26-.07-2.48-.65-3.53-1.67-.17-.16-.34-.32-.52-.48-.47-.43-.92-.84-1.22-1.31-.27-.43-.51-.97-.71-1.62-.29-.93-.38-1.69-.28-2.32,.13-.92,.34-2,.8-2.95,.22-.45,.42-.8,.62-1.09,.16-.23,.43-.44,.71-.66l.19-.15c.73-.58,1.62-.86,2.57-1.16l.32-.1c.37-.12,.79-.2,1.26-.25,.07,0,.14-.01,.21-.01,.27,0,.56,.06,.93,.14,.19,.04,.38,.08,.61,.11h.07c.18,.04,.36,.07,.54,.12,.31,.08,.59,.25,.91,.44,.84,.51,1.52,.98,2.13,1.56,1,.96,1.64,2.3,1.7,3.58,.02,.46,.03,.84,.02,1.19,0,.26-.02,.49-.04,.72-.05,.48-.29,.96-.55,1.49-.1,.1-.18,.23-.22,.36-.17,.54-.56,1.01-.98,1.51-.15,.17-.29,.35-.43,.53-.14,.18-.29,.34-.44,.5-.09,.06-.17,.13-.22,.2l-.05,.04c-.29,.24-.64,.4-1.04,.59l-.14,.07Zm3.94,.71l-.12-.13c-.16-.17-.32-.34-.46-.51-.03-.04-.07-.09-.1-.14l-.02-.03s-.04-.07-.07-.11c.03-.04,.07-.08,.1-.12,.11-.14,.22-.27,.33-.41l.06-.07c.04-.05,.09-.11,.13-.16,.57,.35,1.11,.74,1.58,1.07,.49,.35,.99,.71,1.51,1.04l.07,.04c-.38,.47-.77,.93-1.17,1.37v-.02c-.13-.13-.25-.27-.38-.4-.24-.25-.49-.49-.74-.72l-.11,.07h0l.08-.09h0c-.22-.21-.47-.44-.7-.69Zm-3.76-.66h0Z"/>
  <path d="M10.67,4.96c-1.54-.55-2.03-.62-2.29-.6-.1,0-.39-.03-.7,.17-.41,.26-.53,.8-.27,1.21,.21,.33,.61,.48,.99,.37,.03,0,.34,.02,1.67,.5,.01,0,.12,.04,.13,.04,.08,.03,.16,.04,.24,.04,.36,0,.68-.24,.8-.61,.15-.44-.12-.95-.58-1.12Z"/>
  <path d="M5.32,5.25l-1.09,.66c-.2,.12-.34,.31-.4,.54-.06,.23-.02,.46,.1,.66,.16,.26,.44,.42,.75,.42,.16,0,.32-.04,.45-.13l1.09-.66c.2-.12,.34-.31,.4-.54,.06-.23,.02-.46-.1-.66-.25-.41-.79-.54-1.2-.29Z"/>
</svg>