
<svg id="Layer_5" data-name="Layer 5" xmlns="http://www.w3.org/2000/svg" viewBox="0 0 24 24" fill="#577590">
  <path d="M22.38,5.64c-.34-.53-.72-1.13-1.2-1.62-.13-.13-.25-.27-.39-.42-.37-.41-.79-.88-1.32-1.21-.16-.1-.33-.18-.51-.27-.08-.04-.16-.08-.25-.12-.17-.09-.33-.2-.51-.32-.16-.11-.33-.22-.49-.32-.33-.19-.66-.3-.93-.39l-.26-.09c-.12-.04-.24-.09-.35-.14-.25-.1-.54-.22-.86-.3-.34-.08-.7-.12-1.01-.16h-.04c-.19-.03-.37-.05-.56-.08-.75-.14-1.51-.16-2.14-.17-.18,0-.36-.01-.55-.02-.43-.02-.92-.05-1.45,.02-.58,.08-1.17,.21-1.7,.33l-.26,.06c-.58,.13-1.1,.43-1.52,.67-.12,.07-.24,.14-.35,.2-.41,.22-.94,.54-1.42,1.07-.92,1-1.73,2.16-2.28,3.26l-.35,.69c-.45,.87-.91,1.77-1.23,2.77-.4,1.28-.4,2.68-.4,3.92v.19c0,1.48,.04,2.81,.51,4.16,.04,.1,.07,.21,.1,.31l.02,.06c.12,.37,.25,.79,.47,1.18,.07,.13,.13,.27,.2,.46,.02,.05,.04,.13,.09,.22-.14,.41-.28,.82-.44,1.24-.1,.29-.21,.57-.25,.68l-.06,.1c-.07,.1-.14,.21-.23,.39-.09,.17-.19,.38-.24,.62-.05,.27,.04,.55,.23,.76,.19,.2,.46,.3,.74,.27,.29-.03,.59-.11,.94-.2l.26-.07c.6-.15,1.19-.36,1.87-.66l.13-.06c.27-.12,.44-.19,.48-.19,.1,.01,.33,.1,.48,.15l.44,.16c.83,.31,1.69,.62,2.62,.81,.34,.07,.6,.13,.85,.2,.55,.16,1.09,.22,1.75,.22,.21,0,.42,0,.64-.02,.23-.01,.47-.03,.7-.05,.33-.03,.66-.05,.97-.05,.37,0,.74-.03,1.18-.08l.44-.05c.12-.01,.25,0,.38,0h.07c.26,.01,.5,.02,.75,0,.47-.05,.93-.19,1.41-.44,.76-.39,1.33-.75,1.82-1.15,.99-.8,1.81-1.7,2.45-2.67,.33-.5,.53-.98,.75-1.59l.1-.27c.28-.77,.57-1.56,.78-2.41,.64-2.59,.97-6.36-1.05-9.57Zm-.65,9.15c-.19,.76-.45,1.48-.73,2.25l-.09,.25c-.18,.5-.33,.86-.57,1.23-.54,.82-1.24,1.58-2.08,2.27-.38,.31-.88,.62-1.52,.95-.29,.15-.54,.23-.8,.26-.13,.01-.27,0-.41,0h-.07c-.23-.01-.46-.02-.69,0-.16,.01-.32,.03-.47,.05h-.12c-.25,.04-.5,.07-.77,.07-.41,0-.84,.03-1.23,.06h-.06c-.19,.02-.38,.04-.57,.05-.69,.04-1.23,.02-1.82-.14-.35-.1-.7-.17-.99-.23-.78-.15-1.53-.43-2.35-.73l-.44-.16c-.25-.09-.58-.22-.92-.25-.05,0-.11,0-.16,0-.48,0-.92,.21-1.25,.36l-.1,.05c-.31,.14-.61,.26-.89,.36,0-.02,.01-.04,.02-.06,.18-.48,.36-.99,.53-1.5,.06-.17,.06-.34,.01-.51,.03-.25-.05-.49-.22-.68-.1-.26-.19-.47-.29-.65-.13-.24-.23-.56-.33-.86-.04-.14-.09-.28-.14-.42-.38-1.09-.41-2.22-.41-3.58v-.19c0-1.17,0-2.37,.32-3.4,.27-.85,.68-1.65,1.11-2.49l.04-.08c.11-.21,.22-.42,.32-.64,.48-.96,1.19-1.97,2-2.86,.24-.26,.53-.47,.96-.71,.13-.07,.26-.15,.4-.23,.36-.21,.7-.4,1.01-.47l.26-.06c.48-.11,1.03-.23,1.57-.31,.33-.05,.71-.03,1.1,0,.21,.01,.41,.02,.62,.02,.56,0,1.22,.03,1.85,.14,.23,.04,.47,.07,.71,.1h.05c.25,.04,.51,.07,.76,.13,.19,.04,.37,.12,.56,.2l.04,.02c.14,.06,.28,.12,.43,.17l.3,.1c.23,.08,.43,.14,.59,.24,.13,.08,.25,.16,.37,.24l.03,.02c.23,.15,.44,.29,.66,.41,.1,.05,.21,.11,.34,.17,.11,.05,.22,.1,.32,.17,.32,.2,.62,.53,.94,.89,.15,.16,.29,.33,.44,.48,.35,.36,.68,.88,1,1.38,1.67,2.64,1.36,5.89,.8,8.16Z" fill="#577590" />
  <path d="M16.95,13.98c-.07-.05-.13-.12-.21-.2-.11-.11-.23-.23-.36-.34-.09-.07-.19-.13-.27-.18l-.09-.06c-.45-.43-.98-.44-1.48-.03-.3,.24-.59,.55-.8,.83-.11,.15-.22,.34-.32,.52l-.04,.08c-.05,.09-.13,.24-.19,.34-.06-.04-.18-.11-.39-.27l-.31-.24c-.26-.19-.51-.37-.66-.56-.31-.41-.6-.77-.97-1.11-.64-.6-1.15-1.35-1.45-2.12,.31-.2,.56-.39,.8-.62l.14-.13c.23-.21,.59-.52,.74-.99,.32-.95-.44-1.84-.84-2.33-.48-.57-1.15-1.36-2.2-1.58-1.13-.24-1.76,.27-2.23,.8-.1,.11-.19,.23-.29,.35l-.03,.04c-.13,.16-.26,.32-.4,.47l-.12,.13c-.27,.28-.57,.59-.81,1-.16,.27-.4,.68-.39,1.14,0,.18,.04,.34,.1,.53l.06,.32c.09,.49,.19,.99,.35,1.5,.05,.15,.08,.29,.12,.43v.04c.07,.27,.15,.6,.29,.93,.17,.4,.36,.8,.54,1.19l.12,.25c.29,.61,.66,1.12,1.03,1.62l.39,.54c.34,.47,.69,.96,1.14,1.42,.51,.51,.94,.89,1.36,1.18,.97,.69,2.2,1.03,3.29,1.33l.47,.13c.08,.02,.16,.03,.24,.03,.13,0,.25-.03,.37-.08,.88,0,1.62-.11,2.32-.31,.73-.22,1.3-.49,1.83-.89,.36-.27,.89-.67,1.05-1.35,.24-1.02-.38-1.91-.82-2.55-.29-.43-.57-.83-1.06-1.22Zm-.25,3.75c-.33,.25-.72,.43-1.24,.59-.67,.2-1.41,.26-2.39,.23h-.05c-.95-.28-2.02-.58-2.74-1.08-.33-.24-.69-.55-1.13-.99-.35-.35-.65-.77-.96-1.2l-.4-.55c-.33-.45-.64-.87-.86-1.33l-.12-.25c-.17-.37-.35-.74-.51-1.12-.08-.19-.13-.41-.19-.66-.04-.19-.09-.39-.16-.6-.13-.41-.21-.83-.3-1.3l-.06-.33c-.01-.06-.03-.12-.06-.19,.02-.04,.06-.13,.15-.26,.13-.23,.34-.44,.57-.67l.13-.14c.18-.19,.34-.38,.49-.58,.09-.11,.18-.23,.28-.34,.26-.3,.3-.29,.54-.24,.44,.09,.79,.48,1.25,1.03,.27,.33,.42,.54,.48,.64-.06,.06-.18,.17-.22,.21-.07,.06-.13,.12-.19,.17-.21,.21-.43,.36-.77,.55-.99,.56-.59,1.6-.46,1.95,.37,.99,1.04,1.98,1.89,2.78,.28,.27,.51,.56,.78,.91,.3,.39,.68,.67,1.01,.91l.27,.2c.42,.33,1.12,.87,1.95,.61,.69-.22,1.03-.83,1.28-1.29l.03-.05c.05-.1,.1-.19,.16-.26,.05-.07,.11-.14,.18-.22,.05,.04,.09,.09,.13,.13l.03,.04c.11,.11,.24,.24,.38,.35,.28,.22,.46,.48,.76,.92,.24,.34,.57,.81,.5,1.08-.03,.08-.33,.3-.43,.38Z" fill="#577590" />
</svg>