<?xml version="1.0" encoding="UTF-8"?>
<svg id="Layer_5" data-name="Layer 5" xmlns="http://www.w3.org/2000/svg" viewBox="0 0 24 24">
  <path d="M23.87,7.82c.19-.69,.17-1.48-.07-2.28-.26-.9-.74-1.59-1.36-2.02-.65-.44-1.4-.57-2.1-.63-.46-.05-1.85-.17-2.8,.63-.17,.02-.32,.08-.43,.18-4.82,3.93-8.87,7.02-12.77,9.72-.04,.03-.08,.06-.12,.1-.05,.05-.1,.1-.14,.14-.02,0-.03,.02-.04,.02-.15,.09-.27,.22-.34,.38-1.42,1.54-2.61,3.37-3.43,5.29-.05,.12-.07,.25-.06,.39-.12,.15-.19,.32-.2,.5,0,.23,.07,.46,.23,.63,.16,.17,.37,.27,.61,.28,.22,0,.44,.01,.67,.01,2.22,0,4.49-.45,6.54-1.3,.13-.02,.24-.07,.33-.13,4.41-2.97,8.8-6.11,13.04-9.35,.18,.22,.5,.65,.43,.88-.05,.17-.32,.39-.5,.54-2.12,1.75-4.33,3.44-6.6,5.03-.39,.28-.49,.82-.21,1.22,.27,.38,.84,.48,1.22,.21,2.3-1.61,4.56-3.33,6.71-5.11,.35-.29,.88-.72,1.07-1.42,.2-.69,.02-1.41-.54-2.17,.06-.1,.12-.2,.18-.3,.31-.52,.55-.94,.69-1.43Zm-3.62,1.25c-3.94,3.01-8.05,5.96-12.22,8.78-.85-.97-1.63-2.02-2.39-3.21,3.68-2.57,7.47-5.46,11.93-9.07,.89,.99,1.72,2.08,2.67,3.5Zm1.94-1.72c-.07,.24-.21,.5-.42,.85-.94-1.41-1.79-2.54-2.66-3.53,.28-.06,.64-.08,1.06-.04,.47,.04,.96,.11,1.28,.33,.36,.25,.56,.72,.67,1.07,.14,.49,.17,.94,.06,1.31ZM6.37,18.59c-1.35,.45-2.76,.71-4.19,.77,.6-1.25,1.34-2.41,2.21-3.45,.64,.97,1.29,1.85,1.98,2.68Z"/>
</svg>