
<svg id="Layer_5" data-name="Layer 5" xmlns="http://www.w3.org/2000/svg" viewBox="0 0 24 24" fill="#577590">
  <path d="M23.71,5.1l-.05-.14c-.07-.21-.22-.38-.41-.48-.31-.38-.9-.5-1.47-.58-.33-.05-.67-.04-.99-.03-.12,0-.23,0-.35,0-.19,0-.39,0-.58-.02h-.12c-.32-.02-.65-.03-.98-.02-.8,.02-1.7,0-2.84-.04-.94-.03-1.9,.05-2.74,.12l-.36,.03c-.47,.04-1.02,0-1.55-.05l-.24-.02c-.29-.02-.58-.03-.9-.03h-.04c-.26,0-.54,0-.81-.03-1-.08-2-.11-3.05-.08-.32,.01-.64,0-.98,0h-.12c-1.18-.03-2.52-.06-3.74,.61l-.12,.07c-.35,.19-.88,.47-1.11,1.21C-.01,6.2-.01,6.75,.01,7.27l.06,1.23c.07,1.41,.15,2.86,.18,4.28,0,.28-.01,.57-.03,.85v.04c-.02,.28-.04,.58-.03,.86,0,.23,.02,.45,.04,.69v.05c.03,.21,.04,.42,.03,.63-.04,.58-.02,1.14,.07,1.87v.15c.04,.28,.07,.71,.3,1.08,.4,.65,1.16,.76,1.4,.79l.2,.03c.45,.06,.96,.13,1.47,.11,.56-.03,1.17-.09,1.86-.18,.41-.06,.84-.04,1.3-.01h.06c.19,.01,.38,.02,.58,.02,.53,0,1.08,.04,1.6,.08h.1c.39,.03,.79,.05,1.18,.07l1.12,.03c.67,.02,1.36,.04,2.04,.07,.5,.02,1.01,.03,1.5,.03h.19c.58,0,1.16,0,1.74,.04,.3,.02,.58,.06,.89,.11l.37,.06c.17,.02,.36,.04,.57,.04,.15,0,.3,0,.44-.01,.18,0,.37-.02,.56,0,.69,.04,1.32-.14,1.83-.28,.09-.03,.19-.05,.29-.08,.01,0,.02,.02,.04,.03,.32,.19,.76,.14,1.04-.12,.11-.1,.19-.23,.23-.38h.01c.38-.33,.47-.8,.53-1.11,.17-.84,.16-1.67,.14-2.47v-.1c0-.22,0-.45,0-.67,0-.45,0-.91-.01-1.37,0-.51-.02-1.04,0-1.55,0-.53-.03-1.04-.06-1.55-.04-.58-.08-1.14-.05-1.69,0-.14,0-.28,.01-.44,0-.14,0-.29,.02-.43,.01-.08,.02-.16,.04-.24,.03-.18,.05-.33,.07-.5,0-.06,.01-.12,.03-.21,.02-.11,.03-.22,.04-.34,.06-.71-.08-1.08-.28-1.65Zm-4.53,13.54l-.02-.12c-.25,0-.48,.02-.68,0l-.35-.05c-.33-.05-.67-.1-1.03-.13-.54-.04-1.08-.04-1.58-.04h-.31c-.52,0-1.04,0-1.56-.02-.65-.03-1.31-.05-1.96-.07l-1.24-.04c-.41-.01-.82-.04-1.24-.07-.62-.04-1.14-.07-1.68-.08-.17,0-.34-.01-.51-.02h-.07c-.48-.03-1.04-.05-1.62,.02-.63,.09-1.19,.14-1.72,.17-.21,.02-.45,0-.73-.04,.04-.06,.06-.13,.08-.2,.07-.06,.16-.13,.21-.17,.09-.07,.17-.14,.23-.19,.2-.19,.38-.39,.54-.57l.04-.04c.14-.16,.27-.32,.43-.45,.06-.05,.12-.1,.17-.14l.03-.02c.16-.13,.32-.25,.48-.42,.19-.2,.37-.38,.58-.55,1.05-.87,2.12-1.76,3.15-2.63h0c.61,.39,1.29,.77,2.17,1.2,.19,.1,.58,.31,1.03,.21,.4-.09,.65-.36,.85-.58,.02-.02,.04-.05,.07-.07,.24-.21,.46-.42,.69-.66l.05-.05c.1-.1,.2-.19,.29-.29,.04-.03,.07-.06,.11-.09,0,0,0,0,0,0,.34,.33,.68,.63,1,.9l.48,.42c.3,.26,.58,.54,.86,.82l.35,.34c.29,.29,.6,.56,.9,.83,.47,.42,.92,.82,1.33,1.28,.35,.39,.71,.8,1.15,1.18,.09,.08,.19,.15,.28,.23,.02,.02,.05,.04,.07,.05-.19,.04-.39,.06-.57,.05-.25-.02-.51,0-.75,0v.12ZM1.97,15.06v-.05c-.02-.16-.03-.32-.04-.48,0-.26,.02-.53,.03-.79,.02-.33,.04-.66,.03-1-.03-1.48-.11-3.01-.18-4.37l-.06-1.19c0-.09,0-.2,0-.3,.14,.15,.29,.31,.48,.49,.21,.19,.41,.39,.62,.59l.05,.05c.5,.49,1.07,1.05,1.71,1.52l.23,.17c.85,.62,1.73,1.25,2.5,1.95,0,0,.01,.01,.02,.02l-.05,.04c-.92,.78-1.85,1.55-2.78,2.32-.25,.21-.47,.43-.73,.69-.08,.08-.17,.15-.26,.23l-.04,.03c-.09,.07-.17,.14-.26,.21-.25,.22-.45,.45-.65,.67l-.03,.04c-.12,.14-.24,.28-.37,.4-.03,.02-.06,.05-.1,.08l-.05,.04s-.04,.03-.05,.04c0-.15,0-.3,.01-.45,.02-.36,0-.69-.04-.96ZM15.86,5.54c1.11,.04,2.04,.06,2.94,.04,.26-.01,.53,0,.79,.01h.13c.24,.01,.47,.02,.71,.02h.1c-.19,.13-.37,.25-.55,.35-.14,.08-.28,.15-.44,.22-.18,.09-.39,.19-.58,.3-.34,.2-.65,.42-1,.66l-.33,.23c-1.21,.83-2.39,1.74-3.53,2.71l-.41,.34c-.31,.26-.64,.53-.94,.82-.11,.1-.22,.21-.32,.32l-.05,.05c-.19,.19-.39,.39-.6,.57-.05,.04-.1,.09-.15,.14-1.07-.53-2.19-1.12-3.11-1.96-.84-.77-1.77-1.44-2.67-2.09l-.22-.16c-.54-.39-1.01-.85-1.51-1.35l-.08-.08c-.21-.2-.42-.41-.63-.6-.17-.16-.31-.3-.46-.47,.65-.16,1.38-.14,2.15-.12h.02c.37,.01,.77,.02,1.16,0,.97-.03,1.9,0,2.85,.07,.34,.03,.69,.03,.97,.03h.04c.25,0,.5,0,.75,.02l.25,.02c.57,.04,1.21,.09,1.81,.04l.37-.03c.79-.07,1.69-.14,2.53-.11Zm4.43,10.29c-.47-.53-.97-.98-1.46-1.41-.28-.25-.57-.5-.84-.77l-.34-.33c-.32-.32-.61-.6-.93-.88l-.5-.44c-.32-.28-.57-.5-.8-.72,1.05-.88,2.13-1.71,3.21-2.45l.34-.24c.29-.2,.58-.41,.88-.59,.14-.08,.29-.16,.46-.24,.2-.1,.37-.18,.55-.28,.48-.28,.91-.59,1.4-.96,0,.03,0,.06,0,.09,0,.06-.01,.12-.03,.21-.02,.12-.03,.24-.04,.35,0,.1-.02,.21-.04,.33-.02,.1-.04,.21-.05,.32-.03,.23-.03,.45-.03,.66,0,.11,0,.22,0,.33-.04,.67,0,1.31,.05,1.96,.03,.45,.06,.91,.06,1.37,0,.54,0,1.08,0,1.61,0,.44,.02,.89,.01,1.32,0,.27,0,.54,0,.81,0,.53,.02,1.12-.05,1.71-.07-.08-.15-.16-.23-.23-.13-.12-.27-.23-.4-.33-.07-.06-.15-.12-.22-.18-.35-.3-.66-.65-.98-1.01Z" fill="#577590" />
</svg>