<?xml version="1.0" encoding="UTF-8"?>
<svg id="Layer_5" data-name="Layer 5" xmlns="http://www.w3.org/2000/svg" viewBox="0 0 24 24">
  <path d="M22.2,5.38c-.31-.15-.68-.1-.95,.12-.35,.3-1.19-.1-1.8-.66-1.24-1.16-2.22-2.61-2.85-4.19-.17-.42-.61-.64-1.04-.52-.83,.23-1.75,.2-2.57-.09-.27-.09-.57-.05-.8,.12-.23,.17-.37,.43-.36,.72l.1,12.69c0,1.09,.02,2.22-.27,3.24-.29,1.02-.87,1.81-1.61,2.16-.93,.45-2.23,.12-2.88-.74-.65-.85-.67-2.18-.04-3.1,.62-.91,1.85-1.42,2.98-1.22,.26,.05,.55-.04,.74-.22,.2-.18,.3-.46,.27-.72-.08-.88-.17-1.79-.43-3.31-.06-.33-.31-.61-.64-.7-3.52-.94-7.51,1.49-8.52,5.2-1.03,3.79,1.32,8.21,5.03,9.47,.72,.24,1.49,.37,2.29,.37,3.25,0,6.3-2.01,7.42-4.9,.74-1.91,.66-3.92,.58-5.88-.05-1.2-.09-2.34,.04-3.43,1.47,.94,3.31,1.28,4.96,.91,.39-.08,.67-.42,.69-.82l.14-3.68c.01-.35-.18-.67-.49-.82Zm-7.08,7.92c.07,1.85,.14,3.59-.46,5.16-1.1,2.85-4.61,4.49-7.51,3.5-2.88-.97-4.7-4.41-3.9-7.35,.63-2.31,2.95-4.11,5.28-4.11,.19,0,.38,.01,.56,.04,.09,.56,.16,1.06,.22,1.59-1.46,.1-2.8,.85-3.6,2.01-1.05,1.54-1.01,3.7,.09,5.15,1.14,1.5,3.35,2.05,5.02,1.25,1.19-.57,2.11-1.76,2.54-3.26,.36-1.26,.35-2.57,.34-3.73l-.09-11.58c.55,.07,1.12,.07,1.68,0,.72,1.55,1.75,2.98,2.99,4.14,.81,.76,1.79,1.22,2.64,1.24l-.07,1.73c-1.4,.12-2.87-.45-3.85-1.49-.21-.22-.53-.31-.84-.25-.3,.07-.55,.3-.64,.6-.53,1.77-.46,3.59-.39,5.36Z"/>
</svg>