
<svg id="Layer_5" data-name="Layer 5" xmlns="http://www.w3.org/2000/svg" viewBox="0 0 24 24" fill="white">
  <path d="M23.79,22.31c-1.1-1.28-2.3-2.51-3.55-3.65-.17-.16-.39-.24-.64-.22-.12-.09-.31-.26-.4-.35-.13-.12-.27-.25-.37-.33l-.1-.07c-.51-.37-1.05-.76-1.43-1.18-.16-.18-.32-.37-.48-.55l-.04-.04c-.36-.42-.72-.86-1.17-1.26-.19-.17-.38-.37-.57-.57l-.04-.04c-.32-.34-.66-.7-1.05-1-.23-.18-.46-.33-.71-.48-.13-.08-.26-.16-.38-.25l.02-.02c.5-.57,.98-1.1,1.5-1.59,.74-.69,1.46-1.41,2.16-2.11l.09-.09c.37-.37,.74-.74,1.11-1.1,.69-.68,1.26-1.3,1.7-1.86,.11-.14,.22-.28,.33-.44l.02-.03c.15-.2,.3-.41,.48-.6,.67-.71,1.58-1.32,2.48-1.91,.26-.17,.52-.34,.76-.51,.4-.27,.5-.82,.22-1.22-.27-.4-.82-.5-1.22-.22-.23,.16-.48,.33-.74,.5-.92,.61-1.97,1.31-2.77,2.17-.23,.24-.42,.5-.63,.78l-.06,.08c-.08,.1-.15,.21-.24,.31-.4,.5-.92,1.07-1.56,1.7-.32,.32-.64,.63-.96,.95l-.16,.16c-.67,.67-1.44,1.44-2.21,2.16-.52,.49-.99,1.01-1.45,1.53-.2-.31-.4-.6-.68-.86-.23-.22-.47-.39-.69-.54-.28-.2-.49-.34-.65-.59-.42-.63-.86-1.16-1.46-1.76-.24-.24-.46-.5-.67-.76l-.37-.44c-.29-.34-.59-.52-.85-.68-.09-.06-.19-.12-.29-.19-.28-.21-.68-.51-.95-.8-.1-.11-.19-.24-.28-.38l-.02-.04c-.19-.28-.4-.6-.72-.86-.2-.17-.4-.27-.57-.35-.11-.06-.21-.11-.26-.15-.08-.08-.15-.16-.22-.24-.12-.13-.25-.27-.4-.41-.37-.34-.62-.62-.8-1.07-.09-.22-.25-.39-.47-.48-.22-.09-.45-.09-.67,0-.22,.09-.39,.25-.48,.47-.09,.21-.09,.45,0,.67,.3,.75,.71,1.23,1.24,1.71,.1,.09,.18,.18,.28,.29,.09,.1,.19,.21,.29,.31,.24,.23,.49,.36,.7,.47,.09,.05,.19,.1,.23,.13,.12,.11,.26,.3,.38,.5,.15,.22,.3,.44,.47,.62,.36,.4,.83,.76,1.2,1.03,.14,.11,.28,.2,.42,.28,.19,.12,.32,.2,.44,.34l.32,.38c.28,.33,.53,.63,.81,.91,.52,.52,.89,.97,1.24,1.5,.34,.52,.75,.8,1.1,1.05l.05,.03c.15,.1,.3,.21,.44,.35,.2,.19,.37,.47,.56,.77l.1,.15s-.03,.03-.04,.05c-.05,.05-.09,.1-.14,.15-.68,.67-1.36,1.33-2.12,2.04l-.83,.79c-.63,.61-1.33,1.15-2.07,1.74-.81,.64-1.65,1.3-2.41,2.06-.93,.92-1.77,1.67-2.56,2.27-.19,.14-.31,.35-.34,.58s.03,.46,.17,.65c.28,.37,.85,.45,1.23,.17,.86-.65,1.75-1.45,2.74-2.42,.69-.69,1.46-1.29,2.26-1.92,.74-.58,1.5-1.18,2.2-1.85l.82-.78c.67-.63,1.43-1.35,2.15-2.07,.04-.04,.08-.08,.12-.12,0,0,0,0,0,0,.19,.15,.41,.29,.64,.45,.19,.12,.38,.24,.56,.37,.29,.22,.57,.52,.85,.82,.24,.26,.46,.49,.7,.7,.36,.33,.68,.71,1.02,1.11l.03,.04c.17,.2,.34,.4,.51,.6,.51,.57,1.14,1.02,1.7,1.43l.1,.07s.1,.09,.17,.15l.04,.04c.33,.31,.79,.74,1.32,.83,1.11,1.02,2.16,2.12,3.14,3.26,.17,.19,.41,.3,.66,.3,.21,0,.41-.08,.57-.21,.18-.15,.28-.36,.3-.6,.02-.23-.06-.46-.21-.64Z" fill="white" />
</svg>