<svg xmlns="http://www.w3.org/2000/svg" width="500" height="500" fill="none"><path d="M487.858 146.1c-3.05-7.11-11.27-10.4-18.38-7.35-13.82 5.92-25.53 14.64-36.86 23.07-4.15 3.09-8.08 6.01-12.07 8.78-15.01 10.39-34.73 24.46-54.13 41.09-10.59 9.07-34.48 25.16-34.72 25.32-4.62 3.1-6.96 8.65-5.96 14.13.68 3.72 4.68 22.7 17.11 31.59 13.57 9.71 18.74 26.45 15.61 32.99-2.03 4.23-12.61 1.61-15.06.94-2.32-.87-9.92-5.76-17.28-11.48-5.46-4.25-12.3-4.75-17.86-1.31-9.97 6.16-9.38 18.95-4.46 43.55.21 1.06.15 1.77-.79 2.96-3.47 4.43-14.17 8.68-23.39 9.38-2.87-2.38-7.53-11.35-11.34-24.58 1.98-.7 3.9-1.51 5.75-2.5 11.14-5.97 17.28-16.44 17.28-29.47 0-18.42-20.22-32.32-24.27-34.92-3.75-2.41-9.11-4.64-15.73-6.86l.1-.07c9.61-6.33 25.68-16.93 21.85-38-2.43-13.38-15.5-19.03-26.04-21.4-1.86-.42-3.73-.76-5.57-1.05a14.079 14.079 0 00-4.77-5.17c.35-.97.84-2.16 1.51-3.62 1.73-.73 8.24-1.38 20.25 5.34 3.59 2.14 16.72 14.72 20.53 19.17 3.36 3.92 7.42 5.22 11.34 5.22 4.27 0 8.37-1.55 11.19-2.94 3.28-1.62 7.37-4.09 12.48-7.54 8.62-5.81 18.66-13.4 25.99-18.94 3.71-2.8 7.9-5.98 9.04-6.71 19.58-11.7 36.14-28.77 52.15-45.29 5.61-5.78 10.91-11.25 16.22-16.37 5.57-5.36 5.74-14.23.37-19.8s-14.23-5.74-19.8-.37c-5.66 5.45-11.38 11.34-16.9 17.04-14.76 15.23-30.03 30.97-46.46 40.77-1.96 1.17-4.95 3.42-11.51 8.38-6.33 4.78-20.93 15.82-29.59 21.24-6.49-6.5-15.8-15.19-21.34-18.29-19.87-11.13-33.88-10.34-42.14-7.71-7.55 2.4-13.64 7.47-16.71 13.9-2.67 5.6-5.64 13.02-5.54 20.48-12.02.32-24.21 1.37-36.31 4.82-1.48.42-2.85.94-4.11 1.45-1.36-2.33-2.66-4.84-4.01-7.43-2.7-5.19-5.48-10.56-9.36-15.8-4.53-6.13-9.33-11.99-13.97-17.65-4.28-5.21-8.31-10.14-12.16-15.26-2.2-2.93-4.74-5.93-7.43-9.09-6.2-7.31-14.7-17.31-15.27-23.61-.7-7.7-7.51-13.37-15.21-12.68-7.7.7-13.38 7.51-12.68 15.21 1.38 15.13 12.71 28.48 21.82 39.2 2.41 2.84 4.68 5.51 6.37 7.77 4.21 5.61 8.63 11 12.91 16.22 4.62 5.64 8.99 10.97 13.1 16.52 2.57 3.48 4.74 7.66 7.04 12.08 2.76 5.32 5.62 10.81 9.63 16.16 9.56 12.75 23.88 6.76 28.59 4.79.88-.37 1.97-.82 2.44-.96 13.61-3.89 29.21-3.86 44.26-3.89h.58c8.85 0 17.26 1.41 21.23 2.94-.81 1.4-3.19 3.36-9.42 7.47l-.83.55c-9.67 6.39-26.23 8.93-31.67 9.77-6.9 1.06-11.98 6.54-12.34 13.32-.13 2.42.21 10.62 9.99 14.47 1.1.43 2.48.89 4.33 1.44 2.91.86 6.77 1.89 11.24 3.08 9.79 2.6 30.16 8.01 35.2 11.25 6.09 3.9 10.8 9.47 11.38 11.58-.04 3.02-.98 3.74-2.51 4.56-1.23.66-2.68 1.15-4.31 1.52a13.983 13.983 0 00-8.06-.93c-1.58.29-3.04.84-4.36 1.59-12.54-.84-27.32-5.17-34.26-9.78-5.6-3.72-13.06-2.94-17.76 1.87a14.003 14.003 0 00-1.47 17.8l.94 1.35c22.43 32.03 24.23 43.03 24.16 45.93-.79.81-1.49 1.01-2.49 1.08-8.42.62-25.86-10.5-42.53-27.04-1.02-1.54-3.29-5.8-4.83-8.69-8.15-15.28-12.64-23.7-23.04-23.7-3.75 0-7.42 1.54-10.05 4.22-4.9 4.98-4.83 9.48-4.47 31.09.02.95.03 1.64.03 1.93v2.91c.03 7.1.07 18.99-2.78 21.84-.75.75-2.8 1.2-5.49 1.2-4.25 0-5.59-1.37-6.16-1.95-6.21-6.34-5.77-27.2-5.48-41.01.07-3.44.14-6.69.14-9.83 0-5.64 2.39-13.55 4.69-21.2 4.93-16.35 11.08-36.71-3.09-50.87-6.43-6.43-9.49-12.26-13.35-19.64-2.81-5.36-6-11.44-10.8-18.25-6.25-8.87-11.7-18.24-17.48-28.16-9.57-16.45-19.47-33.46-33.34-48.14-5.31-5.62-14.17-5.88-19.79-.57-5.62 5.31-5.88 14.17-.57 19.79 11.65 12.34 20.32 27.23 29.5 43 5.82 10 11.84 20.34 18.79 30.21 3.74 5.31 6.24 10.08 8.89 15.13 4.38 8.35 8.91 16.99 18.36 26.44 2.32 2.32-2.05 16.8-3.92 22.98-2.89 9.59-5.89 19.51-5.89 29.29 0 2.85-.06 5.95-.13 9.24-.43 20.69-.97 46.44 13.47 61.19 6.64 6.78 15.68 10.36 26.17 10.36 10.49 0 19.08-3.18 25.32-9.44 6.77-6.8 9.37-15.8 10.36-24.89 5.09 4.73 12.08 10.77 19.84 16.16 15.08 10.47 28.03 15.15 39.61 14.34 9.55-.68 17.68-5.16 23.53-12.95 8.79-11.72 4.98-28.12-4.3-46.14 1.8.25 3.69.46 5.62.63 1.74 6.79 4.22 14.93 7.58 22.59 7.96 18.15 18.36 27.33 30.95 27.33.39 0 .78 0 1.17-.03 11.37-.5 33.7-5.32 45.32-20.15 5.91-7.55 8.06-16.44 6.2-25.72 0-.02 0-.04-.01-.06 1.6.74 3.12 1.34 4.51 1.72 22.32 6.22 40.25.32 47.96-15.79 4.9-10.23 4.78-23.18-.31-36.47-4.78-12.46-13.39-23.61-24.26-31.38-.97-.72-2.2-2.87-3.32-5.54 8.47-5.88 21.24-14.98 28.83-21.48 14.38-12.33 30.37-24.45 51.85-39.32 4.39-3.04 8.69-6.24 12.85-9.34 10.49-7.81 20.39-15.18 31.17-19.8 7.11-3.05 10.4-11.28 7.35-18.38l.01.03z" fill="#F39237"/></svg>