<svg xmlns="http://www.w3.org/2000/svg"><symbol id="icon-arrow-down" viewBox="0 0 24 24"><title>icon-arrow-down</title><path d="M23.95 12.41a.97.97 0 0 0-.16-.28.88.88 0 0 0-.76-1.26c-.05-.02-.11-.06-.15-.08l-.12-.06c-.15-.17-.31-.36-.48-.54-.18-.19-.35-.38-.52-.57l-.22-.25c-.31-.34-.64-.51-.91-.64l-.12-.05c-.12-.09-.25-.17-.38-.25l-.08-.05c-.35-.25-.67-.58-.99-.89l-.09-.09-.31-.31c-.2-.19-.41-.34-.64-.5-.18-.12-.34-.23-.46-.36-.59-.65-1.17-1-1.82-1.38h-.01c-.07-.09-.15-.16-.23-.23-.23-.2-.46-.34-.69-.48-.11-.06-.22-.13-.32-.2-.06-.04-.11-.09-.15-.13-.17-.2-.43-.5-.81-.65-.42-.17-.89 0-1.1.4-.21.4-.09.88.28 1.14.09.06.18.14.27.23l.09.08c.09.1.18.2.27.29.21.19.43.31.58.38l.03.02s.09.05.14.08c.08.05.15.11.25.19.08.07.17.14.24.19.04.04.08.09.12.13l.04.04c.11.13.25.29.39.43l.25.25c.74.74 1.5 1.5 2.37 2.13.33.23.67.39 1.02.54.12.06.25.11.35.16.15.1.29.19.43.27l.06-.11-.03.13c.34.25.67.58.87.87.29.42.52.68.83.89h-.05c-.07 0-.16 0-.27-.02h-.04c-.14-.02-.28-.04-.43-.04-.64-.01-1.28-.03-1.91-.06-1.35-.04-2.72-.06-4.05-.07h-1.26c-1.33-.03-2.71-.04-4.08 0-.99.03-1.84.11-2.61.25-1.67.3-3.34.23-5.12.15l-.52-.02a.742.742 0 0 0-.6.19c-.19.16-.31.4-.32.65 0 .23.07.46.23.63s.37.27.61.28l.53.02c1.79.08 3.64.16 5.5-.18.68-.12 1.45-.19 2.35-.22 1.4-.04 2.82-.03 4.19-.01h.94c1.36.02 2.77.03 4.16.08.48.02.96.03 1.44.04-.4.29-.81.58-1.21.88-1.19.87-2.36 1.72-3.55 2.53-.26.18-.51.36-.78.57-.11.08-.22.17-.31.24-.29.15-.58.29-.88.45l-.32.17c-.28.15-.56.3-.83.45-.32.15-.56.3-.76.47-.34.3-.39.82-.12 1.19.17.22.42.34.7.34.17 0 .33-.05.48-.14.16-.1.33-.2.48-.3.13-.06.27-.11.4-.16a6.867 6.867 0 0 0 1.74-.97l.28-.14c.37-.19.68-.42.96-.65.15-.12.31-.24.48-.35.69-.43 1.36-.9 2-1.35l.03-.02c.4-.28.8-.56 1.2-.83.32-.21.62-.45.92-.67.36-.27.73-.55 1.11-.79.12-.07.24-.14.38-.21.51-.28 1.09-.6 1.47-1.11.17-.23.22-.53.12-.81Z"/></symbol><symbol id="icon-arrow-right" viewBox="0 0 24 24"><title>icon-arrow-right</title><path d="M23.95 12.41a.97.97 0 0 0-.16-.28.88.88 0 0 0-.76-1.26c-.05-.02-.11-.06-.15-.08l-.12-.06c-.15-.17-.31-.36-.48-.54-.18-.19-.35-.38-.52-.57l-.22-.25c-.31-.34-.64-.51-.91-.64l-.12-.05c-.12-.09-.25-.17-.38-.25l-.08-.05c-.35-.25-.67-.58-.99-.89l-.09-.09-.31-.31c-.2-.19-.41-.34-.64-.5-.18-.12-.34-.23-.46-.36-.59-.65-1.17-1-1.82-1.38h-.01c-.07-.09-.15-.16-.23-.23-.23-.2-.46-.34-.69-.48-.11-.06-.22-.13-.32-.2-.06-.04-.11-.09-.15-.13-.17-.2-.43-.5-.81-.65-.42-.17-.89 0-1.1.4-.21.4-.09.88.28 1.14.09.06.18.14.27.23l.09.08c.09.1.18.2.27.29.21.19.43.31.58.38l.03.02s.09.05.14.08c.08.05.15.11.25.19.08.07.17.14.24.19.04.04.08.09.12.13l.04.04c.11.13.25.29.39.43l.25.25c.74.74 1.5 1.5 2.37 2.13.33.23.67.39 1.02.54.12.06.25.11.35.16.15.1.29.19.43.27l.06-.11-.03.13c.34.25.67.58.87.87.29.42.52.68.83.89h-.05c-.07 0-.16 0-.27-.02h-.04c-.14-.02-.28-.04-.43-.04-.64-.01-1.28-.03-1.91-.06-1.35-.04-2.72-.06-4.05-.07h-1.26c-1.33-.03-2.71-.04-4.08 0-.99.03-1.84.11-2.61.25-1.67.3-3.34.23-5.12.15l-.52-.02a.742.742 0 0 0-.6.19c-.19.16-.31.4-.32.65 0 .23.07.46.23.63s.37.27.61.28l.53.02c1.79.08 3.64.16 5.5-.18.68-.12 1.45-.19 2.35-.22 1.4-.04 2.82-.03 4.19-.01h.94c1.36.02 2.77.03 4.16.08.48.02.96.03 1.44.04-.4.29-.81.58-1.21.88-1.19.87-2.36 1.72-3.55 2.53-.26.18-.51.36-.78.57-.11.08-.22.17-.31.24-.29.15-.58.29-.88.45l-.32.17c-.28.15-.56.3-.83.45-.32.15-.56.3-.76.47-.34.3-.39.82-.12 1.19.17.22.42.34.7.34.17 0 .33-.05.48-.14.16-.1.33-.2.48-.3.13-.06.27-.11.4-.16a6.867 6.867 0 0 0 1.74-.97l.28-.14c.37-.19.68-.42.96-.65.15-.12.31-.24.48-.35.69-.43 1.36-.9 2-1.35l.03-.02c.4-.28.8-.56 1.2-.83.32-.21.62-.45.92-.67.36-.27.73-.55 1.11-.79.12-.07.24-.14.38-.21.51-.28 1.09-.6 1.47-1.11.17-.23.22-.53.12-.81Z"/></symbol><symbol id="icon-check" viewBox="0 0 24 24"><title>icon-check</title><path d="M22.03 1.78a.833.833 0 0 0-.4-.53.85.85 0 0 0-.66-.09c-.23.06-.42.2-.53.4-2.54 4.33-5.25 8.64-7.8 12.67-.23.37-.47.74-.71 1.11-1 1.54-2.03 3.14-2.8 4.87-1.44-2.1-4.22-6.42-5.23-8.03a.75.75 0 0 0-.1-.2c-.32-.5-.55-.83-1.1-.77a.89.89 0 0 0-.72.6c-.06.18-.08.31.08.66l-.03.02.07.1s.05.07.09.14c.35.63 1.09 1.77 2.88 4.54 3.15 4.86 3.52 5.21 3.68 5.36.16.15.38.24.6.24.07 0 .14 0 .21-.03.29-.07.52-.29.62-.57.7-2.12 1.97-4.08 3.2-5.99l.04-.07c.23-.35.45-.71.68-1.06 2.56-4.05 5.27-8.37 7.83-12.72.12-.2.15-.44.09-.67Z"/></symbol><symbol id="icon-chevron-down" viewBox="0 0 24 24"><title>icon-chevron-down</title><path d="M23.69 6.03a.873.873 0 0 0-1.23.11l-.84 1.01c-1.18 1.44-2.41 2.92-3.77 4.19-.62.58-1.27 1.15-1.89 1.69l-.89.79c-.68.6-1.42 1.2-2.2 1.78-.23.17-.45.34-.67.52l-.23.18s-.06.05-.12.07c-.55-.48-1.1-1.01-1.57-1.53-.25-.32-.53-.63-.8-.9-.51-.54-1.03-1.1-1.59-1.71-.24-.26-.5-.51-.77-.77l-.04-.04c-.23-.22-.47-.44-.65-.65-.2-.25-.4-.5-.65-.8-.24-.24-.48-.46-.7-.64-.17-.15-.34-.31-.5-.48-.25-.24-.47-.46-.72-.67-.13-.11-.27-.22-.4-.32l-.04-.03c-.21-.16-.42-.33-.62-.52-.24-.23-.5-.4-.73-.55-.2-.13-.4-.25-.52-.39A.883.883 0 0 0 .31 6.3c-.36.32-.39.88-.07 1.24.28.31.59.51.88.7.18.11.34.22.46.33.25.24.52.45.76.64.13.1.26.21.39.31.2.17.39.35.57.53l.05.05c.18.17.37.36.59.56.18.15.38.33.54.48.19.24.39.47.61.75.25.28.51.53.82.83.23.22.46.44.68.67.51.57 1.05 1.14 1.64 1.76.24.24.47.49.72.81.65.71 1.35 1.38 2.08 2 .16.13.36.2.56.2h.07c.83-.07 1.18-.31 1.47-.55l.14-.11c.22-.17.43-.34.65-.51.82-.61 1.6-1.24 2.31-1.88l.83-.73c.65-.57 1.33-1.16 1.99-1.78 1.44-1.35 2.71-2.88 3.93-4.36l.83-1c.31-.37.26-.92-.11-1.23Z"/></symbol><symbol id="icon-cross" viewBox="0 0 24 24"><title>icon-cross</title><path d="M23.79 22.31c-1.1-1.28-2.3-2.51-3.55-3.65a.815.815 0 0 0-.64-.22c-.12-.09-.31-.26-.4-.35-.13-.12-.27-.25-.37-.33l-.1-.07c-.51-.37-1.05-.76-1.43-1.18-.16-.18-.32-.37-.48-.55l-.04-.04c-.36-.42-.72-.86-1.17-1.26-.19-.17-.38-.37-.57-.57l-.04-.04c-.32-.34-.66-.7-1.05-1-.23-.18-.46-.33-.71-.48-.13-.08-.26-.16-.38-.25l.02-.02c.5-.57.98-1.1 1.5-1.59.74-.69 1.46-1.41 2.16-2.11l.09-.09c.37-.37.74-.74 1.11-1.1.69-.68 1.26-1.3 1.7-1.86.11-.14.22-.28.33-.44l.02-.03c.15-.2.3-.41.48-.6.67-.71 1.58-1.32 2.48-1.91.26-.17.52-.34.76-.51.4-.27.5-.82.22-1.22a.87.87 0 0 0-1.22-.22c-.23.16-.48.33-.74.5-.92.61-1.97 1.31-2.77 2.17-.23.24-.42.5-.63.78l-.06.08c-.08.1-.15.21-.24.31-.4.5-.92 1.07-1.56 1.7-.32.32-.64.63-.96.95l-.16.16c-.67.67-1.44 1.44-2.21 2.16-.52.49-.99 1.01-1.45 1.53-.2-.31-.4-.6-.68-.86-.23-.22-.47-.39-.69-.54-.28-.2-.49-.34-.65-.59-.42-.63-.86-1.16-1.46-1.76-.24-.24-.46-.5-.67-.76l-.37-.44c-.29-.34-.59-.52-.85-.68-.09-.06-.19-.12-.29-.19-.28-.21-.68-.51-.95-.8-.1-.11-.19-.24-.28-.38l-.02-.04c-.19-.28-.4-.6-.72-.86-.2-.17-.4-.27-.57-.35-.11-.06-.21-.11-.26-.15-.08-.08-.15-.16-.22-.24a7.54 7.54 0 0 0-.4-.41c-.37-.34-.62-.62-.8-1.07A.865.865 0 0 0 .71.36.865.865 0 0 0 .23 1.5c.3.75.71 1.23 1.24 1.71.1.09.18.18.28.29.09.1.19.21.29.31.24.23.49.36.7.47.09.05.19.1.23.13.12.11.26.3.38.5.15.22.3.44.47.62.36.4.83.76 1.2 1.03.14.11.28.2.42.28.19.12.32.2.44.34l.32.38c.28.33.53.63.81.91.52.52.89.97 1.24 1.5.34.52.75.8 1.1 1.05l.05.03c.15.1.3.21.44.35.2.19.37.47.56.77l.1.15s-.03.03-.04.05c-.05.05-.09.1-.14.15-.68.67-1.36 1.33-2.12 2.04l-.83.79c-.63.61-1.33 1.15-2.07 1.74-.81.64-1.65 1.3-2.41 2.06-.93.92-1.77 1.67-2.56 2.27-.19.14-.31.35-.34.58s.03.46.17.65c.28.37.85.45 1.23.17.86-.65 1.75-1.45 2.74-2.42.69-.69 1.46-1.29 2.26-1.92.74-.58 1.5-1.18 2.2-1.85l.82-.78c.67-.63 1.43-1.35 2.15-2.07l.12-.12c.19.15.41.29.64.45.19.12.38.24.56.37.29.22.57.52.85.82.24.26.46.49.7.7.36.33.68.71 1.02 1.11l.03.04.51.6c.51.57 1.14 1.02 1.7 1.43l.1.07s.1.09.17.15l.04.04c.33.31.79.74 1.32.83 1.11 1.02 2.16 2.12 3.14 3.26.17.19.41.3.66.3.21 0 .41-.08.57-.21a.887.887 0 0 0 .09-1.24Z"/></symbol><symbol id="icon-donate" viewBox="0 0 24 24"><title>icon-donate</title><path d="M23.97 6.7c-.09-.7-.37-1.32-.8-1.78-.54-.58-1.47-.66-2.22-.66-.09 0-.18-.01-.26-.02h-.05c-.21-.03-.45-.05-.69-.05-.55.03-1 .26-1.41.45-.13.06-.25.12-.38.17-1.27.51-2.35 1.13-3.23 1.84-.41.33-.77.69-1.17 1.09-.06-.08-.12-.16-.19-.25-.3-.4-.62-.82-1.02-1.2C11.16 5 9.83 4.11 8.6 3.62c-1.53-.6-3.42-.78-4.92-.46-.77.16-1.37.57-1.91.94l-.13.08C.86 4.71.32 5.44.13 6.24c-.38 1.55.16 2.87.68 3.98.71 1.5 1.87 2.78 3.54 3.93.33.23.66.48.98.74l.45.35c.22.17.46.33.67.47l.03.02c.23.15.46.31.67.49.17.14.34.29.5.43l.08.07c.37.33.69.6 1.04.86.43.32.93.71 1.38 1.17l.37.4c.21.23.42.47.66.69-.06.2-.05.42.04.61.14.32.45.52.8.52.12 0 .24-.03.35-.08 1.62-.72 3-1.61 4.21-2.72l.33-.3c.27-.24.55-.49.81-.77.06-.06.13-.12.21-.18l.03-.02c.11-.09.23-.17.33-.27.16-.14.3-.3.44-.47l.03-.03c.1-.11.19-.22.3-.31.87-.79 1.57-1.61 2.09-2.44.11-.17.23-.32.37-.49l.03-.03c.16-.19.31-.38.44-.57.25-.37.44-.77.61-1.12l.28-.56c.57-1.13 1.27-2.55 1.1-3.93Zm-3.61-.74h.05c.17.03.35.05.53.05.74 0 .94.11.95.11.18.19.3.48.34.81.11.86-.47 2.01-.93 2.93l-.28.58c-.15.31-.3.63-.48.9-.1.14-.2.27-.32.41l-.02.03c-.17.21-.37.45-.53.71-.43.69-1.02 1.38-1.77 2.06-.17.15-.31.31-.47.5l-.02.03c-.1.11-.19.21-.29.31-.05.05-.11.09-.17.14l-.03.03c-.14.11-.31.24-.46.39-.21.22-.44.43-.67.63l-.39.35c-.81.74-1.7 1.37-2.71 1.91-.02-.02-.05-.04-.07-.06-.27-.2-.52-.47-.78-.76-.14-.15-.27-.31-.42-.46-.54-.56-1.11-1-1.59-1.36-.31-.23-.61-.49-.89-.74l-.04-.03c-.21-.18-.41-.36-.62-.53-.26-.21-.53-.4-.83-.6l-.03-.02c-.19-.13-.37-.25-.55-.39l-.43-.34c-.32-.25-.69-.54-1.08-.81-1.41-.96-2.37-2.02-2.95-3.23-.52-1.1-.79-1.92-.57-2.82.09-.37.38-.74.79-1.02l.13-.09c.44-.3.85-.58 1.28-.67.37-.08.79-.12 1.22-.12.93 0 1.89.17 2.7.49 1.02.4 2.17 1.18 3.4 2.32.29.27.55.61.83.98l.04.05c.12.16.24.32.37.48l.07.08c.03.19.11.37.25.5.21.2.49.3.76.24.49-.08.86-.44 1.24-.84l.15-.15c.33-.33.64-.64.98-.91.75-.6 1.68-1.13 2.79-1.58.16-.06.33-.14.49-.23.27-.13.55-.27.75-.28.1 0 .2 0 .31.02Z"/></symbol><symbol id="icon-download" viewBox="0 0 24 22.64"><title>icon-download</title><path d="M23.93 10.89a.874.874 0 0 0-.3-.61.893.893 0 0 0-.62-.22c-.23.01-.45.12-.6.29-.16.17-.24.4-.22.63.13 2.31.08 4.66-.15 6.98-.05.54-.12 1.05-.36 1.37-.3.41-.91.61-1.54.78-4.67 1.21-9.6.77-14.37.34-.91-.08-1.94-.17-2.64-.68-1.12-.82-1.3-2.59-1.33-4.38l-.05-3.48c0-.48-.39-.85-.89-.86-.23 0-.45.1-.62.26s-.24.4-.24.63l.05 3.48c.03 2.25.3 4.5 2.05 5.77 1.09.79 2.44.91 3.54 1.01 2.43.22 4.95.44 7.54.44 2.81 0 5.23-.27 7.4-.83.89-.23 1.89-.58 2.52-1.44.49-.68.61-1.48.68-2.23.24-2.4.29-4.84.16-7.25Z"/><path d="M4.66 12.72c1.18.75 2.37 1.59 3.52 2.4l3.38 2.38c.15.1.32.16.5.16.22 0 .44-.08.6-.24 2.27-2.13 4.41-4.45 6.35-6.89.15-.18.21-.41.18-.64s-.14-.44-.32-.59a.874.874 0 0 0-1.23.14 63.871 63.871 0 0 1-4.9 5.46c-.07-4.71-.05-9.42.05-14.01a.866.866 0 0 0-.86-.89c-.42.02-.87.35-.89.85-.11 4.6-.13 9.35-.05 14.11l-1.81-1.28-.04-.02c-1.15-.81-2.34-1.64-3.55-2.42a.856.856 0 0 0-.66-.12c-.23.05-.42.19-.55.38-.13.2-.17.43-.12.66.05.23.19.42.38.55Z"/></symbol><symbol id="icon-email" viewBox="0 0 24 24"><title>icon-email</title><path d="m23.71 5.1-.05-.14a.847.847 0 0 0-.41-.48c-.31-.38-.9-.5-1.47-.58-.33-.05-.67-.04-.99-.03h-.35c-.19 0-.39 0-.58-.02h-.12c-.32-.02-.65-.03-.98-.02-.8.02-1.7 0-2.84-.04-.94-.03-1.9.05-2.74.12l-.36.03c-.47.04-1.02 0-1.55-.05l-.24-.02c-.29-.02-.58-.03-.9-.03h-.04c-.26 0-.54 0-.81-.03-1-.08-2-.11-3.05-.08-.32.01-.64 0-.98 0h-.12c-1.18-.03-2.52-.06-3.74.61l-.12.07C.92 4.6.39 4.88.16 5.62c-.17.58-.17 1.13-.15 1.65L.07 8.5c.07 1.41.15 2.86.18 4.28 0 .28-.01.57-.03.85v.04c-.02.28-.04.58-.03.86 0 .23.02.45.04.69v.05c.03.21.04.42.03.63-.04.58-.02 1.14.07 1.87v.15c.04.28.07.71.3 1.08.4.65 1.16.76 1.4.79l.2.03c.45.06.96.13 1.47.11.56-.03 1.17-.09 1.86-.18.41-.06.84-.04 1.3-.01h.06c.19.01.38.02.58.02.53 0 1.08.04 1.6.08h.1c.39.03.79.05 1.18.07l1.12.03c.67.02 1.36.04 2.04.07.5.02 1.01.03 1.5.03h.19c.58 0 1.16 0 1.74.04.3.02.58.06.89.11l.37.06c.17.02.36.04.57.04.15 0 .3 0 .44-.01.18 0 .37-.02.56 0 .69.04 1.32-.14 1.83-.28.09-.03.19-.05.29-.08.01 0 .02.02.04.03.32.19.76.14 1.04-.12.11-.1.19-.23.23-.38h.01c.38-.33.47-.8.53-1.11.17-.84.16-1.67.14-2.47v-.77c0-.45 0-.91-.01-1.37 0-.51-.02-1.04 0-1.55 0-.53-.03-1.04-.06-1.55-.04-.58-.08-1.14-.05-1.69 0-.14 0-.28.01-.44a3.095 3.095 0 0 1 .06-.67c.03-.18.05-.33.07-.5 0-.06.01-.12.03-.21.02-.11.03-.22.04-.34.06-.71-.08-1.08-.28-1.65Zm-4.53 13.54-.02-.12c-.25 0-.48.02-.68 0l-.35-.05c-.33-.05-.67-.1-1.03-.13-.54-.04-1.08-.04-1.58-.04h-.31c-.52 0-1.04 0-1.56-.02-.65-.03-1.31-.05-1.96-.07l-1.24-.04c-.41-.01-.82-.04-1.24-.07-.62-.04-1.14-.07-1.68-.08-.17 0-.34-.01-.51-.02h-.07c-.48-.03-1.04-.05-1.62.02-.63.09-1.19.14-1.72.17-.21.02-.45 0-.73-.04.04-.06.06-.13.08-.2.07-.06.16-.13.21-.17.09-.07.17-.14.23-.19.2-.19.38-.39.54-.57l.04-.04c.14-.16.27-.32.43-.45l.17-.14.03-.02c.16-.13.32-.25.48-.42a6 6 0 0 1 .58-.55c1.05-.87 2.12-1.76 3.15-2.63.61.39 1.29.77 2.17 1.2.19.1.58.31 1.03.21.4-.09.65-.36.85-.58.02-.02.04-.05.07-.07.24-.21.46-.42.69-.66l.05-.05c.1-.1.2-.19.29-.29.04-.03.07-.06.11-.09.34.33.68.63 1 .9l.48.42c.3.26.58.54.86.82l.35.34c.29.29.6.56.9.83.47.42.92.82 1.33 1.28.35.39.71.8 1.15 1.18.09.08.19.15.28.23.02.02.05.04.07.05-.19.04-.39.06-.57.05-.25-.02-.51 0-.75 0v.12ZM1.97 15.06v-.05c-.02-.16-.03-.32-.04-.48 0-.26.02-.53.03-.79.02-.33.04-.66.03-1-.03-1.48-.11-3.01-.18-4.37l-.06-1.19v-.3c.14.15.29.31.48.49.21.19.41.39.62.59l.05.05c.5.49 1.07 1.05 1.71 1.52l.23.17c.85.62 1.73 1.25 2.5 1.95l.02.02-.05.04c-.92.78-1.85 1.55-2.78 2.32-.25.21-.47.43-.73.69-.08.08-.17.15-.26.23l-.04.03c-.09.07-.17.14-.26.21-.25.22-.45.45-.65.67l-.03.04c-.12.14-.24.28-.37.4-.03.02-.06.05-.1.08l-.05.04s-.04.03-.05.04c0-.15 0-.3.01-.45.02-.36 0-.69-.04-.96Zm13.89-9.52c1.11.04 2.04.06 2.94.04.26-.01.53 0 .79.01h.13c.24.01.47.02.71.02h.1c-.19.13-.37.25-.55.35-.14.08-.28.15-.44.22-.18.09-.39.19-.58.3-.34.2-.65.42-1 .66l-.33.23c-1.21.83-2.39 1.74-3.53 2.71l-.41.34c-.31.26-.64.53-.94.82-.11.1-.22.21-.32.32l-.05.05c-.19.19-.39.39-.6.57-.05.04-.1.09-.15.14-1.07-.53-2.19-1.12-3.11-1.96-.84-.77-1.77-1.44-2.67-2.09l-.22-.16c-.54-.39-1.01-.85-1.51-1.35l-.08-.08c-.21-.2-.42-.41-.63-.6-.17-.16-.31-.3-.46-.47.65-.16 1.38-.14 2.15-.12h.02c.37.01.77.02 1.16 0 .97-.03 1.9 0 2.85.07.34.03.69.03.97.03h.04c.25 0 .5 0 .75.02l.25.02c.57.04 1.21.09 1.81.04l.37-.03c.79-.07 1.69-.14 2.53-.11Zm4.43 10.29c-.47-.53-.97-.98-1.46-1.41-.28-.25-.57-.5-.84-.77l-.34-.33c-.32-.32-.61-.6-.93-.88l-.5-.44c-.32-.28-.57-.5-.8-.72 1.05-.88 2.13-1.71 3.21-2.45l.34-.24c.29-.2.58-.41.88-.59.14-.08.29-.16.46-.24.2-.1.37-.18.55-.28.48-.28.91-.59 1.4-.96v.09c0 .06-.01.12-.03.21-.02.12-.03.24-.04.35 0 .1-.02.21-.04.33-.02.1-.04.21-.05.32-.03.23-.03.45-.03.66v.33c-.04.67 0 1.31.05 1.96.03.45.06.91.06 1.37v1.61c0 .44.02.89.01 1.32v.81c0 .53.02 1.12-.05 1.71-.07-.08-.15-.16-.23-.23a5.81 5.81 0 0 0-.4-.33c-.07-.06-.15-.12-.22-.18-.35-.3-.66-.65-.98-1.01Z"/></symbol><symbol id="icon-facebook" viewBox="0 0 24 24.03"><title>icon-facebook</title><path d="M18.96 1.2a.946.946 0 0 0-.36-.61.805.805 0 0 0-.62-.16c-.02 0-.05 0-.07.01a.79.79 0 0 0-.3-.12c-.84-.16-1.7-.27-2.57-.32-.17 0-.36.04-.51.13-.13.08-.44.12-.71.15-.31.04-.67.08-1.01.21-.57.21-1 .55-1.38.87-.14.11-.28.22-.47.36-.5.35-1.13.79-1.48 1.48-.45.88-.69 1.82-.68 2.73 0 .24-.01.47-.03.71v.04c-.02.29-.04.55-.04.82-.07 0-.14-.01-.2-.02h-.09c-.18-.04-.39-.06-.62-.05-.28.02-.51.09-.72.15l-.2.06c-.21.06-1.28.39-1.66 1.09-.23.41-.2.86-.18 1.19v.18c0 .46.04.9.09 1.33l.03.33c.04.39.05.8.07 1.2l.02.4c.01.29.17.56.42.71.25.15.55.17.82.05.36-.16.77-.21 1.25-.26l.36-.04c.07 0 .19-.02.32-.04-.12.77-.12 1.69 0 2.79.05.48.04.99.04 1.53v.94c-.01.88-.02 1.79.16 2.68.02.11.03.21.04.32v.05c.04.48.14 1.77 1.62 1.79.22 0 .44 0 .67-.01.46-.02.89-.03 1.25.05.19.05.38.07.58.07.16 0 .3-.01.46-.03h.04c.07 0 .13-.02.21-.02.37-.02.69-.27.79-.63.1-.37.01-.67-.06-.91-.03-.15-.03-.35-.03-.56V19c0-1.3.07-2.31.24-3.29.03-.16.05-.32.07-.47v-.04c.03-.21.06-.41.11-.62.02-.07.04-.16.05-.25v-.04s.01-.02.02-.03c.26-.02.53-.04.81-.05h.36c.25.02.51.03.78 0 .09-.01.18-.03.28-.07.45.03.87-.29.93-.76.04-.27.04-.54.05-.84 0-.21.01-.42.04-.63.06-.44.06-.85.06-1.25v-.47c0-.23.01-.46 0-.68-.05-.5-.21-.86-.84-1.08-.63-.22-1.3-.14-1.9-.08h-.07c-.14.02-.28.04-.41.05-.06 0-.06 0-.18-.09.02-.53.12-.88.44-1.45l.07-.13c.16-.28.37-.67.56-.83.35-.3.68-.34 1.29-.17.2.06.4.12.61.15.47.07.92-.27.99-.74l.09-.62c.09-.56.18-1.14.24-1.7.02-.2.02-.4.02-.61V1.9c0-.02 0-.04.01-.06v-.03c.03-.15.08-.37.04-.62Zm-5.39 4.71-.07.12c-.4.72-.66 1.37-.67 2.38 0 .6.13.88.62 1.26.31.24.69.54 1.4.5.18 0 .38-.03.58-.05h.04c.26-.03.51-.07.76-.05v.63c0 .33 0 .68-.04 1-.04.28-.05.55-.05.8h-.2c-.18-.01-.35-.02-.52-.01-.36.01-.75.03-1.13.08-.17.02-.43.04-.67.2-.48.32-.59.88-.67 1.25l-.03.16c-.08.31-.12.61-.15.89-.02.13-.03.26-.05.39-.18 1.08-.26 2.18-.26 3.58v3.19c-.28-.05-.59-.08-.96-.08-.2 0-.4 0-.59.01h-.47c0-.06-.01-.12-.01-.17-.01-.17-.03-.38-.07-.57-.14-.72-.14-1.54-.13-2.33v-.94c.02-.56.03-1.14-.04-1.73-.14-1.34-.09-2.32.16-3 .11-.31.04-.66-.18-.9-.58-.62-1.59-.49-2.26-.4l-.31.04c-.18.02-.39.04-.6.07-.01-.2-.03-.4-.04-.59l-.04-.38c-.04-.38-.08-.74-.07-1.11 0-.09 0-.19-.01-.3 0-.09 0-.17-.02-.23.11-.08.36-.21.56-.26.09-.02.17-.05.27-.08.12-.04.23-.07.31-.08.06 0 .16 0 .26.02h.05c.14.02.27.04.41.05.05 0 .1 0 .16.02h.04c.28.04.62.09.95 0 .35-.09.6-.38.65-.73.03-.25.03-.51.02-.77v-.24c0-.25.01-.49.03-.73.02-.28.04-.57.03-.87 0-.63.17-1.29.49-1.92.16-.31.56-.59.98-.89.19-.13.36-.27.53-.4.31-.25.58-.47.88-.58.15-.06.38-.08.64-.12.35-.04.75-.1 1.13-.26.66.05 1.32.13 1.97.25v.64c-.04.43-.11.86-.17 1.3-.18-.03-.35-.05-.52-.05-.77 0-1.37.21-1.92.69-.43.37-.72.9-.96 1.32Z"/></symbol><symbol id="icon-filter" viewBox="0 0 24 24"><title>icon-filter</title><path d="m23.03 18.66-.71-.07c-1.41-.13-2.86-.27-4.33-.31-.27 0-.54-.02-.82-.04-.4-.03-.81-.04-1.22-.05h-1.3c-.12-.42-.24-.69-.41-.87-.1-.11-.22-.21-.33-.29l-.08-.07a2.83 2.83 0 0 0-1.78-.72c-1.14-.04-3.05.41-3.5 1.83-.01.03-.02.07-.02.1-.95-.02-1.94-.06-3.02-.12l-.29-.02c-.57-.03-1.17-.06-1.75-.13-.08 0-.17-.02-.26-.04h-.03c-.44-.07-1.05-.17-1.62 0-.46.14-.72.63-.58 1.09.14.46.63.72 1.09.58.18-.06.55 0 .85.04.12.02.24.04.35.05.63.07 1.28.11 1.85.14l.29.02c1.24.07 2.34.11 3.37.13l.06.12c.64 1.05 1.95 1.78 2.85 1.93.13.02.27.03.41.03.68 0 1.42-.27 1.99-.73.48-.38.75-.82.86-1.35h1.03c.32 0 .65.01.97.04h.12c.29.03.59.04.88.05 1.39.03 2.81.17 4.2.3l.72.07h.08c.45 0 .83-.34.87-.79a.875.875 0 0 0-.79-.95Zm-12.81-.03c.1-.31.9-.62 1.62-.62h.12c.3.02.5.1.73.29.05.04.11.09.19.15 0 0 .02.01.03.02.04.1.14.42.26 1.22 0 .02 0 .05.01.06-.04.06-.1.11-.18.18-.29.24-.74.38-1.01.33-.51-.08-1.32-.58-1.64-1.11-.19-.3-.13-.47-.11-.53Zm-8.94-6.35c.32.8.94 1.5 1.71 1.93.35.2.83.48 1.38.5h.12c.4 0 .76-.1 1.18-.24.23-.07.57-.19.84-.47.05-.05.1-.11.14-.17.15-.11.27-.26.33-.43l.04-.11c.1-.25.18-.5.26-.74l1.92.05c1.34.04 2.73.08 4.11.05 3.04-.06 6-.11 8.8-.14.48 0 .87-.4.87-.88 0-.46-.39-.84-.88-.87-2.8.03-5.77.08-8.82.14-1.33.03-2.69-.01-4.04-.05l-1.86-.05a3.34 3.34 0 0 0-.36-.57c-.41-.6-1.01-1.05-1.68-1.28l-.2-.07c-.47-.17-1.06-.37-1.7-.29-.68.08-1.63.45-2.06 1.22-.11.21-.2.43-.26.7-.22 0-.4.04-.57.11-.22.09-.39.25-.49.47-.1.22-.1.46-.02.68.09.22.26.4.47.49.21.09.44.09.62 0h.13Zm2.45-1.95c.25 0 .56.11.87.22l.17.06c.32.11.61.33.81.62l.08.11s.06.08.09.11c0 .03 0 .07-.02.14a.85.85 0 0 0-.29.43 12.748 12.748 0 0 0-.18.75c-.04.02-.1.04-.14.05l-.1.03c-.25.08-.42.12-.56.11-.13 0-.43-.18-.6-.28l-.09-.05c-.62-.35-1.24-1.26-.84-1.96.06-.11.37-.29.74-.34h.08ZM1.32 6.07c.18.07.39.08.58 0 .31-.01.62 0 .96 0h.05c.23 0 .46 0 .71.01.63 0 1.25-.01 1.88-.02h.17c1.51-.03 3.13-.07 5.25-.13l1.42-.04c.55-.02 1.11-.03 1.68-.04h.34c.1.24.24.47.39.7.32.45.75.68 1.06.85l.11.06c.06.03.12.07.18.1l.04.03c.3.19.68.42 1.18.46h.18c.99 0 1.79-.61 2.01-.79.51-.43.75-1 .93-1.57.97-.01 1.82 0 2.64.05.22.02.45-.06.62-.21a.885.885 0 0 0 .08-1.25.88.88 0 0 0-.6-.29c-.76-.04-1.56-.06-2.51-.05-.09-.31-.25-.55-.38-.71-.02-.04-.05-.07-.08-.1l-.22-.26a.768.768 0 0 0-.38-.27c-.19-.12-.39-.22-.61-.31-.54-.21-1.27-.42-2.18-.26-.94.17-1.77.65-2.27 1.34-.16.21-.27.46-.34.73-.64.01-1.28.03-1.91.05l-1.42.04c-2.11.06-3.73.1-5.23.12h-.17l-1.86.03h-.66c-.42-.01-.89-.03-1.38.01-.35.03-.66.35-.78.63-.08.22-.08.45.02.65s.27.35.49.44ZM15.96 4.4c.24-.32.67-.56 1.17-.65.38-.07.74-.02 1.25.17.1.04.2.09.28.14-.05.64-.16 1.27-.33 1.89v.03c-.28.21-.62.35-.85.32-.08 0-.27-.12-.4-.2l-.3-.18-.11-.06c-.24-.13-.38-.21-.46-.32-.26-.37-.43-.87-.23-1.14Z"/></symbol><symbol id="icon-instagram" viewBox="0 0 24 24"><title>icon-instagram</title><path d="M23.66 16.19c-.03-1.01-.1-2.02-.18-3.02-.08-1.07-.17-2.18-.18-3.26 0-.58-.03-1.17-.04-1.78-.02-.5-.03-1-.04-1.5 0-.47-.06-.94-.1-1.36-.03-.33-.07-.67-.08-1.01-.05-1.04-.41-1.8-.8-2.6l-.19-.39a.858.858 0 0 0-.7-.5c-.09-.06-.18-.12-.25-.17l-.14-.09c-.56-.39-1.05-.46-1.5-.48-1.04-.04-2.28-.07-3.47.03-2.03.18-4.43.37-6.83.46-.39.01-.79.02-1.18.02-1.15 0-2.33.02-3.53.3-.63.15-1.35.35-1.93.79-.91.7-1.51 1.85-1.8 3.42C.34 7.09.33 9.18.35 11.14v2.04c0 1.48-.01 3.15.1 4.75.1 1.46.25 3.68 1.74 5.02.5.45 1.06.74 1.73.88.49.11.95.12 1.4.12l.61.02c.24 0 .49.02.73.02.16 0 .32 0 .48-.01.28-.02.56-.05.83-.08h.04c.27-.04.55-.07.83-.08.62-.02 1.23 0 1.8 0l.72.02c.68.02 1.51.05 2.34.03 1.59-.04 3.28-.21 5.16-.52 1.64-.27 2.99-1.15 3.79-2.48.98-1.63 1.07-3.37 1.04-4.7ZM2.09 11.14c-.02-1.88 0-3.87.34-5.76.21-1.13.59-1.92 1.15-2.35.3-.23.81-.37 1.27-.48 1-.24 2.03-.25 3.13-.25h.09c.38 0 .77 0 1.15-.02 2.43-.09 4.86-.28 6.91-.46.5-.04 1.05-.06 1.68-.06.56 0 1.11.02 1.58.03.28.01.39.04.57.16l.19.13.27.18c.07.14.19.26.32.34.3.64.52 1.14.55 1.75.02.37.05.74.09 1.11v.04c.04.38.08.78.09 1.17 0 .46.02.91.04 1.37v.17c.02.58.04 1.16.05 1.73.01 1.14.1 2.28.19 3.38v.08c.08.93.15 1.9.18 2.84.04 1.65-.19 2.77-.79 3.75-.53.88-1.44 1.47-2.57 1.65-1.8.29-3.42.46-4.93.5-.72.02-1.44 0-2.24-.03l-.81-.02c-.6-.01-1.23-.03-1.84 0-.33.01-.63.05-1 .09-.24.03-.49.06-.73.07-.3.02-.61 0-.9 0l-.78-.02c-.38 0-.73-.01-1.05-.08-.36-.08-.66-.23-.92-.47-.96-.87-1.08-2.59-1.17-3.85-.11-1.54-.1-3.17-.09-4.62v-2.06Z"/><path d="M17.77 7.93c.12.01.23.02.34.02.55 0 1.06-.18 1.46-.51.52-.43.83-1.09.88-1.86.01-.2.05-.67-.13-1.08-.03-.07-.06-.14-.1-.19-.14-.22-.34-.38-.57-.47-.5-.35-1.04-.64-1.6-.88a.876.876 0 0 0-.98.21c-.09.09-.18.18-.27.26l-.03.03c-.36.33-.76.71-.98 1.36-.24.7-.17 1.44.2 2.03.38.6 1.02 1 1.78 1.09Zm-.32-2.55c.02-.07.05-.13.09-.19.05.03.1.06.15.08.37.17.73.18 1.03.16v.06c-.02.27-.11.49-.25.6-.11.09-.27.13-.48.1-.23-.03-.41-.13-.51-.29-.09-.15-.1-.33-.03-.53ZM7.08 18.05a3.779 3.779 0 0 0 3.08 1.59c.51 0 1.02-.1 1.51-.3.67-.27 1.28-.68 1.88-1.08.17-.12.34-.23.51-.33.66-.42 1.23-.86 1.73-1.35 1.57-1.52 2.34-3.25 2.19-4.86-.07-.76-.33-1.83-.85-2.55-.35-.49-.79-.73-1.15-.93a.87.87 0 0 0-.61-.97c-.28-.08-.57-.19-.87-.29-1.16-.4-2.47-.86-3.8-.62-.43.08-.89.19-1.32.31-.79.22-1.37.62-1.79.94l-.2.15c-.44.33-.93.7-1.31 1.21-.73.98-.99 2.27-.78 3.96.19 1.51.56 3.46 1.79 5.14Zm.4-8.05c.23-.3.6-.59.96-.86l.2-.16c.45-.34.8-.53 1.2-.65.41-.11.8-.21 1.16-.27.14-.03.29-.04.45-.04.77 0 1.62.3 2.46.59l.09.03c.03.19.12.36.25.5.29.28.59.45.88.61.25.14.46.25.58.42.29.4.47 1.16.53 1.69.14 1.45-.98 2.78-1.67 3.44-.42.4-.89.77-1.45 1.13-.18.11-.36.23-.54.36-.52.35-1.06.71-1.57.92-.92.38-1.93.1-2.51-.7-.98-1.34-1.29-2.94-1.46-4.32-.15-1.21 0-2.09.45-2.69Z"/></symbol><symbol id="icon-linkedin" viewBox="0 0 24 24"><title>icon-linkedin</title><path d="M.63 5.25c.13.18.3.43.58.6.28.17.58.24.83.3.06.01.12.03.17.04.27.08.55.13.82.13.51 0 1.02-.15 1.45-.43.61-.39.98-.91 1.21-1.68.06-.21.15-.49.14-.85 0-.3-.09-.56-.25-.78a.883.883 0 0 0-.27-.5c-.32-.29-.65-.56-.98-.81a.797.797 0 0 0-.56-.17l-.07-.03c-.12-.05-.25-.1-.4-.12-.61-.1-1.19.06-1.69.48C.48 2.39-.33 3.97.56 5.16l.07.09Zm2.12-2.49c.08-.07.15-.1.21-.1h.01c.03 0 .06.02.1.04.11.04.27.11.44.14l.07.05c.03.2.13.39.29.52.06.06.13.1.2.15-.01.04-.02.09-.04.14-.11.36-.23.55-.48.71-.25.16-.52.2-.82.11-.1-.03-.21-.06-.33-.08-.07-.02-.18-.04-.23-.05-.03-.03-.07-.09-.1-.13l-.1-.14c-.14-.18.22-.86.78-1.34Zm3.5 15.47c-.04-.37-.09-.76-.1-1.13v-.96c-.02-.79-.02-1.69-.08-2.57-.05-.75-.12-1.73-.21-2.74v-.13c-.03-.41-.07-1.03-.47-1.44-.49-.5-1.14-.37-1.45-.3l-.47.08c-.29.04-.6.09-.83.07-.09 0-.18-.01-.28-.02-.11 0-.42-.02-.49-.05a.858.858 0 0 0-.75 0c-.45.03-.8.4-.81.85-.04 1.51-.12 3.02-.24 4.46-.07.41-.08.81-.03 1.21.04.42.08.83.1 1.19 0 .5 0 .97.02 1.47.03.3.09.58.16.87v.05c.05.15.08.31.11.46.03.17.05.35.07.52.05.42.1.78.17 1.15.15.75.46 1.45 1.64 1.45h.67c.18 0 .36.01.54.01.45 0 .8-.03 1.13-.09.15-.03.3-.08.42-.12.08-.03.19-.06.24-.07.37-.03.68-.29.78-.64.19-.71.25-1.42.27-1.89.02-.58-.04-1.13-.11-1.66v-.04ZM2 18.66c-.05-.2-.09-.4-.11-.55-.01-.43-.02-.88-.02-1.41-.03-.44-.06-.88-.11-1.33-.03-.25-.02-.5.03-.8.11-1.23.19-2.49.23-3.74.08 0 .16 0 .25.01h.21c.43.06.83 0 1.19-.07l.36-.06h.06v.27c.08.79.14 1.65.22 2.71.06.83.06 1.66.07 2.46v.98c.02.46.07.92.12 1.34.06.49.11.95.1 1.4-.01.35-.05.69-.1 1.01h-.01c-.06.02-.12.04-.17.05-.37.07-.78.06-1.23.05h-.08c-.18 0-.36-.01-.54-.01h-.1v-.05c-.07-.34-.11-.68-.15-1.02-.02-.18-.05-.37-.07-.56-.03-.22-.08-.43-.14-.7Zm21.98-3.95c-.09-1.07-.28-2.46-.88-3.61l-.17-.34c-.2-.41-.42-.86-.75-1.25-.13-.16-.28-.3-.43-.43l-.05-.04c-.05-.05-.11-.1-.16-.15l-.14-.15c-.28-.3-.64-.68-1.07-.93-.34-.2-.69-.31-1-.41l-.13-.04c-1.1-.35-2.14-.45-3.16-.55-.95-.09-1.89-.04-2.82.16-.11.02-.25.05-.4.1-.01-.1-.03-.19-.04-.28l-.02-.14c-.05-.35-.12-.83-.46-1.16-.2-.19-.38-.25-.53-.29-1.06-.4-2.34-.53-3.51-.33-.45.08-.78.46-.77.89 0 .13.04.26.09.38-.2 1.87-.39 3.88-.44 5.89 0 .33-.03.66-.04.99-.03.64-.07 1.38-.04 2.11.06 1.48.2 2.96.33 4.4l.08.86v.16c0 .34.02 1.38 1 1.61.49.12.99.12 1.5.11h.58c.13 0 .27.02.41.03.47.03 1.06.08 1.61-.02a.873.873 0 0 0 .56-1.37c-.08-.11-.17-.21-.25-.29l-.04-.04c-.02-.15.02-.43.05-.61.03-.21.05-.42.06-.6.01-.42-.02-.85-.04-1.23-.02-.3-.04-.6-.04-.9 0-.49.05-1.02.11-1.53l.05-.51c.08-.88.35-1.73.72-2.29.25-.39.52-.52 1.06-.52.08 0 .17-.01.24-.04l.26-.08c.55-.17.81-.23 1.09-.15l.89.27c.19.06.19.06.25.15s.1.18.15.29l.02.04c.09.18.18.38.3.56.14.22.23.45.25.65l.06.53c.04.31.07.64.08.95.01.87-.02 1.75-.05 2.61v.05c-.02.54-.04 1.09-.05 1.63 0 .2-.03.4-.05.59-.02.16-.04.32-.05.48-.01.16-.02.33-.02.61 0 .2-.02.82.62 1.16.57.31 1.34.34 2.08.35.07 0 .13 0 .2-.01.11 0 .21-.01.35-.03.12-.02.24-.03.34-.02.03 0 .08.02.14.04h.03c.07.03.13.05.21.07.07.02.14.03.21.03.38 0 .71-.24.83-.6.43-1.29.53-2.65.6-3.92 0-.2.02-.39.03-.59v-.19c.02-.43.04-.88.08-1.31l.03-.27c.05-.47.1-.95.05-1.5Zm-4.02 6.33c0-.12.02-.23.04-.35v-.05c.04-.26.07-.51.07-.78 0-.54.03-1.07.05-1.6.03-.9.06-1.82.05-2.75 0-.41-.06-.84-.1-1.19l-.05-.43c-.06-.61-.32-1.12-.53-1.43-.06-.1-.11-.21-.17-.32l-.02-.04a4.11 4.11 0 0 0-.27-.51c-.34-.54-.74-.75-1.23-.89l-.89-.27c-.81-.25-1.5-.03-2.11.16l-.13.04c-1.06.04-1.82.46-2.38 1.31-.74 1.13-.95 2.53-1 3.08l-.05.46c-.06.57-.12 1.15-.12 1.74 0 .34.02.68.04 1.03v.05c.03.33.05.67.04 1 0 .12-.02.25-.04.38v.04c-.04.25-.08.53-.07.82l-.45-.03c-.22-.01-.44 0-.68 0-.23 0-.49 0-.73-.01 0-.1 0-.2-.01-.28l-.09-.94c-.13-1.39-.26-2.83-.32-4.22-.02-.63 0-1.26.04-1.95.02-.34.03-.69.04-1.03.05-1.91.23-3.79.41-5.54h.06c.58 0 1.14.09 1.63.26 0 .04.01.08.02.11.01.09.03.17.04.24.06.28.04.57.03.88 0 .16-.01.31-.01.47 0 .37.22.69.57.82.56.21 1-.16 1.28-.39.18-.11.38-.17.66-.22.74-.16 1.51-.21 2.28-.13.96.09 1.86.17 2.79.47l.15.05c.24.08.47.15.63.24.21.13.47.4.68.62l.16.17c.09.09.19.18.29.27l.03.03c.08.07.17.15.23.23.19.22.35.57.51.9l.03.07c.05.11.1.21.15.31.46.88.61 2.04.69 2.96.03.39 0 .76-.05 1.19l-.03.26c-.05.49-.06.98-.08 1.46 0 .24-.02.47-.03.7-.05.89-.11 1.83-.31 2.73-.16 0-.33.02-.53.04-.11.01-.17.02-.31.03-.21 0-.63 0-.95-.05 0-.06 0-.11.01-.17Z"/></symbol><symbol id="icon-menu" viewBox="0 0 24 24"><title>icon-menu</title><path d="M1.28 4.61h.21c.08 0 .15 0 .25.02.09 0 .18.01.27.02h.49c1 0 1.81.02 2.52.06.77.04 1.54.04 2.28.03h1.12c.52 0 1.04.01 1.56.02.43 0 .85.02 1.28.02h.67c1.41 0 2.8-.04 4.14-.12.82-.05 1.68-.05 2.44-.05h.31c.29 0 .57 0 .82.03.9.13 1.76.07 2.59.01l.62-.04c.23-.01.45-.12.6-.29.16-.17.23-.4.22-.63a.88.88 0 0 0-.32-.62.86.86 0 0 0-.61-.21l-.64.04c-.77.06-1.5.11-2.21 0-.4-.06-.78-.05-1.12-.05h-.26c-.78 0-1.67 0-2.54.05-1.48.08-3.07.11-4.7.11-.42 0-.84-.01-1.26-.02-.53-.01-1.06-.02-1.59-.02H7.33c-.76 0-1.48.01-2.21-.03-.82-.04-1.76-.07-2.92-.06-.04 0-.1 0-.16-.01h-.13c-.17-.01-.38-.03-.55-.02h-.2v.03c-.62.11-.75.52-.75.85 0 .23.09.45.26.62.19.19.41.28.64.26Zm21.83 6.52h-.76c-.95.02-1.94.03-2.93.14-.15.01-.3.02-.45.02-.24 0-.46.02-.68.04-.73.09-1.5.1-2.32.11-1.77.02-3.6-.09-5.38-.2h-.03c-.33-.02-.66-.05-.99-.08-.72-.06-1.43-.12-2.13-.12h-.05c-.33 0-.67-.01-1.06-.04-.32-.02-.65-.04-.97-.04-.76 0-1.53.02-2.17.04-.59.02-1.19.04-1.79.04-.48 0-.88.39-.88.88 0 .22.09.43.25.59a1 1 0 0 0 .7.28h.04c.58 0 1.16-.02 1.73-.04.74-.03 1.4-.04 2.09-.04.28 0 .56.02.84.04h.08c.36.03.71.04 1.07.04h.14c.64 0 1.27.05 1.96.11.34.03.68.06 1.09.08h.04c1.61.1 3.28.21 4.98.21h.52c.8 0 1.63-.02 2.46-.13.15-.02.3-.02.45-.03h.05c.19 0 .39-.01.58-.03.91-.1 1.81-.11 2.77-.12h.76a.904.904 0 0 0 .86-.9c0-.47-.4-.86-.89-.86Zm-.21 8.27-.82-.05c-.83-.06-1.81-.12-2.74-.11-.16 0-.32.01-.5.03-.23.01-.44.03-.66.01-.33-.03-.66-.06-.99-.1-.32-.04-.65-.07-.97-.1-.41-.04-.82-.06-1.23-.08h-.12c-.43-.03-.87-.06-1.3-.1-.81-.08-1.62-.1-2.42-.12h-.12c-.36-.01-.72-.02-1.08-.04l-.71-.04c-.78-.04-1.67-.08-2.53-.08s-1.71.04-2.82.14l-.41.03c-.63.05-1.29.11-1.93.14-.1 0-.2.01-.33.02-.11 0-.21.02-.34.02a.864.864 0 0 0-.88.86c0 .48.38.88.86.89.17 0 .35-.01.52-.03l.24-.02c.67-.03 1.35-.09 2-.14l.41-.04c1.06-.09 1.88-.13 2.67-.13s1.6.04 2.38.08l.78.04c.41.02.82.03 1.23.04h.03c.78.02 1.52.04 2.26.12.48.05.96.08 1.51.11.39.02.78.04 1.17.08.28.02.56.05.83.08h.09c.35.05.7.09 1.05.12.32.02.65 0 .93-.01.13 0 .27-.02.4-.02.82-.01 1.65.04 2.58.1l.83.06h.05a.875.875 0 0 0 .05-1.75Z"/></symbol><symbol id="icon-minus" viewBox="0 0 24.03 24.03"><title>icon-minus</title><path d="M23.91 11.99c-.23-.42-.59-.46-.91-.46-.09 0-.19 0-.27.01-1.28.04-5.24.12-5.66.07-.11-.01-.22-.03-.33-.05h-.06c-.26-.05-.57-.1-.87-.12l-.52-.03c-.57-.03-1.17-.06-1.76-.12-.88-.08-1.78-.09-2.64-.1h-.04c-.61 0-1.17 0-1.71-.04-.67-.03-1.35-.1-2.01-.17h-.04c-.95-.1-1.93-.2-2.89-.2h-.12c-.47-.01-1-.04-1.54-.09-.41-.04-.92-.08-1.42-.09H.89c-.48 0-.88.39-.88.88s.39.88.88.88.98.04 1.5.09l.33.03c.43.04.89.09 1.36.06.92.01 1.79.08 2.82.19.7.07 1.43.15 2.15.18.59.03 1.2.03 1.79.04.84 0 1.71.01 2.53.09.6.06 1.2.09 1.78.12l.56.03c.21.01.42.04.64.08h.05c.15.03.29.05.44.07.03 0 1.34.06 2.84.06 1.33 0 2.37-.05 3.07-.14h.49v-.09c.33-.07.53-.17.62-.29.19-.27.21-.62.05-.91Z"/></symbol><symbol id="icon-pen" viewBox="0 0 24 24"><title>icon-pen</title><path d="M23.87 7.82c.19-.69.17-1.48-.07-2.28-.26-.9-.74-1.59-1.36-2.02-.65-.44-1.4-.57-2.1-.63-.46-.05-1.85-.17-2.8.63-.17.02-.32.08-.43.18-4.82 3.93-8.87 7.02-12.77 9.72-.04.03-.08.06-.12.1l-.14.14c-.02 0-.03.02-.04.02-.15.09-.27.22-.34.38a18.79 18.79 0 0 0-3.43 5.29c-.05.12-.07.25-.06.39-.12.15-.19.32-.2.5 0 .23.07.46.23.63.16.17.37.27.61.28.22 0 .44.01.67.01 2.22 0 4.49-.45 6.54-1.3.13-.02.24-.07.33-.13 4.41-2.97 8.8-6.11 13.04-9.35.18.22.5.65.43.88-.05.17-.32.39-.5.54-2.12 1.75-4.33 3.44-6.6 5.03-.39.28-.49.82-.21 1.22.27.38.84.48 1.22.21 2.3-1.61 4.56-3.33 6.71-5.11.35-.29.88-.72 1.07-1.42.2-.69.02-1.41-.54-2.17l.18-.3c.31-.52.55-.94.69-1.43Zm-3.62 1.25c-3.94 3.01-8.05 5.96-12.22 8.78a26.25 26.25 0 0 1-2.39-3.21c3.68-2.57 7.47-5.46 11.93-9.07.89.99 1.72 2.08 2.67 3.5Zm1.94-1.72c-.07.24-.21.5-.42.85-.94-1.41-1.79-2.54-2.66-3.53.28-.06.64-.08 1.06-.04.47.04.96.11 1.28.33.36.25.56.72.67 1.07.14.49.17.94.06 1.31ZM6.37 18.59c-1.35.45-2.76.71-4.19.77.6-1.25 1.34-2.41 2.21-3.45.64.97 1.29 1.85 1.98 2.68Z"/></symbol><symbol id="icon-phone" viewBox="0 0 24 22.93"><title>icon-phone</title><path d="M23.33 3.42c-.7-1.07-1.54-1.76-2.44-2.49l-.43-.35a.967.967 0 0 0-.49-.2.916.916 0 0 0-.32-.18c-.59-.19-1.13-.32-1.89-.07l-.16.05c-.46.15-.98.32-1.44.7l-.2.17c-.81.66-1.83 1.49-2.16 2.75l-.05.2c-.13.46-.29 1.03-.16 1.64.13.58.38 1.19.63 1.77.21.48.5.96 1.3 1.16-.06.08-.12.18-.2.29l-.08.11c-.2.29-.44.57-.68.86l-.34.41c-.93 1.15-2.02 2-3.06 2.74-.3.21-.59.44-.89.67-.83.64-1.62 1.24-2.5 1.59h-.02c-.05-.19-.12-.38-.23-.58-.3-.55-.68-1.11-1.41-1.42-1.11-.47-2.01-.17-2.81.11-.13.04-.25.09-.38.13-.37.12-.78.25-1.21.75-.25.29-.44.61-.61.91l-.13.21c-.1.17-.22.32-.34.47l-.02.03c-.14.18-.26.34-.38.52-.48.73-.08 1.32.05 1.5l.02.03s.03.04.04.07c.04.09.07.25.09.41v.03c.04.22.08.47.18.72l.04.12c.16.41.35.93.65 1.32.22.29.49.55.73.78l.22.21c.75.74 1.71 1.19 2.87 1.34.21.03.42.04.64.04.9 0 1.96-.21 3.14-.64 1.32-.47 2.46-1.17 3.77-2.07 1.63-1.12 3.17-2.3 4.87-3.62.55-.43 1.04-.9 1.54-1.38l.44-.42c.96-.91 1.74-1.82 2.37-2.79.79-1.2 1.38-2.38 1.76-3.52.34-1.04.37-2.06.35-2.84-.02-.88-.21-1.53-.67-2.23Zm-6.67 6.54.07-.09c.54-.74.82-1.24.76-1.74-.06-.54-.64-.99-.75-1.05-.26-.16-.54-.19-.73-.21h-.06c-.03 0-.05-.01-.07-.02-.01-.02-.03-.06-.06-.13-.16-.37-.43-1-.53-1.46-.04-.18.05-.52.13-.8l.06-.23c.19-.71.89-1.28 1.57-1.84l.21-.17c.21-.17.51-.27.87-.38l.17-.06c.25-.08.37-.06.82.08.07.02.13.03.2.04 0 0 .02.01.03.02l.44.36c.82.67 1.53 1.24 2.08 2.09.28.43.37.76.38 1.31.02.95-.06 1.65-.27 2.26-.33.99-.85 2.04-1.56 3.11-.56.85-1.25 1.66-2.11 2.48l-.45.43c-.47.45-.91.88-1.4 1.26-1.68 1.3-3.2 2.47-4.79 3.56-1.2.82-2.23 1.45-3.37 1.86-1.2.43-2.2.6-2.96.51-.77-.1-1.38-.37-1.85-.84l-.25-.24c-.2-.19-.4-.38-.54-.56-.15-.19-.29-.57-.4-.88l-.04-.11c-.04-.1-.06-.24-.08-.4-.04-.25-.09-.56-.23-.87-.03-.06-.05-.11-.08-.17.04-.06.09-.11.13-.17.18-.23.33-.43.48-.67l.15-.25c.14-.24.27-.46.42-.64.09-.11.1-.12.41-.21.15-.05.29-.09.43-.14.72-.24 1.09-.36 1.55-.16.2.09.35.26.56.65.05.1.09.24.13.42.04.18.09.36.16.55.12.4.37.65.77.75.41.1.79-.07 1.25-.3l.12-.06c1.12-.44 2.04-1.15 2.93-1.83.28-.21.56-.43.84-.63 1.14-.82 2.34-1.76 3.39-3.06l.33-.39c.26-.31.53-.63.77-.97Z"/></symbol><symbol id="icon-play" viewBox="0 0 24 24"><title>icon-play</title><path d="m19.99 11.65-.15-.11c-1.29-.95-2.51-1.85-3.65-2.89a37.61 37.61 0 0 0-1.75-1.49c-.93-.76-1.83-1.55-2.7-2.3-1.06-.92-2.19-1.79-3.27-2.63l-1.12-.86c-.11-.08-.22-.16-.34-.24l-.05-.03c-.09-.06-.18-.12-.26-.19a.821.821 0 0 0-.56-.22.862.862 0 0 0-.8-.67.804.804 0 0 0-.62.23c-.18.16-.28.38-.29.61l-.05 1.31c-.16 3.78-.32 7.68-.24 11.56.03 1.16-.02 2.36-.06 3.43v.13c-.03.65-.05 1.29-.06 1.94 0 .48-.05.97-.09 1.44v.08c-.03.34-.06.67-.08 1.01-.01.22-.03.47-.1.77-.05.17-.13.5-.03.86.07.24.27.44.54.55.1.04.2.06.32.06s.23-.04.33-.08h.02c.22 0 .42-.08.59-.22.22-.2.53-.39.87-.59.17-.1.33-.2.48-.3 1.34-.89 2.37-1.61 3.31-2.33.57-.44 1.17-.87 1.74-1.29.71-.52 1.52-1.1 2.28-1.7.52-.41 1.07-.77 1.68-1.16 1-.65 1.93-1.43 2.83-2.19.43-.36.87-.73 1.32-1.09.21-.17.33-.43.33-.7 0-.27-.14-.53-.36-.69ZM6.1 2.62c.06.04.12.08.17.12l1.06.82c1.08.84 2.2 1.7 3.25 2.61.88.77 1.8 1.56 2.73 2.33.63.52 1.16.97 1.68 1.44 1.02.93 2.1 1.75 3.04 2.44-.16.13-.32.27-.47.4-.9.76-1.75 1.47-2.66 2.06-.6.39-1.22.79-1.81 1.25-.71.56-1.46 1.1-2.18 1.62l-.05.03c-.59.42-1.19.86-1.78 1.31-.91.69-1.9 1.39-3.22 2.26-.09.06-.18.12-.28.17l.06-.71c.04-.51.09-1.04.1-1.56.01-.68.04-1.36.06-2.06.04-1.14.09-2.33.06-3.51-.08-3.74.08-7.61.22-11.05Z"/></symbol><symbol id="icon-plus" viewBox="0 0 24.03 24.03"><title>icon-plus</title><path d="M23.14 10.37c-3.19 0-6.57-.01-10.53-.04.02-.36.06-.73.1-1.13.06-.54.12-1.1.14-1.7.01-.45.02-.87.07-1.31.14-1.36.12-2.8.11-4.07V1.01c0-.48-.4-.87-.88-.87s-.87.39-.87.88v1.16c.02 1.28.03 2.61-.09 3.86-.05.5-.06.96-.08 1.46-.01.49-.07.99-.13 1.55-.05.42-.08.85-.11 1.29-3.43-.02-6.57-.04-9.73-.04H.9c-.48 0-.88.39-.88.88s.39.88.88.88c3.3 0 6.65.02 9.91.04 0 .38-.02.75-.03 1.13-.05 1.56-.1 3.18-.02 4.79.05 1.09.03 2.21.01 3.3 0 .58-.02 1.15-.02 1.73 0 .48.39.88.88.88s.88-.39.88-.88c0-.56 0-1.13.02-1.72.02-1.11.04-2.25-.02-3.39-.07-1.55-.02-3.13.02-4.67l.03-1.16c3.16.02 6.4.04 9.59.04h1c.23 0 .45-.09.62-.26s.26-.39.26-.62c0-.48-.39-.87-.88-.87Z"/></symbol><symbol id="icon-reset" viewBox="0 0 24 24"><title>icon-reset</title><path d="M19.81 7.93c-.24-.26-.47-.53-.69-.79-.83-.98-1.68-1.99-3.11-2.45-1.87-.6-3.39-.7-4.64-.29-.63.21-1.11.52-1.57.83-.16.11-.33.22-.5.32-.08.05-.15.11-.22.2-.67.42-1.43.9-2.09 1.49l-.02.02C7.5 6 8.06 4.6 8.7 2.91l.66-1.72c.08-.22.08-.46-.02-.67a.872.872 0 0 0-1.61.04l-.66 1.72C6.32 4.26 5.54 6.3 4.65 8.26c-.02.05-.05.1-.09.18-.17.32-.39.72-.35 1.19.03.36.27.66.62.76.53.16 1.11.24 1.78.24.58 0 1.18-.06 1.73-.11.53-.05 1.03-.1 1.48-.1 1.16 0 2.5 0 3.78-.17.23-.03.44-.15.58-.34.14-.19.2-.42.17-.65a.883.883 0 0 0-.99-.75c-1.14.15-2.38.15-3.54.15-.55 0-1.1.05-1.62.1h-.06l-.25.03.03-.03c.08-.08.16-.16.25-.23.56-.5 1.24-.93 1.91-1.35l.6-.38c.08-.05.14-.12.19-.18.38-.25.7-.45 1.06-.57.89-.29 2.05-.2 3.55.29.96.31 1.58 1.05 2.32 1.92.26.31.49.58.75.85.94 1 1.38 2.36 1.45 4.41.06 1.75-.47 3.41-1.52 4.81-1.25 1.67-2.54 2.73-3.82 3.17-.57.19-1.18.34-1.92.47l-.46.08c-.78.14-1.51.28-2.17.08-.39-.27-.8-.53-1.19-.74-.46-.28-.95-.54-1.42-.73-1.09-.5-2.04-1.54-2.96-2.55l-.03-.04c-.25-.28-.5-.55-.74-.8a.881.881 0 0 0-1.24-.02c-.35.34-.35.89-.02 1.24.22.23.44.47.67.72l.07.07c.99 1.08 2.11 2.31 3.54 2.97.43.18.83.39 1.25.64.41.22.8.47 1.16.73.06.05.13.08.21.11.44.16.91.24 1.43.24.62 0 1.23-.11 1.76-.21l.43-.08c.83-.14 1.53-.31 2.18-.53 1.63-.55 3.2-1.82 4.66-3.78a9.275 9.275 0 0 0 1.87-5.92c-.05-1.56-.31-3.82-1.92-5.55Z"/></symbol><symbol id="icon-search" viewBox="0 0 24 24"><title>icon-search</title><path d="M23.97 19.37c-.1-.38-.39-.68-.76-1.03l-.11-.11a8.9 8.9 0 0 0-1.24-1.1c-.59-.43-1.18-.84-1.8-1.25l-.04-.04-.06-.03-.18-.12c-.23-.15-.46-.31-.68-.45-.49-.31-.96-.65-1.43-.99-.63-.45-1.13-.8-1.62-1.1.03-.06.06-.13.09-.2.04-.05.07-.1.1-.16l.12-.24c.31-.61.66-1.29.73-2.11.03-.29.04-.57.05-.86 0-.39 0-.82-.03-1.3-.09-1.75-.9-3.48-2.24-4.76-.77-.74-1.62-1.3-2.43-1.79-.42-.26-.83-.5-1.37-.64-.26-.07-.52-.11-.78-.15h-.04C10.1.91 9.94.88 9.78.85 9.29.74 8.73.61 8.07.69c-.59.07-1.11.17-1.6.32l-.32.1c-1.06.33-2.16.68-3.14 1.46l-.19.15c-.35.27-.74.58-1.05 1.02-.27.38-.51.8-.77 1.34C.44 6.26.21 7.49.05 8.55c-.13.9-.02 1.91.34 3.09.25.81.55 1.48.91 2.05.42.65.97 1.16 1.51 1.66.16.15.32.29.47.44 1.35 1.31 2.96 2.06 4.65 2.16.61.03 1.19-.06 1.7-.14l.41-.06c.69-.1 1.31-.28 1.96-.59l.13-.06c.36-.16.68-.32 1-.53.04.06.08.12.13.18.17.22.37.42.56.63l.1.1c.26.28.54.54.79.77l.04.04c.21.2.44.41.64.62.28.3.56.61.86.96.34.38.69.78 1.05 1.15.32.33.67.6 1.02.86.28.21.54.41.76.63.02.02.05.05.07.08l.02.03c.19.23.6.71 1.23.71.09 0 .17 0 .26-.03.47-.1.81-.4 1.05-.61l.13-.11c.26-.21.51-.42.78-.77.27-.35.53-.71.84-1.13.24-.28.63-.74.48-1.31Zm-1.91.29s-.04.05-.05.06c-.26.37-.5.69-.74 1.01-.15.19-.27.3-.51.49l-.19.16c-.02.02-.05.05-.08.07-.05-.06-.11-.12-.16-.18-.31-.31-.65-.57-.97-.81-.29-.22-.56-.43-.79-.66-.09-.09-.18-.19-.27-.29l-.07-.08c.5-.54.98-1.1 1.45-1.69.37.26.75.53 1.16.82.33.24.65.53.99.88.04.05.11.11.18.18l.05.05Zm-10.79-4.09c-.5.23-.95.37-1.47.44l-.48.07c-.45.07-.86.15-1.27.11-1.26-.07-2.48-.65-3.53-1.67-.17-.16-.34-.32-.52-.48-.47-.43-.92-.84-1.22-1.31-.27-.43-.51-.97-.71-1.62-.29-.93-.38-1.69-.28-2.32.13-.92.34-2 .8-2.95.22-.45.42-.8.62-1.09.16-.23.43-.44.71-.66l.19-.15c.73-.58 1.62-.86 2.57-1.16l.32-.1c.37-.12.79-.2 1.26-.25.07 0 .14-.01.21-.01.27 0 .56.06.93.14.19.04.38.08.61.11h.07c.18.04.36.07.54.12.31.08.59.25.91.44.84.51 1.52.98 2.13 1.56 1 .96 1.64 2.3 1.7 3.58.02.46.03.84.02 1.19 0 .26-.02.49-.04.72-.05.48-.29.96-.55 1.49a.9.9 0 0 0-.22.36c-.17.54-.56 1.01-.98 1.51-.15.17-.29.35-.43.53-.14.18-.29.34-.44.5-.09.06-.17.13-.22.2l-.05.04c-.29.24-.64.4-1.04.59l-.14.07Zm3.94.71-.12-.13c-.16-.17-.32-.34-.46-.51-.03-.04-.07-.09-.1-.14l-.02-.03s-.04-.07-.07-.11c.03-.04.07-.08.1-.12.11-.14.22-.27.33-.41l.06-.07.13-.16c.57.35 1.11.74 1.58 1.07.49.35.99.71 1.51 1.04l.07.04c-.38.47-.77.93-1.17 1.37v-.02c-.13-.13-.25-.27-.38-.4-.24-.25-.49-.49-.74-.72l-.11.07.08-.09c-.22-.21-.47-.44-.7-.69Zm-3.76-.66Z"/><path d="M10.67 4.96c-1.54-.55-2.03-.62-2.29-.6-.1 0-.39-.03-.7.17a.878.878 0 0 0 .72 1.58c.03 0 .34.02 1.67.5.01 0 .12.04.13.04.08.03.16.04.24.04.36 0 .68-.24.8-.61.15-.44-.12-.95-.58-1.12Zm-5.35.29-1.09.66a.88.88 0 0 0-.4.54c-.06.23-.02.46.1.66.16.26.44.42.75.42.16 0 .32-.04.45-.13l1.09-.66c.2-.12.34-.31.4-.54.06-.23.02-.46-.1-.66a.875.875 0 0 0-1.2-.29Z"/></symbol><symbol id="icon-share" viewBox="0 0 24 24"><title>icon-share</title><path d="M23.74 7.64a82.94 82.94 0 0 0-3.55-3.35 10.5 10.5 0 0 0-.74-.58l-.04-.03c-.18-.14-.38-.28-.55-.43-.23-.2-.44-.43-.68-.7-.26-.29-.5-.55-.76-.79-.13-.12-.28-.22-.43-.32-.07-.05-.22-.15-.25-.19a.924.924 0 0 0-.64-.32c-.14 0-.39.07-.51.12-.34.13-.57.46-.56.83.02.93-.02 1.94-.35 3.08-1.28-.04-2.57-.06-3.82-.07h-.05s-.12.01-.19.03c-.3.08-.6.19-.85.32-.88.34-1.88.72-2.82 1.18-1.75.84-3.52 1.86-4.66 3.6-1.14 1.75-1.83 3.5-2.17 5.55-.19 1.13-.12 2.3 0 3.4.05.51.17 1 .26 1.43.14.6.27 1.17.24 1.73a.9.9 0 0 0 .22.63c.16.17.37.28.6.29h.05c.47 0 .85-.37.87-.83v-.2c.35-.13.59-.48.57-.86-.04-.92.27-1.88.61-2.88.42-1.2.9-2.2 1.45-3.05.68-1.04 1.68-2.01 3.03-2.95.69-.48 1.54-1.07 2.38-1.33.55-.18 1.02-.28 1.46-.33.75-.08 1.78.36 2.61.72l.2.09c.05 1.11.06 2.15.01 3.27-.01.28.12.55.34.73.23.18.53.23.79.14.45-.14.85-.53 1.33-1.03l.04-.04c.06-.07.11-.12.15-.16 1.89-1.69 3.82-3.32 6.32-5.4.19-.16.3-.39.31-.63a.852.852 0 0 0-.26-.66Zm-1.92.56c-1.72 1.44-3.55 2.98-5.33 4.56 0-.64-.03-1.29-.07-2a.874.874 0 0 0-.55-.76c-.18-.07-.38-.16-.6-.25-1.05-.46-2.36-1.02-3.58-.88-.57.06-1.14.19-1.8.4-1.08.35-2.05 1.02-2.84 1.56-1.55 1.07-2.69 2.19-3.5 3.43-.64.97-1.18 2.1-1.64 3.43-.04.11-.08.23-.12.34-.05-.71-.06-1.48.05-2.18.3-1.8.91-3.35 1.91-4.86C4.66 9.61 6.19 8.74 7.71 8c.85-.41 1.71-.74 2.7-1.13l.07-.03c.16-.08.33-.14.51-.2 1.38.01 2.83.04 4.3.09.37 0 .72-.24.84-.57.32-.85.51-1.71.6-2.62.03.03.06.07.09.1l.06.07c.26.29.52.58.84.86.23.2.48.38.72.56.2.15.41.3.59.46.91.8 1.8 1.63 2.79 2.6Z"/></symbol><symbol id="icon-stop" viewBox="0 0 24 24"><title>icon-stop</title><path d="M23.23 7.28c-.04-.91-.05-1.76-.05-2.62 0-.1 0-.21.02-.34.03-.54.06-1.15-.14-1.64a.875.875 0 0 0-1.14-.46.88.88 0 0 0-.47 1.14c.04.08.04.38 0 .86 0 .16-.02.3-.02.42 0 .9 0 1.79.05 2.7.12 2.94.1 5.94.09 8.86-.01 1.67-.02 3.56 0 5.42 0 .09.03.17.05.25h-.02c-.52-.05-.99.11-1.34.22-.21.07-.4.14-.55.14-.47.03-.99-.09-1.53-.22h-.05c-.23-.07-.45-.12-.67-.16-.44-.1-.89-.17-1.29-.21l-.14-.02c0-.11-.02-.22-.04-.33v-.04a.892.892 0 0 1-.03-.22c-.03-.92.05-1.89.12-2.84l.02-.24c.1-1.24.11-2.49.12-3.7 0-.47 0-.93.01-1.4.06-3.37.14-6.82.25-10.56.02-.01.04-.03.05-.04.1-.02.19-.07.27-.12.14-.1.34-.17.77-.01.1.04.17.06.31.06h4.07c.48-.01.87-.4.87-.89 0-.48-.39-.87-.88-.87h-3.92c-.96-.3-1.67-.06-2.08.19-.2.07-.36.19-.65.38l-.17.12a.89.89 0 0 0-.38.7c-.11 3.78-.2 7.49-.26 11.02 0 .48-.01.95-.01 1.42v.05c0 1.16-.02 2.36-.11 3.53l-.02.24c-.08.99-.16 2.01-.13 3.04 0 .13.02.28.05.46.01.1.04.35.04.43-.2.32-.16.72.1 1.03.2.23.51.34.83.28.23.03.46.06.71.1.38.04.77.11 1.15.19l.55.12.08.02c.58.14 1.19.29 1.85.29h.23c.38-.02.72-.13 1.02-.23.12-.04.23-.08.34-.11.13.05.29.07.44.05.46-.05.82-.54.77-1.04 0-.07-.03-.12-.05-.19.04 0 .07.02.11.02h.01c.23 0 .45-.1.62-.26s.25-.39.25-.62c-.02-1.85 0-3.73 0-5.41.02-2.92.04-5.94-.09-8.92ZM8.58.05C8.14-.01 7.71 0 7.33.01h-.07c-.19 0-.38.01-.57 0-.55-.02-1.01-.03-1.55.09-.31.06-.6.14-.88.22-.35.1-.71.19-1.16.26-.3.03-1.01.08-1.52.72-.11.14-.18.32-.19.5-.06 1.23-.17 2.47-.26 3.68C.94 7.82.75 10.24.8 12.65c0 .34 0 .68-.02 1.02-.02.38-.04.81-.02 1.25l.03.67c.03.62.06 1.21.02 1.81l-.04.59c-.06.98-.12 2-.07 3.02.02.46.4.82.85.83.6.01 1.24.17 1.92.33h.04c.2.06.4.1.6.15l.23.05c.76.17 1.63.36 2.56.31l.29-.02c.12-.01.46-.04.55-.03a.878.878 0 0 0 1.21-.09c.06-.07.11-.14.14-.22h.1c.48 0 .86-.37.88-.84.03-.92.07-1.84.11-2.77v-.28c.11-2.13.2-4.33.21-6.51 0-.5-.01-1.01-.02-1.54-.02-.59-.03-1.11-.02-1.64 0-.62.04-1.25.06-1.88.04-.94.08-1.9.06-2.88v-.56c.02-.8.04-1.79-.5-2.59C9.58.25 9.05.11 8.58.05Zm.03 10.38c.01.5.03 1 .02 1.48 0 2.12-.1 4.29-.2 6.39l-.02.38c-.03.77-.07 1.54-.1 2.31-.22-.08-.47-.11-.77-.11-.21 0-.4.02-.57.03l-.21.02c-.65.05-1.32-.11-2.03-.26l-.28-.06c-.2-.04-.41-.09-.62-.14-.47-.11-.95-.23-1.44-.3 0-.71.05-1.43.09-2.07l.04-.6c.04-.69 0-1.36-.02-2.01l-.03-.63c-.01-.36 0-.72.02-1.07v-.03c.02-.38.04-.76.03-1.14-.05-2.33.14-4.71.33-7 .1-1.21.18-2.23.24-3.27.04 0 .08 0 .13-.01.08 0 .15-.01.2-.02.46-.07.87-.18 1.28-.29h.03c.24-.08.5-.14.75-.2.33-.07.66-.06 1.12-.05.24.01.48 0 .71 0h.06c.34 0 .67-.02.96.02.15.02.18.04.17.03.22.33.21.99.2 1.58v.64c.03.93-.02 1.9-.06 2.76v.08c-.03.6-.06 1.23-.06 1.84 0 .55 0 1.1.02 1.71Z"/></symbol><symbol id="icon-stories" viewBox="0 0 24 24"><title>icon-stories</title><path d="M23.96 9.54v-.05c-.02-.38-.04-.78-.03-1.16l.02-.43c.04-.68.08-1.38-.08-2.16l-.06-.3c-.1-.53-.22-1.13-.44-1.67-.19-.45-.64-1.05-1.71-1.32a.897.897 0 0 0-.46 0c-.25-.02-.49-.05-.76-.07-1.29-.13-2.62-.26-3.96-.17-.77.06-1.46.1-2.16.11-.66 0-1.32.03-1.99.05-.65.02-1.31.04-1.96.05H9.32c-.72 0-1.54-.01-2.34.06l-.55.04c-.66.05-1.34.09-2.07.31-.73.21-1.31.47-1.83.8-.82.52-1.05 1.14-1.26 1.9-.22.8-.35 1.55-.5 2.37l-.03.18c-.06.32-.13.63-.2.95-.14.63-.29 1.29-.34 1.98 0 .14-.03.28-.04.42v.09c-.04.22-.06.45-.08.67v.57c0 .11.01.21 0 .32 0 .14-.02.28-.04.42v.05c-.06.51-.12 1.09.03 1.69.19.74.74 1.44 1.2 1.97.57.65 1.56.81 2.26.88.47.05.92 0 1.33-.04-.18.43-.36.77-.55 1.07-.2.32-.48.6-.79.91l-.25.26c-.19.2-.27.46-.23.73.04.27.2.5.43.63.17.1.36.15.56.15.23 0 .44-.07.59-.11.34-.1.67-.22 1.04-.35l.35-.13c.97-.34 1.82-.81 2.53-1.38.19-.15.37-.31.56-.47l.3-.25c.1 0 .21-.01.31-.02.23-.01.45-.03.67-.06.2-.02.39-.05.59-.06.39-.02.78-.05 1.17-.08h.06c.55-.05 1.12-.09 1.69-.11.26-.01.52 0 .78 0h.06c.31.01.64.02.96.01.22 0 .47.01.68.03.49.04 1.05.09 1.64-.07.21-.06.45-.05.73-.04.19 0 .42.01.65 0 .55-.04 1.07-.14 1.56-.31.77-.27 1.24-.93 1.58-1.41l.06-.09c.3-.42.44-.81.58-1.2l.05-.13c.04-.12.09-.24.14-.36.14-.34.31-.77.39-1.22.11-.64.13-1.27.15-1.9 0-.32.02-.65.04-.96.04-.56.01-1.11-.02-1.6Zm-5.09 7.44h-.05c-.41-.02-.81-.02-1.25.1-.28.08-.63.05-1.03.02-.26-.02-.57-.04-.87-.04h-.88c-.3-.01-.61-.02-.92-.01-.63.02-1.27.07-1.83.11-.38.03-.75.06-1.14.08-.24.01-.47.04-.71.07l-.15.02c-.25.03-.48.06-.7.05-.33 0-.58.04-.93.32l-.41.35c-.17.15-.34.29-.52.43-.35.28-.75.54-1.2.75.23-.48.42-.97.6-1.44.32-.76-.03-1.2-.26-1.39a1.1 1.1 0 0 0-.71-.23c-.19 0-.38.03-.56.06l-.25.04c-.45.06-.96.13-1.38.1-.91-.09-1.09-.27-1.12-.3-.19-.22-.71-.81-.81-1.24-.08-.3-.04-.68 0-1.08.02-.19.04-.38.05-.56v-.54c0-.12-.01-.24 0-.36 0-.17.03-.35.05-.52v-.04c.03-.2.05-.4.07-.59.04-.55.16-1.11.3-1.72.08-.33.15-.68.21-1.02l.03-.18c.14-.76.27-1.48.47-2.22.16-.59.23-.72.5-.89.38-.24.82-.43 1.39-.6.55-.16 1.11-.2 1.71-.24l.56-.04c.72-.07 1.46-.06 2.18-.05h1.08c.66 0 1.32-.03 1.98-.05.65-.02 1.31-.04 1.96-.05.74-.01 1.46-.06 2.26-.12 1.2-.08 2.45.04 3.66.16.38.04.77.08 1.15.11h.09c.13.06.22.13.25.2.15.38.25.87.34 1.35l.06.31c.11.56.08 1.1.05 1.71l-.02.45c-.02.45 0 .89.03 1.4.02.48.05.93.02 1.37-.03.35-.04.7-.04 1.04-.02.58-.03 1.12-.12 1.65-.05.27-.16.56-.29.87-.06.14-.11.28-.16.41l-.05.14c-.12.32-.2.55-.36.78l-.07.09c-.22.3-.49.68-.73.77-.34.12-.71.19-1.1.21-.15.01-.29 0-.44 0Z"/><path d="M8.78 8.76c.61.57 1.42.71 2.17.38.18-.08.34-.17.48-.25l.04-.03c.82.71 1.65 1 2.63.92l.52-.06h.05c.39-.06.72-.11 1.05-.04.55.1 1.06.06 1.5.02.18-.02.38-.03.57-.04.23 0 .45-.1.61-.27.16-.17.25-.39.25-.62 0-.47-.4-.86-.89-.86-.24 0-.47.02-.69.04-.38.03-.71.06-1.03 0-.62-.11-1.15-.04-1.62.02l-.47.06c-.51.04-.9-.12-1.37-.54-.88-.79-1.69-.32-2.03-.12l-.03.02c-.08.04-.16.09-.25.13-.08.04-.26.11-.53-.38-.1-.2-.32-.61-.84-.66-.51-.04-.83.3-1.03.55a.898.898 0 0 0-.95-.55c-.68.11-1.87.57-2.15 2.52-.03.23.03.46.17.65s.34.31.57.34h.13c.43 0 .8-.32.87-.75V9.2c.21.21.49.34.79.37.67.05 1.16-.42 1.48-.83Zm9.82 3.7c-.55-.06-1.11-.02-1.65.12-.08.02-.16.05-.22.1-.12.07-.21.09-.44.05-.09 0-.22-.09-.41-.21-.27-.17-.6-.38-1.04-.47-.57-.11-1.1 0-1.52.09-.33.07-.65.14-.86.08a.636.636 0 0 1-.16-.14c-.16-.16-.41-.39-.79-.51a.909.909 0 0 0-.84.17l-.09.07a.92.92 0 0 0-.52-.34c-.77-.17-2.19-.14-3.04 1.95-.18.45.03.96.48 1.14.11.04.22.07.33.07.36 0 .67-.21.81-.54.12-.3.26-.53.4-.69.12.21.33.45.71.61.21.09.46.09.68 0 .32-.13.58-.29.85-.49.17.14.4.3.71.38.62.17 1.21.04 1.68-.06.31-.06.62-.13.83-.09.12.02.26.12.43.22.29.19.66.43 1.08.46.5.11 1.02.04 1.49-.21.29-.07.59-.09.9-.05.22.04.45-.02.63-.16a.92.92 0 0 0 .34-.61.83.83 0 0 0-.19-.64.853.853 0 0 0-.59-.32Z"/></symbol><symbol id="icon-tiktok" viewBox="0 0 24 24"><title>icon-tiktok</title><path d="M22.2 5.38a.891.891 0 0 0-.95.12c-.35.3-1.19-.1-1.8-.66A11.696 11.696 0 0 1 16.6.65a.864.864 0 0 0-1.04-.52c-.83.23-1.75.2-2.57-.09a.879.879 0 0 0-.8.12c-.23.17-.37.43-.36.72l.1 12.69c0 1.09.02 2.22-.27 3.24-.29 1.02-.87 1.81-1.61 2.16-.93.45-2.23.12-2.88-.74-.65-.85-.67-2.18-.04-3.1.62-.91 1.85-1.42 2.98-1.22.26.05.55-.04.74-.22.2-.18.3-.46.27-.72-.08-.88-.17-1.79-.43-3.31a.898.898 0 0 0-.64-.7c-3.52-.94-7.51 1.49-8.52 5.2-1.03 3.79 1.32 8.21 5.03 9.47.72.24 1.49.37 2.29.37 3.25 0 6.3-2.01 7.42-4.9.74-1.91.66-3.92.58-5.88-.05-1.2-.09-2.34.04-3.43 1.47.94 3.31 1.28 4.96.91.39-.08.67-.42.69-.82l.14-3.68a.877.877 0 0 0-.49-.82Zm-7.08 7.92c.07 1.85.14 3.59-.46 5.16-1.1 2.85-4.61 4.49-7.51 3.5-2.88-.97-4.7-4.41-3.9-7.35.63-2.31 2.95-4.11 5.28-4.11.19 0 .38.01.56.04.09.56.16 1.06.22 1.59-1.46.1-2.8.85-3.6 2.01-1.05 1.54-1.01 3.7.09 5.15 1.14 1.5 3.35 2.05 5.02 1.25 1.19-.57 2.11-1.76 2.54-3.26.36-1.26.35-2.57.34-3.73l-.09-11.58c.55.07 1.12.07 1.68 0 .72 1.55 1.75 2.98 2.99 4.14.81.76 1.79 1.22 2.64 1.24l-.07 1.73c-1.4.12-2.87-.45-3.85-1.49a.918.918 0 0 0-.84-.25c-.3.07-.55.3-.64.6-.53 1.77-.46 3.59-.39 5.36Z"/></symbol><symbol id="icon-twitter" viewBox="0 0 24 24"><title>icon-twitter</title><path d="M23.7 6.44a.838.838 0 0 0-.74-.16c-.02 0-.09 0-.37-.11l-.19-.07c-.2-.07-.39-.12-.57-.16 0-.05 0-.1.01-.15l.02-.22c.03-.31.06-.56.12-.87.06-.24.15-.63-.03-1.02a.861.861 0 0 0-.96-.49c-.5.1-1.04.46-1.64 1.12-.16.17-.27.38-.38.58-.02.04-.05.09-.08.14-.36-.2-.75-.39-1.31-.49-1.99-.35-4 .09-5.37 1.18-.59.47-1.02 1.14-1.32 1.68l-.04.07.05.03c-.06-.02-.12-.05-.19-.07-1.05-.33-2.17-.72-3.25-1.33l-.36-.2c-.19-.1-.39-.21-.57-.33-.08-.05-.15-.11-.22-.17l-.03-.02c-.15-.13-.31-.26-.49-.37l-.16-.11c-.79-.54-1.35-.88-1.94-.64a.85.85 0 0 0-.52.64c-.06.34.02.61.09.84.02.08.02.15.04.26.02.17.04.33.08.49.2.84.51 1.44.96 2.13.15.24.32.47.5.7a3.06 3.06 0 0 1-.61-.14c-.22-.07-.5-.15-.83-.15-.3.03-.52.13-.67.31a.85.85 0 0 0-.18.74c.1.46.45.79.77 1.08.72.67 1.38 1.13 2.03 1.4.1.04.2.08.31.12-.04.01-.09.03-.13.04-.37.12-.62.47-.61.86.03.79.7 1.22 1.39 1.49-.16.02-.32.04-.47.07h-.05c-.15.03-.29.06-.44.06h-.27c-.65.05-.85.01-.91-.02a.876.876 0 0 0-1.12.19c-.28.33-.27.81.02 1.14.01.02.03.03.04.05h-.03c-.62.04-1.25-.1-1.93-.23l-.09-.02c-.45-.1-.91.17-1.04.6-.13.43.07.87.47 1.04.03.03.07.08.14.14.47.45 1.07 1.01 1.9 1.19h.04c.38.23.8.46 1.28.64 1.03.39 1.86.61 2.77.75.66.1 1.33.15 2.01.15 1.71 0 3.41-.33 4.91-.95.56-.23 1.21-.51 1.83-.83.42-.22.76-.49 1.08-.76l.29-.23c.85-.67 1.58-1.42 2.3-2.36.57-.74.96-1.54 1.38-2.39.15-.31.27-.62.39-.93.07-.17.13-.35.22-.52.06-.08.15-.2.21-.35.03-.08.05-.15.06-.23l.08-.77v-.14c.03-.47.05-.94.08-1.37.53-.25 1.07-.51 1.58-.79.68-.11.95-.63.97-1.04.01-.29-.1-.56-.32-.73ZM6.04 17.5c.05-.21.03-.43-.07-.62.05 0 .11-.02.16-.03h.04c.14-.03.28-.05.41-.06h.18c.65-.04 1.38-.08 2.1-.41 1.35-.62 1.43-1.06 1.48-1.3.06-.3-.05-.61-.28-.82-.4-.36-.86-.28-.99-.25-.17 0-.42-.08-.66-.16-.16-.05-.32-.1-.47-.14l-.11-.03s.02 0 .03-.01l.2-.09c.2-.09.46-.2.67-.35.23-.17.37-.44.37-.72 0-.29-.15-.55-.38-.71-.3-.2-.64-.25-.89-.29h-.04a.75.75 0 0 1-.16-.04l-.49-.15c-.27-.08-.54-.17-.8-.26.25-.02.5-.05.75-.08.41-.04.73-.38.77-.79s-.22-.8-.61-.92c-.08-.03-.14-.09-.27-.24-.07-.08-.14-.16-.21-.23-.35-.34-.69-.75-.94-1.14-.19-.29-.34-.55-.46-.81.06.05.12.09.18.13.24.16.49.31.76.45l.31.17c1.23.7 2.51 1.15 3.6 1.49.05.02.1.04.14.05.23.09.71.29 1.25.03.45-.21.66-.61.84-.92.22-.39.53-.88.89-1.17.98-.78 2.47-1.09 3.97-.83.32.06.54.18.99.42.15.09.44.26.86.23.31-.03.56-.16.75-.33-.02.18.02.35.11.51.11.2.3.34.52.41-.08.04-.16.07-.24.11-.3.13-.5.41-.52.73-.05.56-.08 1.24-.11 2l-.06.56c-.05.07-.11.16-.16.28-.08.19-.15.38-.24.6-.1.25-.2.52-.35.84-.37.74-.71 1.43-1.17 2.03-.63.82-1.27 1.47-2 2.05-.09.07-.17.14-.26.21l-.06.05c-.25.21-.5.42-.77.56-.58.3-1.21.56-1.69.76-1.83.75-3.96 1-6 .68-.79-.12-1.52-.32-2.42-.66-.11-.04-.21-.09-.33-.14.13-.02.26-.04.37-.04h.03c.18 0 .37.01.55.04.44.04.83-.23.94-.65Zm4.92-9.99h.01-.01Z"/></symbol><symbol id="icon-user" viewBox="0 0 24 24"><title>icon-user</title><path d="M7.51 7.26c.09.65.18 1.39.62 2.06.85 1.31 2.56 2.84 4.6 2.84.37 0 .73-.05 1.08-.15 1.33-.39 2.27-1.55 2.61-2.04.52-.74 1.4-2.19 1.46-3.66.04-.82-.17-1.64-.35-2.36l-.03-.1c-.16-.65-.38-1.18-.67-1.63-.27-.42-.62-.65-.87-.8a.856.856 0 0 0-.38-.53c-.07-.04-.14-.09-.21-.14l-.04-.03c-.34-.23-.77-.52-1.31-.61l-.37-.06c-.45-.08-.76-.07-1.16-.01h-.11c-.33.06-.71.1-1.12.29-.4.19-.83.49-1.28.91-.16.14-.31.29-.48.43l-.07.06c-.14.12-.27.24-.41.37-.67.62-.95 1.39-1.17 2l-.08.22c-.14.38-.29.77-.34 1.24-.05.44-.03.93.04 1.48l.03.22Zm1.67-1.51c.03-.26.13-.52.24-.83l.08-.23c.21-.58.38-1 .71-1.31.15-.14.3-.27.45-.4.17-.15.34-.3.5-.45.31-.28.6-.5.83-.6.16-.08.35-.1.6-.13l.12-.02c.14-.02.24-.03.33-.03.09 0 .17 0 .28.03l.21.03.16.02c.04.25.18.46.39.6.22.14.44.25.66.34.33.15.5.23.6.39.18.28.33.64.44 1.1l.03.1c.16.63.32 1.29.3 1.85-.03.74-.46 1.76-1.14 2.73-.38.53-1.01 1.17-1.67 1.36-1.41.41-2.92-.73-3.72-1.96C9.36 8 9.3 7.51 9.23 7l-.03-.23a4.28 4.28 0 0 1-.04-1.05Zm13.73 16.98-.03-.11c-.39-1.55-.79-3.15-1.69-4.6-.47-.75-1.1-1.33-1.54-1.7-1.95-1.64-4.5-2.68-7.01-2.85-.52-.03-1.2-.05-1.94.1-.47.1-.89.26-1.31.42-.18.07-.37.14-.55.21l-.4.14c-.83.28-1.7.57-2.52 1-.52.28-.93.67-1.29 1l-.14.13c-.12.12-.25.22-.4.35-.22.19-.5.42-.73.67-.69.75-1.11 1.64-1.49 2.5-.06.14-.13.28-.21.44-.2.42-.41.86-.53 1.35-.2.79.07 1.31.82 1.52 1.05.31 2.05.4 3.05.29 1.05-.11 2.13-.04 3.2.04 1.46.1 2.78.15 4.04.15h.05c.64 0 1.29.04 1.93.09.55.04 1.11.07 1.67.08 1.21.02 2.41 0 3.62.03h.38c.53 0 .96-.04 1.36-.11l.32-.07c.08-.02.15-.03.22-.04a.867.867 0 0 0 1.12-1.04Zm-1.99-.56c-.47.09-.98.09-1.37.08-1.21-.02-2.42 0-3.62-.03-.53-.01-1.07-.05-1.59-.08-.66-.04-1.35-.09-2.05-.09-.44-.02-.87-.03-1.32-.04-.84-.02-1.71-.04-2.64-.11-1.13-.08-2.29-.16-3.51-.03-.59.06-1.19.03-1.82-.1.08-.19.17-.38.27-.59l.02-.04c.07-.14.13-.28.2-.42.33-.75.67-1.47 1.17-2.02.17-.18.36-.35.55-.51l.02-.02c.16-.13.32-.27.47-.41l.15-.14c.3-.29.59-.56.89-.72.7-.37 1.45-.62 2.26-.89l.41-.14c.21-.07.42-.15.64-.24.35-.14.68-.27 1.01-.33.42-.09.86-.11 1.47-.07 2.14.14 4.33 1.03 6 2.44.55.47.93.88 1.18 1.28.58.93.92 1.97 1.25 3.22h-.04Z"/></symbol><symbol id="icon-vimeo" viewBox="0 0 24 24"><title>icon-vimeo</title><path d="M23.99 6.01c0-.06-.87-2.55-1.55-3.77l-.16-.38-.05.02c-.17-.24-.3-.38-.44-.42-.12-.04-.24-.05-.36-.04-.64-.68-1.66-.44-2.12-.33l-.12.03c-.11.03-.24.03-.36.04h-.05c-.26.01-.56.03-.88.12-.39.12-.73.31-1.03.49l-.05.03c-.15.09-.3.17-.45.24l-.32.13c-.47.19-.96.39-1.53.85-.51.42-.98.83-1.14 1.37-.22.75.19 1.15.4 1.35.11.12.2.24.3.38.31.44.78 1.11 1.85 1.11h.3c.02.16 0 .43 0 .62 0 .16-.02.31-.02.45 0 .36-.04.71-.09 1.06l-.03.27c-.03.25-.04.48-.05.77-.02.33-.03.64-.1.93-.08.37-.24.74-.41 1.15l-.12.29c-.2.48-.38.96-.55 1.43l-.03.07c-.16.44-.33.89-.52 1.35-.09.22-.21.5-.34.78-.08-.25-.15-.49-.21-.73-.12-.48-.2-.98-.27-1.46v-.05c-.1-.57-.2-1.22-.37-1.84-.16-.59-.36-1.18-.53-1.71-.18-.53-.36-1.08-.51-1.64-.08-.32-.14-.66-.2-1-.13-.74-.26-1.51-.63-2.22-.16-.3-.28-.61-.4-.91-.22-.53-.44-1.08-.8-1.61l-.11-.18c-.15-.24-.32-.51-.53-.7-.64-.56-1.24-.22-1.43-.11l-.15.08c-.49.24-1.01.49-1.52.91-.08.06-.19.12-.32.18-.14.06-.29.14-.45.24-.32.2-.63.44-.9.66l-.31.24c-.28.21-.58.41-.87.59l-.05.03c-.42.27-.84.54-1.25.88C1.08 6.92.38 7.77.06 8.58c-.1.25-.08.55.07.78s.39.39.67.41c1.23.12 2.38-.17 3.5-.44l.12-.03.63-.15c.3-.07.47-.08.55-.08.18.34.36.74.52 1.1.1.23.15.54.21.88.04.23.08.48.14.71.08.3.18.58.31.93.08.2.15.4.21.61.04.15.07.31.1.47v.05c.06.29.12.66.26 1.01l.08.21c.1.25.18.46.24.73.26 1.07.65 1.95 1.07 2.88.15.33.34.54.49.71l.02.02c.06.06.11.12.16.19.03.04.06.23.08.32.05.28.12.63.34.96.53.8 1.08 1.42 1.63 1.82.34.25.74.37 1.17.37.76 0 1.48-.38 2-.65l.21-.11c.42-.22.82-.43 1.25-.72.42-.28.72-.58 1.02-.88.1-.11.21-.21.33-.32l.46-.43c.51-.47 1.09-1 1.6-1.61.54-.64.98-1.33 1.42-2l.22-.33c.56-.86 1.04-1.83 1.41-2.8.1-.26.2-.53.31-.8.24-.61.51-1.29.71-1.97.25-.85.41-1.9.44-2.8V6.43c.01-.13.02-.3 0-.43ZM3.91 7.63c-.41.1-.83.2-1.24.28.17-.17.37-.34.57-.51.33-.27.7-.51 1.08-.76.35-.22.7-.45 1.04-.71l.36-.28c.23-.19.48-.38.72-.53.09-.05.17-.09.28-.14.2-.1.43-.21.67-.4.31-.25.63-.42 1.04-.62v.02c.07.08.11.16.16.22.26.39.44.83.63 1.3.12.31.28.69.47 1.05.24.47.35 1.08.47 1.75.07.37.13.75.23 1.11.15.59.35 1.18.54 1.75.17.52.35 1.05.5 1.6.14.54.23 1.09.33 1.68.08.51.17 1.08.31 1.64.1.43.23.82.41 1.37l.05.18c.15.53.28.95.6 1.25.31.29.8.31 1.14.05.81-.64 1.27-1.66 1.68-2.65.19-.47.37-.94.54-1.4.17-.47.35-.96.56-1.44l.12-.28c.19-.45.38-.91.5-1.44.1-.45.12-.86.14-1.25v-.07c.01-.19.02-.37.04-.56l.03-.26c.05-.38.1-.82.1-1.28 0-.1 0-.22.02-.35.03-.43.06-.92-.11-1.39-.38-1.06-1.43-1.08-1.86-1.08h-.06c-.13.01-.17.01-.43-.37-.09-.12-.18-.26-.3-.4.13-.13.31-.27.45-.39l.04-.03c.29-.24.61-.37 1-.53l.35-.14c.24-.1.45-.22.71-.37.23-.13.45-.26.64-.32.12-.04.29-.04.46-.05.24-.01.47-.03.71-.08l.15-.04c.23-.06.39-.09.48-.09.17.21.42.33.68.33.39.88 1.2 2.75 1.37 3.23v.27c-.01.13-.01.26-.01.4v.66c-.03.77-.17 1.66-.37 2.38-.17.58-.41 1.19-.64 1.79v.03c-.12.28-.23.55-.33.83-.32.85-.75 1.7-1.24 2.45l-.22.34c-.42.65-.82 1.27-1.29 1.83-.44.53-.95.99-1.44 1.44l-.48.44c-.13.12-.25.24-.38.38-.25.25-.48.47-.74.65-.35.23-.69.41-1.1.63l-.23.12c-.35.18-1.07.56-1.3.39-.38-.28-.79-.73-1.19-1.36-.03-.05-.06-.21-.09-.34-.05-.28-.12-.62-.34-.95-.11-.16-.22-.29-.34-.42-.11-.12-.16-.18-.2-.27-.4-.88-.74-1.64-.96-2.55-.09-.38-.2-.68-.32-.99l-.06-.16c-.07-.19-.11-.43-.16-.69-.04-.25-.08-.47-.14-.69-.07-.26-.17-.52-.27-.79L8.42 12c-.08-.22-.16-.43-.22-.65-.04-.17-.07-.36-.1-.54v-.03c-.07-.4-.15-.86-.34-1.3-.18-.42-.39-.9-.63-1.33-.3-.53-.82-.8-1.55-.8-.26 0-.56.04-.88.11-.24.05-.48.11-.74.17Zm1.74 1.32Z"/></symbol><symbol id="icon-whatsapp" viewBox="0 0 24 24"><title>icon-whatsapp</title><path d="M22.38 5.64c-.34-.53-.72-1.13-1.2-1.62-.13-.13-.25-.27-.39-.42-.37-.41-.79-.88-1.32-1.21-.16-.1-.33-.18-.51-.27a5.92 5.92 0 0 0-.25-.12c-.17-.09-.33-.2-.51-.32-.16-.11-.33-.22-.49-.32-.33-.19-.66-.3-.93-.39l-.26-.09c-.12-.04-.24-.09-.35-.14-.25-.1-.54-.22-.86-.3-.34-.08-.7-.12-1.01-.16h-.04c-.19-.03-.37-.05-.56-.08-.75-.14-1.51-.16-2.14-.17-.18 0-.36-.01-.55-.02-.43-.02-.92-.05-1.45.02-.58.08-1.17.21-1.7.33L7.6.42c-.58.13-1.1.43-1.52.67-.12.07-.24.14-.35.2-.41.22-.94.54-1.42 1.07-.92 1-1.73 2.16-2.28 3.26l-.35.69C1.23 7.18.77 8.08.45 9.08c-.4 1.28-.4 2.68-.4 3.92v.19c0 1.48.04 2.81.51 4.16.04.1.07.21.1.31l.02.06c.12.37.25.79.47 1.18.07.13.13.27.2.46.02.05.04.13.09.22-.14.41-.28.82-.44 1.24-.1.29-.21.57-.25.68l-.06.1c-.07.1-.14.21-.23.39-.09.17-.19.38-.24.62a.884.884 0 0 0 .97 1.03c.29-.03.59-.11.94-.2l.26-.07c.6-.15 1.19-.36 1.87-.66l.13-.06c.27-.12.44-.19.48-.19.1.01.33.1.48.15l.44.16c.83.31 1.69.62 2.62.81.34.07.6.13.85.2.55.16 1.09.22 1.75.22.21 0 .42 0 .64-.02.23-.01.47-.03.7-.05.33-.03.66-.05.97-.05.37 0 .74-.03 1.18-.08l.44-.05c.12-.01.25 0 .38 0h.07c.26.01.5.02.75 0a3.9 3.9 0 0 0 1.41-.44c.76-.39 1.33-.75 1.82-1.15.99-.8 1.81-1.7 2.45-2.67.33-.5.53-.98.75-1.59l.1-.27c.28-.77.57-1.56.78-2.41.64-2.59.97-6.36-1.05-9.57Zm-.65 9.15c-.19.76-.45 1.48-.73 2.25l-.09.25c-.18.5-.33.86-.57 1.23-.54.82-1.24 1.58-2.08 2.27-.38.31-.88.62-1.52.95-.29.15-.54.23-.8.26-.13.01-.27 0-.41 0h-.07c-.23-.01-.46-.02-.69 0-.16.01-.32.03-.47.05h-.12c-.25.04-.5.07-.77.07-.41 0-.84.03-1.23.06h-.06c-.19.02-.38.04-.57.05-.69.04-1.23.02-1.82-.14-.35-.1-.7-.17-.99-.23-.78-.15-1.53-.43-2.35-.73l-.44-.16c-.25-.09-.58-.22-.92-.25h-.16c-.48 0-.92.21-1.25.36l-.1.05c-.31.14-.61.26-.89.36 0-.02.01-.04.02-.06.18-.48.36-.99.53-1.5a.81.81 0 0 0 .01-.51.855.855 0 0 0-.22-.68c-.1-.26-.19-.47-.29-.65-.13-.24-.23-.56-.33-.86-.04-.14-.09-.28-.14-.42-.38-1.09-.41-2.22-.41-3.58v-.19c0-1.17 0-2.37.32-3.4.27-.85.68-1.65 1.11-2.49l.04-.08c.11-.21.22-.42.32-.64.48-.96 1.19-1.97 2-2.86.24-.26.53-.47.96-.71.13-.07.26-.15.4-.23.36-.21.7-.4 1.01-.47l.26-.06c.48-.11 1.03-.23 1.57-.31.33-.05.71-.03 1.1 0 .21.01.41.02.62.02.56 0 1.22.03 1.85.14.23.04.47.07.71.1h.05c.25.04.51.07.76.13.19.04.37.12.56.2l.04.02c.14.06.28.12.43.17l.3.1c.23.08.43.14.59.24.13.08.25.16.37.24l.03.02c.23.15.44.29.66.41.1.05.21.11.34.17.11.05.22.1.32.17.32.2.62.53.94.89.15.16.29.33.44.48.35.36.68.88 1 1.38 1.67 2.64 1.36 5.89.8 8.16Z"/><path d="M16.95 13.98c-.07-.05-.13-.12-.21-.2-.11-.11-.23-.23-.36-.34-.09-.07-.19-.13-.27-.18l-.09-.06c-.45-.43-.98-.44-1.48-.03-.3.24-.59.55-.8.83-.11.15-.22.34-.32.52l-.04.08c-.05.09-.13.24-.19.34-.06-.04-.18-.11-.39-.27l-.31-.24c-.26-.19-.51-.37-.66-.56-.31-.41-.6-.77-.97-1.11-.64-.6-1.15-1.35-1.45-2.12.31-.2.56-.39.8-.62l.14-.13c.23-.21.59-.52.74-.99.32-.95-.44-1.84-.84-2.33C9.77 6 9.1 5.21 8.05 4.99c-1.13-.24-1.76.27-2.23.8-.1.11-.19.23-.29.35l-.03.04c-.13.16-.26.32-.4.47l-.12.13c-.27.28-.57.59-.81 1-.16.27-.4.68-.39 1.14 0 .18.04.34.1.53l.06.32c.09.49.19.99.35 1.5.05.15.08.29.12.43v.04c.07.27.15.6.29.93.17.4.36.8.54 1.19l.12.25c.29.61.66 1.12 1.03 1.62l.39.54c.34.47.69.96 1.14 1.42.51.51.94.89 1.36 1.18.97.69 2.2 1.03 3.29 1.33l.47.13a.946.946 0 0 0 .61-.05c.88 0 1.62-.11 2.32-.31.73-.22 1.3-.49 1.83-.89.36-.27.89-.67 1.05-1.35.24-1.02-.38-1.91-.82-2.55-.29-.43-.57-.83-1.06-1.22Zm-.25 3.75c-.33.25-.72.43-1.24.59-.67.2-1.41.26-2.39.23h-.05c-.95-.28-2.02-.58-2.74-1.08-.33-.24-.69-.55-1.13-.99-.35-.35-.65-.77-.96-1.2l-.4-.55c-.33-.45-.64-.87-.86-1.33l-.12-.25c-.17-.37-.35-.74-.51-1.12-.08-.19-.13-.41-.19-.66-.04-.19-.09-.39-.16-.6-.13-.41-.21-.83-.3-1.3l-.06-.33a.824.824 0 0 0-.06-.19c.02-.04.06-.13.15-.26.13-.23.34-.44.57-.67l.13-.14c.18-.19.34-.38.49-.58.09-.11.18-.23.28-.34.26-.3.3-.29.54-.24.44.09.79.48 1.25 1.03.27.33.42.54.48.64-.06.06-.18.17-.22.21-.07.06-.13.12-.19.17-.21.21-.43.36-.77.55-.99.56-.59 1.6-.46 1.95.37.99 1.04 1.98 1.89 2.78.28.27.51.56.78.91.3.39.68.67 1.01.91l.27.2c.42.33 1.12.87 1.95.61.69-.22 1.03-.83 1.28-1.29l.03-.05c.05-.1.1-.19.16-.26.05-.07.11-.14.18-.22.05.04.09.09.13.13l.03.04c.11.11.24.24.38.35.28.22.46.48.76.92.24.34.57.81.5 1.08-.03.08-.33.3-.43.38Z"/></symbol><symbol id="icon-world" viewBox="0 0 24 24"><title>icon-world</title><path d="M23.54 9.13a.857.857 0 0 0-.24-.78c-.5-1.61-1.11-2.91-1.8-3.88C20.37 2.9 18.43 1.8 17.01 1a.862.862 0 0 0-.61-.1l-.22-.06c-.25-.07-.48-.13-.67-.22-.09-.04-.18-.09-.29-.16C14.96.3 14.63.1 14.2.03c-.66-.11-1.26.11-1.68.27-.1-.05-.2-.07-.31-.08a.897.897 0 0 0-.65.23l-.16.14c-.12 0-.24.01-.37.02-.2 0-.41.01-.62.03-1.58.14-3.61 1.08-4.8 1.92-1.23.87-2.51 1.81-3.51 2.91A7.65 7.65 0 0 0 .72 7.69c-.06.1-.1.21-.12.3-.83 2.21-.82 4.76.05 7.17l.19.54c.88 2.48 1.88 5.29 4.7 6.64 1.42.68 3.15 1.38 5.27 1.38.23 0 .46.03.71.06h.06c.02.02.05.05.1.07.18.08.38.1.58.05.09.04.2.08.32.08.18 0 .36-.07.53-.21.4-.06.84-.15 1.33-.29.21-.06.41-.11.61-.16 3.01-.71 5.51-2.55 7.43-5.45 1.52-2.31 1.9-5.5 1.02-8.75Zm-7.71 7.59-.12.33c-.53 1.55-1.63 2.95-2.71 4.3v-.12c-.01-.39-.03-.78-.05-1.17l-.02-.4c-.03-.59-.05-1.19-.07-1.79V16.8l.7.03c.72.04 1.44 0 2.27-.12Zm3.33-10.95c-.06-.03-.13-.05-.2-.07-.35-.08-.69-.16-1.04-.27-.16-.04-.32-.08-.49-.12l-.16-.04c-.46-.83-.99-1.6-1.5-2.31-.16-.22-.31-.4-.45-.55.14.04.28.08.43.12.12.03.23.06.35.1.11.03.22.05.32.04 1.4.8 2.84 1.67 3.66 2.82.22.31.45.69.67 1.13-.55-.32-1.07-.61-1.59-.86ZM15 4.92c-.56-.05-1.2-.1-1.86-.13 0-.39.02-.78.02-1.16v-.44s.08.03.12.05c.66.26.72.29 1.06.76.26.36.47.66.65.93Zm1.09 1.9c.31.68.52 1.34.64 2.02.32 1.87.28 3.93-.11 5.5-.04.16-.09.31-.14.47v.03c-1.09.21-1.98.29-2.85.25-.23 0-.46-.02-.7-.03v-.11c.06-.84.11-1.72.1-2.6-.01-1.93.03-3.92.07-5.8.67.03 1.33.08 1.83.13l.34.03c.29.02.56.07.82.12Zm1.27 10.8c.09-.28.2-.56.3-.84l.1-.27c.02-.07.05-.13.07-.2.26-.08.52-.16.77-.24.32-.11.65-.21.99-.3.21-.06.42-.1.63-.15.19-.04.39-.08.58-.13.34-.08.68-.21 1.08-.4-.21.69-.48 1.3-.83 1.83-1.6 2.42-3.55 3.93-5.96 4.61.9-1.17 1.78-2.45 2.27-3.91Zm3.03-3.83-.52.12c-.24.05-.49.1-.73.17s-.49.14-.72.22c.35-1.75.37-3.83.04-5.75-.07-.41-.17-.82-.3-1.24.11.03.22.06.31.08 1.11.55 2.23 1.24 3.34 2.03v.02s.02.05.03.07c.31 1.14.45 2.28.41 3.41l-.09.05c-.58.34-1.18.69-1.76.83Zm-8.97-10.5c0 .5-.02 1-.03 1.49-.49.02-.9.06-1.29.13-.26.04-.51.09-.76.14.63-.76 1.37-1.46 2.09-2.11v.35Zm-.14 9.06c0 .82-.04 1.67-.09 2.5v.09c-1.59-.12-3-.29-4.29-.52-.11-.45-.2-.88-.26-1.29-.24-1.54.25-3.72 1.35-6 .81-.18 1.6-.36 2.38-.48.31-.05.64-.08.98-.1-.04 1.87-.08 3.85-.07 5.82ZM6.83 5.58h-.05c-.59.14-1.2.28-1.8.39-.35.06-.72.13-1.11.23.85-.82 1.86-1.56 2.77-2.2.67-.47 1.57-.93 2.43-1.24-.73.72-1.56 1.65-2.23 2.82ZM5.28 7.69l.6-.12c-.64 1.59-1.29 3.81-.97 5.82.03.22.07.42.11.63-.28-.07-.53-.13-.77-.2-.32-.09-.62-.22-.97-.36-.23-.1-.46-.19-.7-.28-.12-.04-.24-.11-.37-.18l-.03-.02c-.1-.05-.2-.11-.31-.16-.16-1.02-.23-2.53.29-4.05.21-.1.43-.21.64-.31l.49-.23c.63-.3 1.22-.42 1.98-.56Zm2.31 8.78c-.03-.06-.05-.12-.07-.18 1.1.17 2.28.3 3.6.4-.01.45-.02.84 0 1.23.02.6.04 1.19.07 1.79v.18c.03.47.05.94.07 1.41v.07c-.52-.31-.95-.95-1.37-1.57-.21-.32-.45-.67-.71-.98l-.07-.09c-.63-.78-1.13-1.4-1.51-2.25Zm-4.96-1.38c.36.15.73.31 1.16.42.53.15 1.09.28 1.73.42.16.49.31.89.47 1.25.48 1.07 1.1 1.83 1.76 2.64l.07.09c.21.26.4.54.61.86.21.32.46.68.74 1.02-.88-.18-1.79-.51-2.85-1.01-2.17-1.04-2.97-3.28-3.81-5.65l-.03-.1s.1.04.16.06Z"/></symbol><symbol id="zewo_sw" viewBox="0 0 49.15 52.92"><defs><style>.cls-1{fill:#141412}</style></defs><title>Zewo-Gutesiegel sw</title><path class="cls-1" d="M31.32 35.66a2 2 0 0 0-.88-.2 2.4 2.4 0 0 0-2.12 1.39 2.61 2.61 0 0 0-.24 1.08 2.18 2.18 0 0 0 1.21 2 2 2 0 0 0 .88.2 2.4 2.4 0 0 0 2.12-1.39 2.61 2.61 0 0 0 .24-1.08 2.18 2.18 0 0 0-1.21-2Zm13-30a12.32 12.32 0 0 0-4.69-1.27s0 0 0 .06a3.89 3.89 0 0 1 .21 1.24 6.09 6.09 0 0 1-.77 2.65 4.87 4.87 0 0 1-2.77 2.77 3.79 3.79 0 0 1-1.19.19 3.71 3.71 0 0 1-.67-.07 159 159 0 0 0-9.71 17.63c-.82 1.75-1.54 3.36-2.21 5-.23-.45-.78-1.56-.9-1.84-1.85-4-1.27-3.18-2.88-7.25-.16-.41-3.45-2-4.51-1.07a1 1 0 0 0-.08 1.15c3.12 5.43 4.67 9.13 8.14 14.45a1.68 1.68 0 0 0 2.71-.18l1-1.85c5.7-10.22 11.33-19.39 18.06-29.63.07-.13.94-1.33.28-2.02ZM7.29 10.79l.35.32.63 3.51L9.72 13l.33.29-1.83 2-.35-.29-.62-3.5-1.49 1.63-.32-.29Zm-2.67 3.13L7.74 16l-1.37 2.06-.37-.24 1.11-1.69-1-.63-.92 1.5-.37-.24 1-1.49-1.08-.71-1.13 1.68-.36-.24Zm-2.93 5.34H3.4l.42-.95-1.42-.64.19-.43L6 18.76l-.6 1.34a1.25 1.25 0 0 1-.69.73 1 1 0 0 1-.81 0 1 1 0 0 1-.56-.56 1.07 1.07 0 0 1-.06-.51h-1.8Zm3.31.67.4-.91-1.2-.54-.4.91c-.18.41-.15.77.29 1s.74-.06.91-.46Zm-1.08 3.18-3.18-.85.12-.46 3.14.85.29-1.07.42.11-.69 2.6-.42-.11ZM.27 24.6l3.73.53-.07.47-3.73-.53Zm3.03 2.68H2.08L2 29h-.4v-1.74L0 27.2v-.47l3.74.1-.07 2.41h-.42ZM.07 30.45l3.71-.35.05.48-3.72.35Zm.19 1.85.45-.1 3.23 1.51-.46-2.11.43-.09.58 2.65-.46.1L.8 32.74l.48 2.15-.43.11Zm1.03 3.98L4.81 35l.16.45-3.52 1.28Zm.76 2 3.35-1.67 1.11 2.24-.39.2-.9-1.82-1 .51.78 1.59-.39.2-.8-1.6-1.16.58.91 1.82-.39.19Zm3.11 5.19L6 42l-.6-.83-1.26.9-.27-.38 3-2.17.85 1.18a1.26 1.26 0 0 1 .28 1 1 1 0 0 1-.44.68 1 1 0 0 1-.76.2 1.07 1.07 0 0 1-.48-.21l-.9 1.56ZM7.41 41l-.58-.81-1.06.76.58.81A.66.66 0 1 0 7.41 41Zm2.21 2.5-2.34 2.32-.34-.34 2.35-2.32-.78-.79.31-.31 1.9 1.94-.31.31Zm4.1 6.57a1.42 1.42 0 0 1-1.07-.14 1.44 1.44 0 0 1-.69-.84 2 2 0 0 1 .34-1.57 2 2 0 0 1 1.15-1.12 1.49 1.49 0 0 1 1.77 1 1.27 1.27 0 0 1-.1.93l-.42-.24a.82.82 0 0 0 .07-.55.89.89 0 0 0-.45-.57 1 1 0 0 0-.74-.08 1.72 1.72 0 0 0-.86.9 1.7 1.7 0 0 0-.31 1.21.92.92 0 0 0 .45.57.94.94 0 0 0 .74.09.92.92 0 0 0 .44-.37l.42.23a1.31 1.31 0 0 1-.74.55Zm1.41 1.01 1.27-3.52 2.35.85-.15.41-1.91-.69-.38 1.07 1.67.6-.15.42-1.67-.6-.44 1.21 1.91.69-.15.4ZM21 52.69 20.58 51l-1-.19-.29 1.53-.46-.09.69-3.68 1.44.28a1.23 1.23 0 0 1 .87.5 1.06 1.06 0 0 1 .15.8 1 1 0 0 1-.42.67 1.07 1.07 0 0 1-.48.18l.43 1.75Zm-.12-3.39-1-.18-.24 1.29 1 .18c.43.08.78 0 .87-.5s-.2-.71-.64-.79Zm3.35.32-.09 3.3h-.47l.09-3.3h-1.11v-.43l2.69.07v.43Zm2.3 3.23-.32-3.72.48-.05.31 3.73Zm1.9-3.57.25 1.19 1.7-.36.09.44-1.7.36.34 1.6-.46.1-.77-3.61 2.36-.5.09.42Zm3.83 2.42-1.21-3.54.46-.15 1.2 3.54Zm2.01-.7-1.63-3.36 2.24-1.09.19.39-1.82.88.5 1 1.6-.78.19.4-1.6.77.56 1.16 1.82-.88.19.39Zm-.97-4-.25-.16.52-1 .38.23Zm8.44-1.49a1.42 1.42 0 0 1-.47 1 1.46 1.46 0 0 1-1 .39 2.76 2.76 0 0 1-2.07-2.27 1.42 1.42 0 0 1 .48-1 1.45 1.45 0 0 1 1-.39 1.32 1.32 0 0 1 .85.38l-.36.33a.8.8 0 0 0-.5-.25.88.88 0 0 0-.67.3.94.94 0 0 0-.31.66 1.71 1.71 0 0 0 .58 1.11 1.67 1.67 0 0 0 1.05.68.9.9 0 0 0 .69-.24 1 1 0 0 0 .31-.67.84.84 0 0 0-.21-.54l.36-.32a1.29 1.29 0 0 1 .27.83Zm1.41-1.03-2.93-2.32 1.55-2 .33.27-1.25 1.59.89.71 1.1-1.4.35.27-1.1 1.4 1 .8 1.26-1.59.34.27Zm3.39-5.06-1.7-.14-.51.91 1.36.75-.22.41-3.27-1.81.71-1.28a1.28 1.28 0 0 1 .75-.67 1 1 0 0 1 .81.11 1 1 0 0 1 .51.61 1.13 1.13 0 0 1 0 .52l1.8.14Zm-3.25-1-.48.87L44 40l.49-.87c.21-.38.21-.75-.2-1s-.78-.05-1 .34Zm1.36-3.01 3.1 1.12-.16.45-3.1-1.13-.38 1-.41-.15.92-2.54.41.15Zm3.79-1.18-3.64-.85.11-.46 3.64.85Zm-2.8-2.91 1.21.14.2-1.73.44.05-.2 1.73 1.64.19-.06.46-3.71-.42.27-2.4.43.05Zm3.51-2.89h-3.74V28h3.74Zm-.68-4.37A1.43 1.43 0 0 1 49 25a1.48 1.48 0 0 1-.26 1.06 2 2 0 0 1-1.47.66 2 2 0 0 1-1.58-.26 1.43 1.43 0 0 1-.53-.95 1.39 1.39 0 0 1 .25-1 1.26 1.26 0 0 1 .8-.47l.06.48a.8.8 0 0 0-.49.27.9.9 0 0 0-.18.7.92.92 0 0 0 .37.64 1.72 1.72 0 0 0 1.24.15 1.69 1.69 0 0 0 1.16-.47 1 1 0 0 0-.18-1.35.87.87 0 0 0-.56-.13l-.06-.48a1.33 1.33 0 0 1 .9.21Zm-.69-3.91-.78.55.47 1.55h.93l.14.46-4-.18-.09-.53 3.19-2.34Zm-2.8 2 2 .07-.34-1.22Zm-1.21-3 3-1.4.2.43-3 1.4.47 1-.4.18-1.14-2.43.4-.19Zm.38-5.15a1.4 1.4 0 0 1 .89.61 1.42 1.42 0 0 1 .23 1.06 2 2 0 0 1-1 1.26 2 2 0 0 1-1.54.46 1.48 1.48 0 0 1-1.12-1.68 2 2 0 0 1 1-1.25 2 2 0 0 1 1.54-.46Zm-2.1 1.8a1 1 0 0 0 .15.72.9.9 0 0 0 .61.41 1.69 1.69 0 0 0 1.19-.41 1.67 1.67 0 0 0 .83-.94 1 1 0 0 0-.76-1.13 1.73 1.73 0 0 0-1.19.41 1.72 1.72 0 0 0-.83.94Z"/><path class="cls-1" d="M38.34 18.8a16.93 16.93 0 1 1-6.55-5.57l1.29-2.1a19.26 19.26 0 1 0 6.66 5.45c-.47.74-.94 1.48-1.4 2.22Z"/><path class="cls-1" d="m12.16 11.47-.63-1.18L12.83 4 9.27 6l-.59-1.12 5-2.71.64 1.17-1.24 6.24 3.63-2 .59 1.12ZM18 8.52l-1.46-7.31 5.21-1L22 1.39l-3.87.76.33 1.7 3.41-.67.23 1.2-3.41.67.39 2 3.88-.76.24 1.21Zm12.19-.4L28.85 8l-.92-5.29-2.17 4.87-1.34-.17L23.83 0h1.29l.4 5.26L27.66.43l1.12.14.87 5.2 1.69-5 1.16.32Zm5.81 2a3 3 0 0 1-2.29-.21 3 3 0 0 1-1.52-1.71 3.85 3.85 0 0 1 .51-3.11 3.87 3.87 0 0 1 2.2-2.28 3 3 0 0 1 2.29.2 3 3 0 0 1 1.54 1.71 3.94 3.94 0 0 1-.51 3.13A3.88 3.88 0 0 1 36 10.12Zm1.45-5a1.69 1.69 0 0 0-.83-1A1.65 1.65 0 0 0 35.37 4a3.11 3.11 0 0 0-1.44 1.7 3.1 3.1 0 0 0-.48 2.15 1.64 1.64 0 0 0 .83 1 1.61 1.61 0 0 0 1.27.09A3.15 3.15 0 0 0 37 7.23a3.16 3.16 0 0 0 .47-2.15Z"/></symbol></svg>